ply
format ascii 1.0
comment Created by Blender 2.73 (sub 0) - www.blender.org, source file: ''
element vertex 568
property float x
property float y
property float z
property uchar red
property uchar green
property uchar blue
element face 284
property list uchar uint vertex_indices
end_header
0.972222 -0.805556 0.000000 13 13 13
1.000000 -0.805556 0.000000 13 13 13
1.000000 -0.777778 0.000000 13 13 13
0.972222 -0.777778 0.000000 13 13 13
0.972222 -0.583333 0.000000 13 13 13
1.000000 -0.583333 0.000000 13 13 13
1.000000 -0.555556 0.000000 13 13 13
0.972222 -0.555556 0.000000 13 13 13
0.972222 -0.361111 0.000000 13 13 13
1.000000 -0.361111 0.000000 13 13 13
1.000000 -0.333333 0.000000 13 13 13
0.972222 -0.333333 0.000000 13 13 13
0.972222 -0.138889 0.000000 13 13 13
1.000000 -0.138889 0.000000 13 13 13
1.000000 -0.111111 0.000000 13 13 13
0.972222 -0.111111 0.000000 13 13 13
0.972222 0.083333 0.000000 13 13 13
1.000000 0.083333 0.000000 13 13 13
1.000000 0.111111 0.000000 13 13 13
0.972222 0.111111 0.000000 13 13 13
0.972222 0.305556 0.000000 13 13 13
1.000000 0.305556 0.000000 13 13 13
1.000000 0.333333 0.000000 13 13 13
0.972222 0.333333 0.000000 13 13 13
0.972222 0.527778 0.000000 13 13 13
1.000000 0.527778 0.000000 13 13 13
1.000000 0.555556 0.000000 13 13 13
0.972222 0.555556 0.000000 13 13 13
0.972222 0.750000 0.000000 13 13 13
1.000000 0.750000 0.000000 13 13 13
1.000000 0.777778 0.000000 13 13 13
0.972222 0.777778 0.000000 13 13 13
-0.805556 0.972222 0.000000 13 13 13
-0.777778 0.972222 0.000000 13 13 13
-0.777778 1.000000 0.000000 13 13 13
-0.805556 1.000000 0.000000 13 13 13
-0.583333 0.972222 0.000000 13 13 13
-0.555556 0.972222 0.000000 13 13 13
-0.555556 1.000000 0.000000 13 13 13
-0.583333 1.000000 0.000000 13 13 13
-0.361111 0.972222 0.000000 13 13 13
-0.333333 0.972222 0.000000 13 13 13
-0.333333 1.000000 0.000000 13 13 13
-0.361111 1.000000 0.000000 13 13 13
-0.138889 0.972222 0.000000 13 13 13
-0.111111 0.972222 0.000000 13 13 13
-0.111111 1.000000 0.000000 15 15 15
-0.138889 1.000000 0.000000 17 17 17
0.083333 0.972222 0.000000 13 13 13
0.111111 0.972222 0.000000 13 13 13
0.111111 1.000000 0.000000 13 13 13
0.083333 1.000000 0.000000 13 13 13
0.305556 0.972222 0.000000 13 13 13
0.333333 0.972222 0.000000 13 13 13
0.333333 1.000000 0.000000 13 13 13
0.305556 1.000000 0.000000 13 13 13
0.527778 0.972222 0.000000 13 13 13
0.555556 0.972222 0.000000 13 13 13
0.555556 1.000000 0.000000 13 13 13
0.527778 1.000000 0.000000 13 13 13
0.750000 0.972222 0.000000 13 13 13
0.777778 0.972222 0.000000 13 13 13
0.777778 1.000000 0.000000 13 13 13
0.750000 1.000000 0.000000 14 14 14
0.972222 0.972222 0.000000 13 13 13
1.000000 0.972222 0.000000 13 13 13
1.000000 1.000000 0.000000 13 13 13
0.972222 1.000000 0.000000 13 13 13
0.861111 0.972222 0.000000 13 13 13
0.888889 0.972222 0.000000 13 13 13
0.888889 1.000000 0.000000 13 13 13
0.861111 1.000000 0.000000 13 13 13
0.972222 0.861111 0.000000 13 13 13
1.000000 0.861111 0.000000 13 13 13
1.000000 0.888889 0.000000 13 13 13
0.972222 0.888889 0.000000 13 13 13
0.638889 0.972222 0.000000 13 13 13
0.666667 0.972222 0.000000 13 13 13
0.666667 1.000000 0.000000 26 26 26
0.638889 1.000000 0.000000 17 17 17
0.416667 0.972222 0.000000 13 13 13
0.444444 0.972222 0.000000 13 13 13
0.444444 1.000000 0.000000 13 13 13
0.416667 1.000000 0.000000 13 13 13
0.194444 0.972222 0.000000 13 13 13
0.222222 0.972222 0.000000 13 13 13
0.222222 1.000000 0.000000 13 13 13
0.194444 1.000000 0.000000 13 13 13
-0.027778 0.972222 0.000000 13 13 13
0.000000 0.972222 0.000000 13 13 13
0.000000 1.000000 0.000000 13 13 13
-0.027778 1.000000 0.000000 13 13 13
-0.250000 0.972222 0.000000 13 13 13
-0.222222 0.972222 0.000000 13 13 13
-0.222222 1.000000 0.000000 14 14 14
-0.250000 1.000000 0.000000 13 13 13
-0.472222 0.972222 0.000000 13 13 13
-0.444444 0.972222 0.000000 13 13 13
-0.444444 1.000000 0.000000 13 13 13
-0.472222 1.000000 0.000000 13 13 13
-0.694444 0.972222 0.000000 13 13 13
-0.666667 0.972222 0.000000 13 13 13
-0.666667 1.000000 0.000000 13 13 13
-0.694444 1.000000 0.000000 13 13 13
-0.916667 0.972222 0.000000 13 13 13
-0.888889 0.972222 0.000000 13 13 13
-0.888889 1.000000 0.000000 13 13 13
-0.916667 1.000000 0.000000 13 13 13
0.972222 0.638889 0.000000 13 13 13
1.000000 0.638889 0.000000 13 13 13
1.000000 0.666667 0.000000 13 13 13
0.972222 0.666667 0.000000 13 13 13
0.972222 0.416667 0.000000 13 13 13
1.000000 0.416667 0.000000 13 13 13
1.000000 0.444444 0.000000 13 13 13
0.972222 0.444444 0.000000 13 13 13
0.972222 0.194444 0.000000 13 13 13
1.000000 0.194444 0.000000 13 13 13
1.000000 0.222222 0.000000 13 13 13
0.972222 0.222222 0.000000 13 13 13
0.972222 -0.027778 0.000000 13 13 13
1.000000 -0.027778 0.000000 13 13 13
1.000000 0.000000 0.000000 13 13 13
0.972222 0.000000 0.000000 13 13 13
0.972222 -0.250000 0.000000 13 13 13
1.000000 -0.250000 0.000000 13 13 13
1.000000 -0.222222 0.000000 13 13 13
0.972222 -0.222222 0.000000 13 13 13
0.972222 -0.472222 0.000000 13 13 13
1.000000 -0.472222 0.000000 13 13 13
1.000000 -0.444444 0.000000 13 13 13
0.972222 -0.444444 0.000000 13 13 13
0.972222 -0.694444 0.000000 13 13 13
1.000000 -0.694444 0.000000 13 13 13
1.000000 -0.666667 0.000000 13 13 13
0.972222 -0.666667 0.000000 13 13 13
0.972222 -0.916667 0.000000 13 13 13
1.000000 -0.916667 0.000000 13 13 13
1.000000 -0.888889 0.000000 13 13 13
0.972222 -0.888889 0.000000 13 13 13
0.972222 -0.972222 0.000000 13 13 13
1.000000 -0.972222 0.000000 13 13 13
1.000000 -0.944444 0.000000 13 13 13
0.972222 -0.944444 0.000000 13 13 13
0.972222 -0.750000 0.000000 13 13 13
1.000000 -0.750000 0.000000 13 13 13
1.000000 -0.722222 0.000000 13 13 13
0.972222 -0.722222 0.000000 13 13 13
0.972222 -0.527778 0.000000 13 13 13
1.000000 -0.527778 0.000000 13 13 13
1.000000 -0.500000 0.000000 13 13 13
0.972222 -0.500000 0.000000 13 13 13
0.972222 -0.305556 0.000000 13 13 13
1.000000 -0.305556 0.000000 13 13 13
1.000000 -0.277778 0.000000 13 13 13
0.972222 -0.277778 0.000000 13 13 13
0.972222 -0.083333 0.000000 13 13 13
1.000000 -0.083333 0.000000 13 13 13
1.000000 -0.055556 0.000000 13 13 13
0.972222 -0.055556 0.000000 13 13 13
0.972222 0.138889 0.000000 13 13 13
1.000000 0.138889 0.000000 13 13 13
1.000000 0.166667 0.000000 13 13 13
0.972222 0.166667 0.000000 13 13 13
0.972222 0.361111 0.000000 13 13 13
1.000000 0.361111 0.000000 13 13 13
1.000000 0.388889 0.000000 13 13 13
0.972222 0.388889 0.000000 13 13 13
0.972222 0.583333 0.000000 13 13 13
1.000000 0.583333 0.000000 13 13 13
1.000000 0.611111 0.000000 13 13 13
0.972222 0.611111 0.000000 13 13 13
-0.972222 0.972222 0.000000 13 13 13
-0.944444 0.972222 0.000000 13 13 13
-0.944444 1.000000 0.000000 13 13 13
-0.972222 1.000000 0.000000 13 13 13
-0.750000 0.972222 0.000000 13 13 13
-0.722222 0.972222 0.000000 13 13 13
-0.722222 1.000000 0.000000 13 13 13
-0.750000 1.000000 0.000000 13 13 13
-0.527778 0.972222 0.000000 13 13 13
-0.500000 0.972222 0.000000 13 13 13
-0.500000 1.000000 0.000000 13 13 13
-0.527778 1.000000 0.000000 13 13 13
-0.305556 0.972222 0.000000 13 13 13
-0.277778 0.972222 0.000000 13 13 13
-0.277778 1.000000 0.000000 14 14 14
-0.305556 1.000000 0.000000 13 13 13
-0.083333 0.972222 0.000000 13 13 13
-0.055556 0.972222 0.000000 13 13 13
-0.055556 1.000000 0.000000 14 14 14
-0.083333 1.000000 0.000000 15 15 15
0.138889 0.972222 0.000000 13 13 13
0.166667 0.972222 0.000000 13 13 13
0.166667 1.000000 0.000000 13 13 13
0.138889 1.000000 0.000000 13 13 13
0.361111 0.972222 0.000000 13 13 13
0.388889 0.972222 0.000000 13 13 13
0.388889 1.000000 0.000000 13 13 13
0.361111 1.000000 0.000000 13 13 13
0.583333 0.972222 0.000000 13 13 13
0.611111 0.972222 0.000000 13 13 13
0.611111 1.000000 0.000000 14 14 14
0.583333 1.000000 0.000000 13 13 13
0.972222 0.805556 0.000000 13 13 13
1.000000 0.805556 0.000000 13 13 13
1.000000 0.833333 0.000000 13 13 13
0.972222 0.833333 0.000000 13 13 13
0.805556 0.972222 0.000000 13 13 13
0.833333 0.972222 0.000000 13 13 13
0.833333 1.000000 0.000000 13 13 13
0.805556 1.000000 0.000000 13 13 13
0.916667 0.972222 0.000000 13 13 13
0.944444 0.972222 0.000000 13 13 13
0.944444 1.000000 0.000000 13 13 13
0.916667 1.000000 0.000000 13 13 13
0.972222 0.916667 0.000000 13 13 13
1.000000 0.916667 0.000000 13 13 13
1.000000 0.944444 0.000000 13 13 13
0.972222 0.944444 0.000000 13 13 13
0.694444 0.972222 0.000000 13 13 13
0.722222 0.972222 0.000000 13 13 13
0.722222 1.000000 0.000000 32 32 32
0.694444 1.000000 0.000000 34 34 34
0.472222 0.972222 0.000000 13 13 13
0.500000 0.972222 0.000000 13 13 13
0.500000 1.000000 0.000000 13 13 13
0.472222 1.000000 0.000000 13 13 13
0.250000 0.972222 0.000000 13 13 13
0.277778 0.972222 0.000000 13 13 13
0.277778 1.000000 0.000000 13 13 13
0.250000 1.000000 0.000000 13 13 13
0.027778 0.972222 0.000000 13 13 13
0.055556 0.972222 0.000000 13 13 13
0.055556 1.000000 0.000000 13 13 13
0.027778 1.000000 0.000000 13 13 13
-0.194444 0.972222 0.000000 13 13 13
-0.166667 0.972222 0.000000 13 13 13
-0.166667 1.000000 0.000000 18 18 18
-0.194444 1.000000 0.000000 15 15 15
-0.416667 0.972222 0.000000 13 13 13
-0.388889 0.972222 0.000000 13 13 13
-0.388889 1.000000 0.000000 13 13 13
-0.416667 1.000000 0.000000 13 13 13
-0.638889 0.972222 0.000000 13 13 13
-0.611111 0.972222 0.000000 13 13 13
-0.611111 1.000000 0.000000 13 13 13
-0.638889 1.000000 0.000000 13 13 13
-0.861111 0.972222 0.000000 13 13 13
-0.833333 0.972222 0.000000 13 13 13
-0.833333 1.000000 0.000000 13 13 13
-0.861111 1.000000 0.000000 13 13 13
0.972222 0.694444 0.000000 13 13 13
1.000000 0.694444 0.000000 13 13 13
1.000000 0.722222 0.000000 13 13 13
0.972222 0.722222 0.000000 13 13 13
0.972222 0.472222 0.000000 13 13 13
1.000000 0.472222 0.000000 13 13 13
1.000000 0.500000 0.000000 13 13 13
0.972222 0.500000 0.000000 13 13 13
0.972222 0.250000 0.000000 13 13 13
1.000000 0.250000 0.000000 13 13 13
1.000000 0.277778 0.000000 13 13 13
0.972222 0.277778 0.000000 13 13 13
0.972222 0.027778 0.000000 13 13 13
1.000000 0.027778 0.000000 13 13 13
1.000000 0.055556 0.000000 13 13 13
0.972222 0.055556 0.000000 13 13 13
0.972222 -0.194444 0.000000 13 13 13
1.000000 -0.194444 0.000000 13 13 13
1.000000 -0.166667 0.000000 13 13 13
0.972222 -0.166667 0.000000 13 13 13
0.972222 -0.416667 0.000000 13 13 13
1.000000 -0.416667 0.000000 13 13 13
1.000000 -0.388889 0.000000 13 13 13
0.972222 -0.388889 0.000000 13 13 13
0.972222 -0.638889 0.000000 13 13 13
1.000000 -0.638889 0.000000 13 13 13
1.000000 -0.611111 0.000000 13 13 13
0.972222 -0.611111 0.000000 13 13 13
0.972222 -0.861111 0.000000 13 13 13
1.000000 -0.861111 0.000000 13 13 13
1.000000 -0.833333 0.000000 13 13 13
0.972222 -0.833333 0.000000 13 13 13
-1.000000 0.916667 0.000000 13 13 13
-0.972222 0.916667 0.000000 13 13 13
-0.972222 0.944444 0.000000 13 13 13
-1.000000 0.944444 0.000000 14 14 14
-1.000000 0.888889 0.000000 13 13 13
-0.972222 0.888889 0.000000 13 13 13
-1.000000 0.972222 0.000000 17 17 17
-1.000000 1.000000 0.000000 15 15 15
-1.000000 0.805556 0.000000 13 13 13
-0.972222 0.805556 0.000000 13 13 13
-0.972222 0.833333 0.000000 13 13 13
-1.000000 0.833333 0.000000 13 13 13
-1.000000 0.777778 0.000000 13 13 13
-0.972222 0.777778 0.000000 13 13 13
-1.000000 0.861111 0.000000 13 13 13
-0.972222 0.861111 0.000000 13 13 13
-1.000000 0.694444 0.000000 13 13 13
-0.972222 0.694444 0.000000 13 13 13
-0.972222 0.722222 0.000000 13 13 13
-1.000000 0.722222 0.000000 13 13 13
-1.000000 0.666667 0.000000 13 13 13
-0.972222 0.666667 0.000000 13 13 13
-1.000000 0.750000 0.000000 13 13 13
-0.972222 0.750000 0.000000 13 13 13
-1.000000 0.583333 0.000000 13 13 13
-0.972222 0.583333 0.000000 13 13 13
-0.972222 0.611111 0.000000 13 13 13
-1.000000 0.611111 0.000000 13 13 13
-1.000000 0.555556 0.000000 13 13 13
-0.972222 0.555556 0.000000 13 13 13
-1.000000 0.638889 0.000000 13 13 13
-0.972222 0.638889 0.000000 13 13 13
-1.000000 0.472222 0.000000 13 13 13
-0.972222 0.472222 0.000000 13 13 13
-0.972222 0.500000 0.000000 13 13 13
-1.000000 0.500000 0.000000 13 13 13
-1.000000 0.444444 0.000000 13 13 13
-0.972222 0.444444 0.000000 13 13 13
-1.000000 0.527778 0.000000 13 13 13
-0.972222 0.527778 0.000000 13 13 13
-1.000000 0.361111 0.000000 13 13 13
-0.972222 0.361111 0.000000 13 13 13
-0.972222 0.388889 0.000000 13 13 13
-1.000000 0.388889 0.000000 13 13 13
-1.000000 0.333333 0.000000 13 13 13
-0.972222 0.333333 0.000000 13 13 13
-1.000000 0.416667 0.000000 13 13 13
-0.972222 0.416667 0.000000 13 13 13
-1.000000 0.250000 0.000000 13 13 13
-0.972222 0.250000 0.000000 13 13 13
-0.972222 0.277778 0.000000 13 13 13
-1.000000 0.277778 0.000000 13 13 13
-1.000000 0.222222 0.000000 13 13 13
-0.972222 0.222222 0.000000 13 13 13
-1.000000 0.305556 0.000000 13 13 13
-0.972222 0.305556 0.000000 13 13 13
-1.000000 0.138889 0.000000 13 13 13
-0.972222 0.138889 0.000000 13 13 13
-0.972222 0.166667 0.000000 13 13 13
-1.000000 0.166667 0.000000 13 13 13
-1.000000 0.111111 0.000000 13 13 13
-0.972222 0.111111 0.000000 13 13 13
-1.000000 0.194444 0.000000 13 13 13
-0.972222 0.194444 0.000000 13 13 13
-1.000000 0.027778 0.000000 13 13 13
-0.972222 0.027778 0.000000 13 13 13
-0.972222 0.055556 0.000000 13 13 13
-1.000000 0.055556 0.000000 13 13 13
-1.000000 0.000000 0.000000 13 13 13
-0.972222 0.000000 0.000000 13 13 13
-1.000000 0.083333 0.000000 13 13 13
-0.972222 0.083333 0.000000 13 13 13
-1.000000 -0.083333 0.000000 13 13 13
-0.972222 -0.083333 0.000000 13 13 13
-0.972222 -0.055556 0.000000 13 13 13
-1.000000 -0.055556 0.000000 13 13 13
-1.000000 -0.111111 0.000000 13 13 13
-0.972222 -0.111111 0.000000 13 13 13
-1.000000 -0.027778 0.000000 13 13 13
-0.972222 -0.027778 0.000000 13 13 13
-1.000000 -0.194444 0.000000 13 13 13
-0.972222 -0.194444 0.000000 13 13 13
-0.972222 -0.166667 0.000000 13 13 13
-1.000000 -0.166667 0.000000 13 13 13
-1.000000 -0.222222 0.000000 13 13 13
-0.972222 -0.222222 0.000000 13 13 13
-1.000000 -0.138889 0.000000 13 13 13
-0.972222 -0.138889 0.000000 13 13 13
-1.000000 -0.305556 0.000000 13 13 13
-0.972222 -0.305556 0.000000 13 13 13
-0.972222 -0.277778 0.000000 13 13 13
-1.000000 -0.277778 0.000000 13 13 13
-1.000000 -0.333333 0.000000 13 13 13
-0.972222 -0.333333 0.000000 13 13 13
-1.000000 -0.250000 0.000000 13 13 13
-0.972222 -0.250000 0.000000 13 13 13
-1.000000 -0.416667 0.000000 13 13 13
-0.972222 -0.416667 0.000000 13 13 13
-0.972222 -0.388889 0.000000 13 13 13
-1.000000 -0.388889 0.000000 13 13 13
-1.000000 -0.444444 0.000000 13 13 13
-0.972222 -0.444444 0.000000 13 13 13
-1.000000 -0.361111 0.000000 13 13 13
-0.972222 -0.361111 0.000000 13 13 13
-1.000000 -0.527778 0.000000 13 13 13
-0.972222 -0.527778 0.000000 13 13 13
-0.972222 -0.500000 0.000000 13 13 13
-1.000000 -0.500000 0.000000 13 13 13
-1.000000 -0.555556 0.000000 13 13 13
-0.972222 -0.555556 0.000000 13 13 13
-1.000000 -0.472222 0.000000 13 13 13
-0.972222 -0.472222 0.000000 13 13 13
-1.000000 -0.638889 0.000000 13 13 13
-0.972222 -0.638889 0.000000 13 13 13
-0.972222 -0.611111 0.000000 13 13 13
-1.000000 -0.611111 0.000000 13 13 13
-1.000000 -0.666667 0.000000 13 13 13
-0.972222 -0.666667 0.000000 13 13 13
-1.000000 -0.583333 0.000000 13 13 13
-0.972222 -0.583333 0.000000 13 13 13
-1.000000 -0.750000 0.000000 13 13 13
-0.972222 -0.750000 0.000000 13 13 13
-0.972222 -0.722222 0.000000 13 13 13
-1.000000 -0.722222 0.000000 13 13 13
-1.000000 -0.777778 0.000000 13 13 13
-0.972222 -0.777778 0.000000 13 13 13
-1.000000 -0.694444 0.000000 13 13 13
-0.972222 -0.694444 0.000000 13 13 13
0.833333 -1.000000 0.000000 13 13 13
0.861111 -1.000000 0.000000 13 13 13
0.861111 -0.972222 0.000000 13 13 13
0.833333 -0.972222 0.000000 13 13 13
0.888889 -1.000000 0.000000 13 13 13
0.888889 -0.972222 0.000000 13 13 13
0.777778 -1.000000 0.000000 13 13 13
0.805556 -1.000000 0.000000 13 13 13
0.805556 -0.972222 0.000000 13 13 13
0.777778 -0.972222 0.000000 13 13 13
0.944444 -1.000000 0.000000 13 13 13
0.972222 -1.000000 0.000000 13 13 13
0.944444 -0.972222 0.000000 13 13 13
1.000000 -1.000000 0.000000 13 13 13
0.916667 -1.000000 0.000000 13 13 13
0.916667 -0.972222 0.000000 13 13 13
0.611111 -1.000000 0.000000 13 13 13
0.638889 -1.000000 0.000000 13 13 13
0.638889 -0.972222 0.000000 13 13 13
0.611111 -0.972222 0.000000 13 13 13
0.666667 -1.000000 0.000000 13 13 13
0.666667 -0.972222 0.000000 13 13 13
0.555556 -1.000000 0.000000 13 13 13
0.583333 -1.000000 0.000000 13 13 13
0.583333 -0.972222 0.000000 13 13 13
0.555556 -0.972222 0.000000 13 13 13
0.722222 -1.000000 0.000000 13 13 13
0.750000 -1.000000 0.000000 13 13 13
0.750000 -0.972222 0.000000 13 13 13
0.722222 -0.972222 0.000000 13 13 13
0.694444 -1.000000 0.000000 13 13 13
0.694444 -0.972222 0.000000 13 13 13
0.388889 -1.000000 0.000000 13 13 13
0.416667 -1.000000 0.000000 13 13 13
0.416667 -0.972222 0.000000 13 13 13
0.388889 -0.972222 0.000000 13 13 13
0.444444 -1.000000 0.000000 13 13 13
0.444444 -0.972222 0.000000 13 13 13
0.333333 -1.000000 0.000000 13 13 13
0.361111 -1.000000 0.000000 13 13 13
0.361111 -0.972222 0.000000 13 13 13
0.333333 -0.972222 0.000000 13 13 13
0.500000 -1.000000 0.000000 13 13 13
0.527778 -1.000000 0.000000 13 13 13
0.527778 -0.972222 0.000000 13 13 13
0.500000 -0.972222 0.000000 13 13 13
0.472222 -1.000000 0.000000 13 13 13
0.472222 -0.972222 0.000000 13 13 13
0.166667 -1.000000 0.000000 13 13 13
0.194444 -1.000000 0.000000 13 13 13
0.194444 -0.972222 0.000000 13 13 13
0.166667 -0.972222 0.000000 13 13 13
0.222222 -1.000000 0.000000 13 13 13
0.222222 -0.972222 0.000000 13 13 13
0.111111 -1.000000 0.000000 13 13 13
0.138889 -1.000000 0.000000 13 13 13
0.138889 -0.972222 0.000000 13 13 13
0.111111 -0.972222 0.000000 13 13 13
0.277778 -1.000000 0.000000 13 13 13
0.305556 -1.000000 0.000000 13 13 13
0.305556 -0.972222 0.000000 13 13 13
0.277778 -0.972222 0.000000 13 13 13
0.250000 -1.000000 0.000000 13 13 13
0.250000 -0.972222 0.000000 13 13 13
-0.055556 -1.000000 0.000000 13 13 13
-0.027778 -1.000000 0.000000 13 13 13
-0.027778 -0.972222 0.000000 13 13 13
-0.055556 -0.972222 0.000000 13 13 13
0.000000 -1.000000 0.000000 13 13 13
0.000000 -0.972222 0.000000 13 13 13
-0.111111 -1.000000 0.000000 13 13 13
-0.083333 -1.000000 0.000000 13 13 13
-0.083333 -0.972222 0.000000 13 13 13
-0.111111 -0.972222 0.000000 13 13 13
0.055556 -1.000000 0.000000 13 13 13
0.083333 -1.000000 0.000000 13 13 13
0.083333 -0.972222 0.000000 13 13 13
0.055556 -0.972222 0.000000 13 13 13
0.027778 -1.000000 0.000000 13 13 13
0.027778 -0.972222 0.000000 13 13 13
-0.277778 -1.000000 0.000000 13 13 13
-0.250000 -1.000000 0.000000 13 13 13
-0.250000 -0.972222 0.000000 13 13 13
-0.277778 -0.972222 0.000000 13 13 13
-0.222222 -1.000000 0.000000 13 13 13
-0.222222 -0.972222 0.000000 13 13 13
-0.333333 -1.000000 0.000000 13 13 13
-0.305556 -1.000000 0.000000 13 13 13
-0.305556 -0.972222 0.000000 13 13 13
-0.333333 -0.972222 0.000000 13 13 13
-0.166667 -1.000000 0.000000 13 13 13
-0.138889 -1.000000 0.000000 13 13 13
-0.138889 -0.972222 0.000000 13 13 13
-0.166667 -0.972222 0.000000 13 13 13
-0.194444 -1.000000 0.000000 13 13 13
-0.194444 -0.972222 0.000000 13 13 13
-0.500000 -1.000000 0.000000 13 13 13
-0.472222 -1.000000 0.000000 13 13 13
-0.472222 -0.972222 0.000000 13 13 13
-0.500000 -0.972222 0.000000 13 13 13
-0.444444 -1.000000 0.000000 13 13 13
-0.444444 -0.972222 0.000000 13 13 13
-0.555556 -1.000000 0.000000 13 13 13
-0.527778 -1.000000 0.000000 13 13 13
-0.527778 -0.972222 0.000000 13 13 13
-0.555556 -0.972222 0.000000 13 13 13
-0.388889 -1.000000 0.000000 13 13 13
-0.361111 -1.000000 0.000000 13 13 13
-0.361111 -0.972222 0.000000 13 13 13
-0.388889 -0.972222 0.000000 13 13 13
-0.416667 -1.000000 0.000000 13 13 13
-0.416667 -0.972222 0.000000 13 13 13
-0.722222 -1.000000 0.000000 13 13 13
-0.694444 -1.000000 0.000000 13 13 13
-0.694444 -0.972222 0.000000 13 13 13
-0.722222 -0.972222 0.000000 13 13 13
-0.666667 -1.000000 0.000000 13 13 13
-0.666667 -0.972222 0.000000 13 13 13
-0.777778 -1.000000 0.000000 13 13 13
-0.750000 -1.000000 0.000000 13 13 13
-0.750000 -0.972222 0.000000 13 13 13
-0.777778 -0.972222 0.000000 13 13 13
-0.611111 -1.000000 0.000000 13 13 13
-0.583333 -1.000000 0.000000 13 13 13
-0.583333 -0.972222 0.000000 13 13 13
-0.611111 -0.972222 0.000000 13 13 13
-0.638889 -1.000000 0.000000 13 13 13
-0.638889 -0.972222 0.000000 13 13 13
-1.000000 -0.861111 0.000000 13 13 13
-0.972222 -0.861111 0.000000 13 13 13
-0.972222 -0.833333 0.000000 13 13 13
-1.000000 -0.833333 0.000000 13 13 13
-1.000000 -0.888889 0.000000 13 13 13
-0.972222 -0.888889 0.000000 13 13 13
-1.000000 -0.805556 0.000000 13 13 13
-0.972222 -0.805556 0.000000 13 13 13
-0.944444 -1.000000 0.000000 13 13 13
-0.916667 -1.000000 0.000000 13 13 13
-0.916667 -0.972222 0.000000 13 13 13
-0.944444 -0.972222 0.000000 13 13 13
-0.888889 -1.000000 0.000000 13 13 13
-0.888889 -0.972222 0.000000 13 13 13
-1.000000 -0.972222 0.000000 13 13 13
-0.972222 -0.972222 0.000000 13 13 13
-0.972222 -0.944444 0.000000 13 13 13
-1.000000 -0.944444 0.000000 13 13 13
-1.000000 -1.000000 0.000000 13 13 13
-0.972222 -1.000000 0.000000 13 13 13
-1.000000 -0.916667 0.000000 13 13 13
-0.972222 -0.916667 0.000000 13 13 13
-0.833333 -1.000000 0.000000 13 13 13
-0.805556 -1.000000 0.000000 13 13 13
-0.805556 -0.972222 0.000000 13 13 13
-0.833333 -0.972222 0.000000 13 13 13
-0.861111 -1.000000 0.000000 13 13 13
-0.861111 -0.972222 0.000000 13 13 13
4 0 1 2 3
4 4 5 6 7
4 8 9 10 11
4 12 13 14 15
4 16 17 18 19
4 20 21 22 23
4 24 25 26 27
4 28 29 30 31
4 32 33 34 35
4 36 37 38 39
4 40 41 42 43
4 44 45 46 47
4 48 49 50 51
4 52 53 54 55
4 56 57 58 59
4 60 61 62 63
4 64 65 66 67
4 68 69 70 71
4 72 73 74 75
4 76 77 78 79
4 80 81 82 83
4 84 85 86 87
4 88 89 90 91
4 92 93 94 95
4 96 97 98 99
4 100 101 102 103
4 104 105 106 107
4 108 109 110 111
4 112 113 114 115
4 116 117 118 119
4 120 121 122 123
4 124 125 126 127
4 128 129 130 131
4 132 133 134 135
4 136 137 138 139
4 140 141 142 143
4 144 145 146 147
4 148 149 150 151
4 152 153 154 155
4 156 157 158 159
4 160 161 162 163
4 164 165 166 167
4 168 169 170 171
4 172 173 174 175
4 176 177 178 179
4 180 181 182 183
4 184 185 186 187
4 188 189 190 191
4 192 193 194 195
4 196 197 198 199
4 200 201 202 203
4 204 205 206 207
4 208 209 210 211
4 212 213 214 215
4 216 217 218 219
4 220 221 222 223
4 224 225 226 227
4 228 229 230 231
4 232 233 234 235
4 236 237 238 239
4 240 241 242 243
4 244 245 246 247
4 248 249 250 251
4 252 253 254 255
4 256 257 258 259
4 260 261 262 263
4 264 265 266 267
4 268 269 270 271
4 272 273 274 275
4 276 277 278 279
4 280 281 282 283
4 139 138 281 280
4 135 134 277 276
4 131 130 273 272
4 127 126 269 268
4 123 122 265 264
4 119 118 261 260
4 115 114 257 256
4 111 110 253 252
4 105 248 251 106
4 101 244 247 102
4 97 240 243 98
4 93 236 239 94
4 89 232 235 90
4 85 228 231 86
4 81 224 227 82
4 77 220 223 78
4 75 74 217 216
4 69 212 215 70
4 61 208 211 62
4 31 30 205 204
4 57 200 203 58
4 53 196 199 54
4 49 192 195 50
4 45 188 191 46
4 41 184 187 42
4 37 180 183 38
4 33 176 179 34
4 284 285 286 287
4 288 289 285 284
4 290 172 175 291
4 287 286 172 290
4 292 293 294 295
4 296 297 293 292
4 298 299 289 288
4 295 294 299 298
4 27 26 169 168
4 300 301 302 303
4 304 305 301 300
4 306 307 297 296
4 303 302 307 306
4 308 309 310 311
4 312 313 309 308
4 314 315 305 304
4 311 310 315 314
4 23 22 165 164
4 316 317 318 319
4 320 321 317 316
4 322 323 313 312
4 319 318 323 322
4 324 325 326 327
4 328 329 325 324
4 330 331 321 320
4 327 326 331 330
4 19 18 161 160
4 332 333 334 335
4 336 337 333 332
4 338 339 329 328
4 335 334 339 338
4 340 341 342 343
4 344 345 341 340
4 346 347 337 336
4 343 342 347 346
4 15 14 157 156
4 348 349 350 351
4 352 353 349 348
4 354 355 345 344
4 351 350 355 354
4 356 357 358 359
4 360 361 357 356
4 362 363 353 352
4 359 358 363 362
4 11 10 153 152
4 364 365 366 367
4 368 369 365 364
4 370 371 361 360
4 367 366 371 370
4 372 373 374 375
4 376 377 373 372
4 378 379 369 368
4 375 374 379 378
4 7 6 149 148
4 380 381 382 383
4 384 385 381 380
4 386 387 377 376
4 383 382 387 386
4 388 389 390 391
4 392 393 389 388
4 394 395 385 384
4 391 390 395 394
4 3 2 145 144
4 396 397 398 399
4 400 401 397 396
4 402 403 393 392
4 399 398 403 402
4 404 405 406 407
4 408 409 405 404
4 410 411 401 400
4 407 406 411 410
4 412 413 414 415
4 413 416 417 414
4 418 419 420 421
4 419 412 415 420
4 422 423 140 424
4 423 425 141 140
4 416 426 427 417
4 426 422 424 427
4 428 429 430 431
4 429 432 433 430
4 434 435 436 437
4 435 428 431 436
4 438 439 440 441
4 439 418 421 440
4 432 442 443 433
4 442 438 441 443
4 444 445 446 447
4 445 448 449 446
4 450 451 452 453
4 451 444 447 452
4 454 455 456 457
4 455 434 437 456
4 448 458 459 449
4 458 454 457 459
4 460 461 462 463
4 461 464 465 462
4 466 467 468 469
4 467 460 463 468
4 470 471 472 473
4 471 450 453 472
4 464 474 475 465
4 474 470 473 475
4 476 477 478 479
4 477 480 481 478
4 482 483 484 485
4 483 476 479 484
4 486 487 488 489
4 487 466 469 488
4 480 490 491 481
4 490 486 489 491
4 492 493 494 495
4 493 496 497 494
4 498 499 500 501
4 499 492 495 500
4 502 503 504 505
4 503 482 485 504
4 496 506 507 497
4 506 502 505 507
4 508 509 510 511
4 509 512 513 510
4 514 515 516 517
4 515 508 511 516
4 518 519 520 521
4 519 498 501 520
4 512 522 523 513
4 522 518 521 523
4 524 525 526 527
4 525 528 529 526
4 530 531 532 533
4 531 524 527 532
4 534 535 536 537
4 535 514 517 536
4 528 538 539 529
4 538 534 537 539
4 540 541 542 543
4 544 545 541 540
4 546 547 409 408
4 543 542 547 546
4 548 549 550 551
4 549 552 553 550
4 554 555 556 557
4 558 559 555 554
4 559 548 551 555
4 560 561 545 544
4 557 556 561 560
4 562 563 564 565
4 563 530 533 564
4 552 566 567 553
4 566 562 565 567
4 143 142 137 136
4 147 146 133 132
4 151 150 129 128
4 155 154 125 124
4 159 158 121 120
4 163 162 117 116
4 167 166 113 112
4 171 170 109 108
4 173 104 107 174
4 177 100 103 178
4 181 96 99 182
4 185 92 95 186
4 189 88 91 190
4 193 84 87 194
4 197 80 83 198
4 201 76 79 202
4 207 206 73 72
4 209 68 71 210
4 213 64 67 214
4 219 218 65 64
4 221 60 63 222
4 225 56 59 226
4 229 52 55 230
4 233 48 51 234
4 237 44 47 238
4 241 40 43 242
4 245 36 39 246
4 249 32 35 250
4 255 254 29 28
4 259 258 25 24
4 263 262 21 20
4 267 266 17 16
4 271 270 13 12
4 275 274 9 8
4 279 278 5 4
4 283 282 1 0
