ply
format ascii 1.0
comment Created by Blender 2.73 (sub 0) - www.blender.org, source file: 'bossShip2.blend'
element vertex 237
property float x
property float y
property float z
property uchar red
property uchar green
property uchar blue
element face 224
property list uchar uint vertex_indices
end_header
-0.000000 0.271665 -0.456669 102 108 115
-0.000000 0.000000 -1.000000 2 2 2
-0.052999 0.266445 -0.456669 101 107 115
0.000001 -0.528693 1.055211 0 0 0
0.103143 -0.518534 1.055211 0 0 0
0.000000 -0.000000 0.757383 255 0 20
0.100752 0.243239 -0.272524 85 87 97
0.051348 0.258147 -0.272403 87 89 99
-0.103143 -0.518534 1.055211 255 255 255
-0.202322 -0.488449 1.055211 119 119 119
0.146312 0.218971 -0.272644 85 87 97
-0.293725 -0.439593 1.055211 255 255 255
0.186272 0.186273 -0.272764 85 87 97
-0.373842 -0.373843 1.055211 36 36 36
0.219095 0.146395 -0.272883 85 87 97
-0.439592 -0.293727 1.055211 255 255 255
0.243514 0.100867 -0.273003 91 93 103
-0.488448 -0.202323 1.055211 1 1 1
0.258586 0.051436 -0.273123 107 109 118
-0.518534 -0.103143 1.055211 255 255 255
0.263727 0.000000 -0.273242 93 94 104
-0.528693 -0.000001 1.055211 28 28 28
0.258732 -0.051465 -0.273361 115 118 127
-0.518534 0.103143 1.055211 255 255 255
0.243789 -0.100980 -0.273480 99 101 111
-0.488449 0.202321 1.055211 17 17 17
0.219466 -0.146642 -0.273599 87 89 99
0.243789 -0.100980 -0.273480 85 87 97
-0.439593 0.293726 1.055211 255 255 255
0.186692 -0.186692 -0.273718 87 89 98
-0.373843 0.373842 1.055211 7 7 7
0.146724 -0.219588 -0.273836 87 89 98
-0.293726 0.439592 1.055211 255 255 255
0.101094 -0.244061 -0.273954 86 88 98
-0.202322 0.488449 1.055211 10 10 10
0.051551 -0.259166 -0.274073 85 87 97
-0.103144 0.518534 1.055211 255 255 255
0.000000 -0.264317 -0.274191 85 87 97
0.000000 0.528693 1.055211 9 9 9
-0.051334 -0.258074 -0.272283 85 87 97
0.103143 0.518534 1.055211 255 255 255
-0.100695 -0.243100 -0.272283 97 99 108
0.202322 0.488449 1.055211 4 4 4
-0.146187 -0.218784 -0.272283 85 87 97
-0.100695 -0.243100 -0.272283 85 87 97
0.293727 0.439592 1.055211 255 255 255
-0.186061 -0.186061 -0.272283 85 87 97
0.373843 0.373842 1.055211 52 52 52
-0.218784 -0.146187 -0.272283 85 87 97
0.439592 0.293726 1.055211 255 255 255
-0.243100 -0.100695 -0.272283 85 87 97
0.488449 0.202322 1.055211 9 9 9
-0.258074 -0.051334 -0.272283 85 87 97
0.518534 0.103143 1.055211 255 255 255
-0.263130 -0.000000 -0.272283 85 87 97
0.528693 -0.000000 1.055211 73 73 73
-0.258074 0.051334 -0.272283 85 87 97
0.518535 -0.103143 1.055211 255 255 255
-0.243100 0.100695 -0.272283 85 87 97
0.488449 -0.202322 1.055211 19 19 19
-0.218785 0.146187 -0.272283 85 87 97
0.439592 -0.293727 1.055211 255 255 255
-0.186061 0.186061 -0.272283 85 87 97
0.373842 -0.373843 1.055211 22 22 22
-0.100695 0.243100 -0.272283 85 87 97
-0.146187 0.218784 -0.272283 85 87 97
0.293726 -0.439592 1.055211 255 255 255
0.202322 -0.488449 1.055211 32 32 32
-0.051334 0.258074 -0.272283 89 89 99
0.103143 -0.518534 1.055211 255 255 255
0.052999 0.266445 -0.456669 105 111 119
-0.103962 0.250986 -0.456669 101 107 115
-0.150929 0.225881 -0.456669 101 107 115
-0.192096 0.192096 -0.456669 101 107 115
-0.225881 0.150929 -0.456669 111 116 123
-0.250986 0.103962 -0.456669 112 117 124
-0.266445 0.052999 -0.456669 117 122 130
-0.271665 0.000000 -0.456669 113 119 127
-0.266445 -0.052999 -0.456669 102 108 116
-0.250986 -0.103962 -0.456669 101 107 115
-0.225881 -0.150929 -0.456669 103 109 117
-0.192096 -0.192096 -0.456669 102 108 116
-0.150929 -0.225881 -0.456670 101 107 115
-0.000000 0.000000 -1.000000 101 107 115
-0.103962 -0.250986 -0.456669 101 107 115
-0.052999 -0.266445 -0.456670 101 107 115
0.000000 -0.271665 -0.456669 116 121 128
0.000000 -0.271665 -0.456669 141 145 151
0.052999 -0.266445 -0.456669 101 107 115
0.103962 -0.250986 -0.456669 101 107 115
0.150929 -0.225881 -0.456669 101 107 115
0.192096 -0.192096 -0.456670 101 107 115
0.192096 -0.192096 -0.456670 102 107 115
0.225881 -0.150929 -0.456670 108 114 122
0.250986 -0.103962 -0.456670 116 122 129
0.266445 -0.052999 -0.456670 107 113 120
0.271665 0.000000 -0.456670 104 110 117
0.266445 0.053000 -0.456670 118 123 129
0.250986 0.103962 -0.456670 107 115 123
0.225881 0.150929 -0.456670 101 111 119
0.192096 0.192097 -0.456670 101 120 128
0.192096 0.192097 -0.456670 101 107 115
0.150929 0.225882 -0.456669 101 107 115
0.103961 0.250986 -0.456669 101 107 115
0.000000 0.263130 -0.272283 112 114 123
-0.055703 0.280036 -0.413621 102 253 255
-0.000000 0.285522 -0.413621 103 253 255
-0.056335 0.283217 -0.363463 102 253 255
-0.000000 0.288766 -0.363463 102 253 255
-0.054801 0.275505 -0.313832 110 254 255
-0.000000 0.280903 -0.313832 110 254 255
-0.109265 0.263788 -0.413621 102 253 255
-0.110506 0.266785 -0.363463 102 253 255
-0.107497 0.259520 -0.313832 110 254 255
-0.158628 0.237403 -0.413621 114 253 255
-0.160430 0.240100 -0.363463 102 253 255
-0.156061 0.233562 -0.313832 103 253 255
-0.201895 0.201895 -0.413621 102 253 255
-0.204188 0.204188 -0.363463 102 253 255
-0.198628 0.198628 -0.313831 102 253 255
-0.237403 0.158628 -0.413621 102 253 255
-0.240100 0.160430 -0.363463 102 253 255
-0.233562 0.156061 -0.313832 102 253 255
-0.263788 0.109265 -0.413621 102 253 255
-0.266785 0.110506 -0.363463 102 253 255
-0.259520 0.107497 -0.313831 102 253 255
-0.280036 0.055703 -0.413621 102 253 255
-0.283217 0.056335 -0.363463 102 253 255
-0.275505 0.054801 -0.313831 98 206 209
-0.285522 0.000000 -0.413621 102 253 255
-0.288766 0.000000 -0.363463 102 253 255
-0.280903 0.000000 -0.313832 102 253 255
-0.275505 0.054801 -0.313831 102 253 255
-0.280036 -0.055703 -0.413621 102 253 255
-0.283217 -0.056335 -0.363463 102 253 255
-0.275505 -0.054801 -0.313831 102 253 255
-0.263788 -0.109264 -0.413621 102 253 255
-0.266785 -0.110506 -0.363463 102 253 255
-0.259520 -0.107497 -0.313831 102 253 255
-0.237403 -0.158628 -0.413621 102 253 255
-0.240100 -0.160430 -0.363463 110 252 255
-0.266785 -0.110506 -0.363463 108 253 255
-0.233562 -0.156061 -0.313832 103 253 255
-0.201895 -0.201895 -0.413621 102 251 253
-0.204188 -0.204188 -0.363463 113 252 255
-0.198628 -0.198628 -0.313831 105 253 255
-0.158628 -0.237403 -0.413621 102 223 226
-0.201895 -0.201895 -0.413621 102 253 255
-0.158628 -0.237403 -0.413621 102 253 255
-0.160430 -0.240100 -0.363463 113 252 255
-0.156061 -0.233562 -0.313832 109 253 255
-0.109265 -0.263788 -0.413621 105 253 255
-0.110506 -0.266785 -0.363463 113 252 255
-0.107497 -0.259520 -0.313832 110 253 255
-0.055703 -0.280036 -0.413621 110 245 248
-0.056335 -0.283217 -0.363463 113 252 255
-0.054801 -0.275505 -0.313832 110 253 255
0.000000 -0.285612 -0.413766 112 251 254
0.000000 -0.289114 -0.364022 113 252 255
0.000000 -0.281636 -0.315009 110 253 255
0.055719 -0.280119 -0.413757 113 252 255
0.056399 -0.283537 -0.363987 113 252 255
0.054936 -0.276180 -0.314936 110 253 255
0.109295 -0.263861 -0.413748 113 252 255
0.110623 -0.267066 -0.363952 113 252 255
0.107743 -0.260114 -0.314863 111 253 255
0.158669 -0.237464 -0.413739 113 252 255
0.160587 -0.240335 -0.363918 113 252 255
0.156393 -0.234058 -0.314790 110 253 255
0.201943 -0.201942 -0.413730 113 252 255
0.204373 -0.204373 -0.363883 113 252 255
0.199018 -0.199018 -0.314717 110 253 255
0.237455 -0.158662 -0.413721 113 252 255
0.240300 -0.160563 -0.363848 113 252 255
0.233983 -0.156342 -0.314644 102 253 255
0.263840 -0.109286 -0.413712 113 252 255
0.266986 -0.110589 -0.363814 113 252 255
0.259945 -0.107673 -0.314571 102 253 255
0.233983 -0.156342 -0.314644 105 253 255
0.280086 -0.055712 -0.413703 113 252 255
0.283410 -0.056373 -0.363779 113 252 255
0.275911 -0.054882 -0.314497 102 253 255
0.285567 0.000000 -0.413694 113 252 255
0.288941 0.000000 -0.363744 113 252 255
0.281271 0.000000 -0.314424 102 253 255
0.280075 0.055711 -0.413685 113 252 255
0.283367 0.056366 -0.363709 113 252 255
0.275822 0.054865 -0.314350 102 253 255
0.250986 0.103962 -0.456670 124 129 136
0.263819 0.109278 -0.413676 113 252 255
0.266906 0.110556 -0.363674 113 252 255
0.259776 0.107603 -0.314276 102 253 255
0.237426 0.158644 -0.413667 113 252 255
0.240191 0.160491 -0.363639 113 252 255
0.233754 0.156190 -0.314202 102 253 255
0.201910 0.201911 -0.413657 113 252 255
0.204250 0.204250 -0.363604 113 252 255
0.198759 0.198759 -0.314128 110 254 255
0.158637 0.237417 -0.413648 113 252 255
0.160466 0.240155 -0.363568 113 252 255
0.156138 0.233677 -0.314054 110 254 255
0.109268 0.263799 -0.413639 106 253 255
0.110522 0.266825 -0.363533 102 253 255
0.107532 0.259606 -0.313980 110 254 255
0.055703 0.280042 -0.413630 102 253 255
0.056339 0.283239 -0.363498 102 253 255
0.054810 0.275551 -0.313906 110 254 255
0.202322 -0.488449 1.055211 0 0 0
0.293726 -0.439592 1.055211 0 0 0
0.373842 -0.373843 1.055211 14 14 14
0.439592 -0.293727 1.055211 0 0 0
0.488449 -0.202322 1.055211 1 1 1
0.518535 -0.103143 1.055211 0 0 0
0.528693 -0.000000 1.055211 0 0 0
0.518534 0.103143 1.055211 0 0 0
0.488449 0.202322 1.055211 0 0 0
0.439592 0.293726 1.055211 0 0 0
0.373843 0.373842 1.055211 0 0 0
0.293727 0.439592 1.055211 0 0 0
0.202322 0.488449 1.055211 0 0 0
0.103143 0.518534 1.055211 0 0 0
0.000000 0.528693 1.055211 0 0 0
-0.103144 0.518534 1.055211 0 0 0
-0.202322 0.488449 1.055211 0 0 0
-0.293726 0.439592 1.055211 0 0 0
-0.373843 0.373842 1.055211 9 9 9
-0.439593 0.293726 1.055211 0 0 0
-0.488449 0.202321 1.055211 0 0 0
-0.518534 0.103143 1.055211 0 0 0
-0.528693 -0.000001 1.055211 0 0 0
-0.518534 -0.103143 1.055211 0 0 0
-0.488448 -0.202323 1.055211 0 0 0
-0.439592 -0.293727 1.055211 0 0 0
-0.373842 -0.373843 1.055211 0 0 0
-0.293725 -0.439593 1.055211 0 0 0
-0.202322 -0.488449 1.055211 0 0 0
-0.103143 -0.518534 1.055211 1 1 1
3 0 1 2
3 3 4 5
4 6 7 8 9
4 10 6 9 11
4 12 10 11 13
4 14 12 13 15
4 16 14 15 17
4 18 16 17 19
4 20 18 19 21
4 22 20 21 23
4 24 22 23 25
4 26 27 25 28
4 29 26 28 30
4 31 29 30 32
4 33 31 32 34
4 35 33 34 36
4 37 35 36 38
4 39 37 38 40
4 41 39 40 42
4 43 44 42 45
4 46 43 45 47
4 48 46 47 49
4 50 48 49 51
4 52 50 51 53
4 54 52 53 55
4 56 54 55 57
4 58 56 57 59
4 60 58 59 61
4 62 60 61 63
4 64 65 66 67
4 65 62 63 66
4 68 64 67 69
3 70 1 0
3 2 1 71
3 71 1 72
3 72 1 73
3 73 1 74
3 74 1 75
3 75 1 76
3 76 1 77
3 77 1 78
3 78 1 79
3 79 1 80
3 80 1 81
3 81 1 82
3 82 83 84
3 84 83 85
3 85 83 86
3 87 83 88
3 88 83 89
3 89 83 90
3 90 83 91
3 92 83 93
3 93 83 94
3 94 83 95
3 95 83 96
3 96 83 97
3 97 1 98
3 98 1 99
3 99 1 100
3 101 1 102
3 102 1 103
3 103 1 70
4 104 68 69 3
4 0 2 105 106
4 106 105 107 108
4 108 107 109 110
4 110 109 68 104
4 2 71 111 105
4 105 111 112 107
4 107 112 113 109
4 109 113 64 68
4 71 72 114 111
4 111 114 115 112
4 112 115 116 113
4 113 116 65 64
4 72 73 117 114
4 114 117 118 115
4 115 118 119 116
4 116 119 62 65
4 73 74 120 117
4 117 120 121 118
4 118 121 122 119
4 119 122 60 62
4 74 75 123 120
4 120 123 124 121
4 121 124 125 122
4 122 125 58 60
4 75 76 126 123
4 123 126 127 124
4 124 127 128 125
4 125 128 56 58
4 76 77 129 126
4 126 129 130 127
4 127 130 131 132
4 132 131 54 56
4 77 78 133 129
4 129 133 134 130
4 130 134 135 131
4 131 135 52 54
4 78 79 136 133
4 133 136 137 134
4 134 137 138 135
4 135 138 50 52
4 79 80 139 136
4 136 139 140 141
4 141 140 142 138
4 138 142 48 50
4 80 81 143 139
4 139 143 144 140
4 140 144 145 142
4 142 145 46 48
4 81 82 146 143
4 147 148 149 144
4 144 149 150 145
4 145 150 43 46
4 82 84 151 148
4 148 151 152 149
4 149 152 153 150
4 150 153 44 43
4 84 85 154 151
4 151 154 155 152
4 152 155 156 153
4 153 156 39 41
4 85 86 157 154
4 154 157 158 155
4 155 158 159 156
4 156 159 37 39
4 87 88 160 157
4 157 160 161 158
4 158 161 162 159
4 159 162 35 37
4 88 89 163 160
4 160 163 164 161
4 161 164 165 162
4 162 165 33 35
4 89 90 166 163
4 163 166 167 164
4 164 167 168 165
4 165 168 31 33
4 90 91 169 166
4 166 169 170 167
4 167 170 171 168
4 168 171 29 31
4 92 93 172 169
4 169 172 173 170
4 170 173 174 171
4 171 174 26 29
4 93 94 175 172
4 172 175 176 173
4 173 176 177 178
4 178 177 27 26
4 94 95 179 175
4 175 179 180 176
4 176 180 181 177
4 177 181 22 24
4 95 96 182 179
4 179 182 183 180
4 180 183 184 181
4 181 184 20 22
4 96 97 185 182
4 182 185 186 183
4 183 186 187 184
4 184 187 18 20
4 97 188 189 185
4 185 189 190 186
4 186 190 191 187
4 187 191 16 18
4 188 99 192 189
4 189 192 193 190
4 190 193 194 191
4 191 194 14 16
4 99 100 195 192
4 192 195 196 193
4 193 196 197 194
4 194 197 12 14
4 101 102 198 195
4 195 198 199 196
4 196 199 200 197
4 197 200 10 12
4 102 103 201 198
4 198 201 202 199
4 199 202 203 200
4 200 203 6 10
4 103 70 204 201
4 201 204 205 202
4 202 205 206 203
4 203 206 7 6
4 70 0 106 204
4 204 106 108 205
4 205 108 110 206
4 206 110 104 7
4 7 104 3 8
3 4 207 5
3 207 208 5
3 208 209 5
3 209 210 5
3 210 211 5
3 211 212 5
3 212 213 5
3 213 214 5
3 214 215 5
3 215 216 5
3 216 217 5
3 217 218 5
3 218 219 5
3 219 220 5
3 220 221 5
3 221 222 5
3 222 223 5
3 223 224 5
3 224 225 5
3 225 226 5
3 226 227 5
3 227 228 5
3 228 229 5
3 229 230 5
3 230 231 5
3 231 232 5
3 232 233 5
3 233 234 5
3 234 235 5
3 235 236 5
3 236 3 5
