ply
format ascii 1.0
comment Created by Blender 2.72 (sub 0) - www.blender.org, source file: ''
element vertex 13
property float x
property float y
property float z
property uchar red
property uchar green
property uchar blue
element face 6
property list uchar uint vertex_indices
end_header
1.000000 -1.000000 -1.000000 240 59 16
1.000000 -1.000000 1.000000 110 255 157
-1.000000 -1.000000 1.000000 255 40 3
-1.000000 -1.000000 -1.000000 254 18 246
1.000000 1.000000 -0.999999 94 255 146
-1.000000 1.000000 -1.000000 33 62 248
-1.000000 1.000000 1.000000 95 255 147
0.999999 1.000000 1.000001 3 30 251
1.000000 1.000000 -0.999999 152 255 185
-1.000000 1.000000 1.000000 112 255 158
-1.000000 -1.000000 1.000000 254 40 3
-1.000000 1.000000 -1.000000 255 39 2
1.000000 1.000000 -0.999999 240 39 237
4 0 1 2 3
4 4 5 6 7
4 0 8 7 1
4 1 7 9 10
4 10 9 11 3
4 12 0 3 11
