ply
format ascii 1.0
comment Created by Blender 2.73 (sub 0) - www.blender.org, source file: 'falcon.blend'
element vertex 307
property float x
property float y
property float z
property uchar red
property uchar green
property uchar blue
element face 450
property list uchar uint vertex_indices
end_header
-1.753113 1.772681 0.003897 99 96 93
-2.092657 1.669682 0.003897 99 96 93
-2.120764 1.651111 0.236072 99 96 93
-1.781221 1.754111 0.236072 99 96 93
-3.209999 -0.002539 0.003897 99 96 93
-3.175220 -0.355652 0.003897 99 96 93
-3.203328 -0.374223 0.236072 102 101 100
-3.238107 -0.021110 0.236072 102 101 100
-0.227832 -1.441249 0.000584 99 96 93
0.236887 -1.178733 0.002556 99 96 93
0.208779 -1.197303 0.234731 102 101 100
-0.271661 -1.459820 0.232759 102 101 100
-2.679863 -1.282402 0.003897 99 96 93
-2.405581 -1.507499 0.003897 99 96 93
-2.433689 -1.526069 0.236072 101 100 99
-2.707971 -1.300972 0.236072 99 96 93
-3.072221 -0.695196 0.003897 99 96 93
-3.100329 -0.713766 0.236072 102 101 100
-1.399999 -1.812539 0.003897 98 95 92
-1.046886 -1.777760 0.003897 99 96 93
-1.074994 -1.796330 0.236072 102 101 100
-1.428107 -1.831109 0.236072 102 101 100
0.236887 -1.178733 0.002556 102 101 100
0.756201 -0.934172 0.011130 94 93 92
1.419512 -0.624407 0.234917 102 101 100
1.431748 0.662551 -0.004265 102 101 100
0.823172 0.939608 -0.013637 102 101 100
0.786514 0.968015 0.210310 102 101 100
1.412191 0.654106 0.233753 102 101 100
0.211694 1.219440 -0.015482 99 96 93
-0.351115 1.529325 -0.010269 99 96 93
-0.359431 1.498199 0.220400 99 96 93
0.186277 1.225166 0.201117 99 96 93
-2.904959 -1.008121 0.003897 99 96 93
-2.933067 -1.026691 0.236072 99 96 93
-3.175220 0.350574 0.003897 99 96 93
-3.203328 0.332004 0.236072 102 101 100
0.211694 1.219440 -0.015482 92 91 90
0.186277 1.225166 0.201117 92 91 90
-2.679863 1.277323 0.003897 99 96 93
-2.904959 1.003042 0.003897 99 96 93
-2.933067 0.984472 0.236072 102 101 100
-2.707971 1.258753 0.236072 102 101 100
-2.933067 -1.026691 0.236072 98 95 92
0.463237 0.230771 0.000000 99 96 93
-0.663944 0.220172 0.235091 99 96 93
0.829318 0.148879 0.303890 102 101 100
0.827206 0.160415 0.000000 99 96 93
1.439943 0.325714 0.000000 99 96 93
1.435948 0.488571 0.000000 99 96 93
1.420796 0.477973 0.235091 99 96 93
1.424791 0.315115 0.235091 99 96 93
1.433482 -0.239344 0.000000 99 96 93
1.287143 -0.239344 0.000000 99 96 93
1.271990 -0.249943 0.235091 99 96 93
1.418329 -0.249943 0.235091 99 96 93
1.440489 0.230771 0.000000 99 96 93
1.425336 0.220172 0.235091 90 88 86
1.262479 0.220172 0.235091 99 96 93
1.277632 0.230771 0.000000 99 96 93
1.124286 -0.239344 0.000000 99 96 93
1.109133 -0.249943 0.235091 99 96 93
0.637114 -0.239344 0.000000 99 96 93
0.506801 -0.239344 0.000000 99 96 93
0.491649 -0.249943 0.235091 102 101 97
0.621962 -0.249943 0.235091 102 101 100
1.124286 0.230771 0.000000 99 96 93
1.109133 0.220172 0.235091 99 96 93
0.946276 0.220172 0.235091 99 96 93
0.961429 0.230771 0.000000 99 96 93
0.478872 -0.248935 0.000000 84 82 81
0.830146 -0.170343 0.000000 99 96 93
0.837496 -0.172287 0.303890 102 101 100
-0.681198 -0.249943 0.235091 92 91 90
0.598700 0.230771 0.000000 99 96 93
0.583547 0.220172 0.235091 102 101 100
-0.663944 0.220172 0.235091 102 101 100
0.837496 -0.172287 0.303890 99 96 93
-0.681198 -0.249943 0.235091 99 96 93
1.435963 0.660730 0.000000 99 96 93
1.420810 0.650131 0.235091 99 96 93
0.478872 -0.248935 0.000000 99 96 93
0.828369 -0.008380 0.000000 99 96 93
1.425336 0.220172 0.235091 99 96 93
1.431237 -0.325714 0.000000 99 96 93
1.416085 -0.336313 0.235091 99 96 93
0.621962 -0.249943 0.235091 99 96 93
0.506801 -0.239344 0.000000 102 101 100
0.478872 -0.248935 0.000000 102 101 100
-0.681198 -0.249943 0.235091 133 132 132
0.491649 -0.249943 0.235091 102 101 100
1.440902 -0.616472 0.002164 99 96 93
1.419512 -0.624407 0.234917 99 96 93
1.431751 -0.451767 0.000000 99 96 93
1.433996 -0.614624 0.000000 99 96 93
1.412191 0.654106 0.233753 99 96 93
0.786514 0.968015 0.210310 99 96 93
0.208779 -1.197303 0.234731 99 96 93
1.420796 0.477973 0.235091 99 97 94
1.424791 0.315115 0.235091 102 101 100
1.425336 0.220172 0.235091 102 101 100
1.262479 0.220172 0.235091 102 101 100
0.491649 -0.249943 0.235091 99 96 93
0.946276 0.220172 0.235091 102 101 100
1.109133 0.220172 0.235091 102 101 100
0.583547 0.220172 0.235091 101 98 96
1.431748 0.662551 -0.004265 99 96 93
-0.687360 1.684074 -0.011061 99 96 93
-1.046889 1.772682 0.003897 102 98 95
-1.074997 1.754111 0.236072 99 96 93
-1.753113 -1.777760 0.003897 99 96 93
-1.399999 -1.812539 0.003897 99 96 93
-1.428107 -1.831109 0.236072 99 96 93
-1.781221 -1.796330 0.236072 99 96 93
-0.707342 -1.674760 0.003897 99 96 93
-0.751171 -1.693331 0.236072 92 91 90
-3.072221 0.690117 0.003897 99 96 93
-3.100329 0.671547 0.236072 102 101 100
-2.405582 1.502420 0.003897 99 96 93
-2.433690 1.483850 0.236072 99 97 94
-2.120764 1.651111 0.236072 104 101 93
-1.400000 1.807460 0.003897 102 98 95
-1.428108 1.788890 0.236072 99 96 93
-2.092656 -1.674761 0.003897 99 96 93
-2.120764 -1.693331 0.236072 102 101 100
-1.074994 -1.796330 0.236072 92 91 90
-0.687630 1.684255 -0.010736 99 96 93
-0.715737 1.665685 0.221438 99 96 93
-0.715468 1.665504 0.221114 99 96 93
-1.074997 1.754111 0.236072 102 101 98
-0.359431 1.498199 0.220400 104 102 94
-0.715737 1.665685 0.221438 104 101 91
0.208779 -1.197303 0.234731 124 123 123
0.186277 1.225166 0.201117 104 103 102
-0.751171 -1.693331 0.236072 161 161 161
-0.271661 -1.459820 0.232759 168 168 168
-1.074994 -1.796330 0.236072 99 96 93
-2.120764 -1.693331 0.236072 99 96 93
-2.433689 -1.526069 0.236072 99 96 93
-3.100329 -0.713766 0.236072 98 95 92
-3.238107 -0.021110 0.236072 99 96 93
-3.203328 -0.374223 0.236072 99 96 93
-3.100329 0.671547 0.236072 95 93 90
-3.203328 0.332004 0.236072 99 96 93
-2.707971 1.258753 0.236072 99 96 93
-2.933067 0.984472 0.236072 99 96 93
-2.433690 1.483850 0.236072 99 96 93
-0.271661 -1.459820 0.232759 99 96 93
-0.751171 -1.693331 0.236072 99 96 93
0.946276 0.220172 0.235091 100 97 94
1.262479 0.220172 0.235091 99 96 94
0.756201 -0.934172 0.011130 99 96 93
0.823172 0.939608 -0.013637 99 96 93
-1.759923 1.757966 0.147315 99 96 93
-1.788031 1.739395 0.379490 99 96 93
-2.127575 1.636396 0.379490 99 96 93
-2.099467 1.654967 0.147315 99 96 93
-3.216809 -0.017254 0.147315 99 96 93
-3.244917 -0.035825 0.379490 102 101 100
-3.210139 -0.388938 0.379490 102 101 100
-3.182031 -0.370368 0.147315 99 96 93
-0.234642 -1.455965 0.144002 99 96 93
-0.278471 -1.474535 0.376177 102 101 100
0.201969 -1.212018 0.378149 102 101 100
0.230077 -1.193448 0.145974 99 96 93
-2.686673 -1.297117 0.147315 99 96 93
-2.714781 -1.315688 0.379490 99 96 93
-2.440500 -1.540784 0.379490 101 100 99
-2.412392 -1.522214 0.147315 99 96 93
-3.107139 -0.728481 0.379490 102 101 100
-3.079031 -0.709911 0.147315 99 96 93
-1.406809 -1.827254 0.147315 98 95 92
-1.434917 -1.845824 0.379490 102 101 100
-1.081804 -1.811045 0.379490 102 101 100
-1.053696 -1.792475 0.147315 99 96 93
0.230077 -1.193448 0.145974 102 101 100
1.412702 -0.639123 0.378335 102 101 100
0.749391 -0.948887 0.154548 94 93 92
1.424938 0.647835 0.139153 102 101 100
1.405381 0.639391 0.377171 102 101 100
0.779704 0.953300 0.353728 102 101 100
0.816362 0.924893 0.129781 102 101 100
0.204883 1.204725 0.127936 99 96 93
0.179467 1.210451 0.344535 99 96 93
-0.366241 1.483484 0.363818 99 96 93
-0.357925 1.514609 0.133149 99 96 93
-2.939878 -1.041407 0.379490 99 96 93
-2.911770 -1.022836 0.147315 99 96 93
-3.182031 0.335859 0.147315 99 96 93
-3.210139 0.317288 0.379490 102 101 100
0.179467 1.210451 0.344535 92 91 90
0.204883 1.204725 0.127936 92 91 90
-2.686673 1.262608 0.147315 99 96 93
-2.714781 1.244038 0.379490 102 101 100
-2.939878 0.969757 0.379490 102 101 100
-2.911770 0.988327 0.147315 99 96 93
-2.939878 -1.041407 0.379490 98 95 92
0.456427 0.216056 0.143418 99 96 93
0.820396 0.145699 0.143418 99 96 93
0.822508 0.134164 0.447308 102 101 100
-0.670754 0.205457 0.378509 99 96 93
1.433133 0.310999 0.143418 99 96 93
1.417981 0.300400 0.378509 99 96 93
1.413986 0.463257 0.378509 99 96 93
1.429138 0.473856 0.143418 99 96 93
1.426672 -0.254059 0.143418 99 96 93
1.411519 -0.264658 0.378509 99 96 93
1.265180 -0.264658 0.378509 99 96 93
1.280333 -0.254059 0.143418 99 96 93
1.433679 0.216056 0.143418 99 96 93
1.270822 0.216056 0.143418 99 96 93
1.255669 0.205457 0.378509 99 96 93
1.418526 0.205457 0.378509 90 88 86
1.102323 -0.264658 0.378509 99 96 93
1.117476 -0.254059 0.143418 99 96 93
0.630304 -0.254059 0.143418 99 96 93
0.615152 -0.264658 0.378509 102 101 100
0.484838 -0.264658 0.378509 102 101 97
0.499991 -0.254059 0.143418 99 96 93
1.117476 0.216056 0.143418 99 96 93
0.954618 0.216056 0.143418 99 96 93
0.939466 0.205457 0.378509 99 96 93
1.102323 0.205457 0.378509 99 96 93
0.472062 -0.263651 0.143418 84 82 81
-0.688009 -0.264658 0.378509 92 91 90
0.830686 -0.187002 0.447308 102 101 100
0.823335 -0.185058 0.143418 99 96 93
0.591890 0.216056 0.143418 99 96 93
-0.670754 0.205457 0.378509 102 101 100
0.576737 0.205457 0.378509 102 101 100
0.830686 -0.187002 0.447308 99 96 93
-0.688009 -0.264658 0.378509 99 96 93
1.414000 0.635416 0.378509 99 96 93
1.429153 0.646015 0.143418 99 96 93
0.472062 -0.263651 0.143418 99 96 93
0.821558 -0.023095 0.143418 99 96 93
1.418526 0.205457 0.378509 99 96 93
1.424427 -0.340430 0.143418 99 96 93
1.409275 -0.351028 0.378509 99 96 93
0.615152 -0.264658 0.378509 99 96 93
0.499991 -0.254059 0.143418 102 101 100
0.484838 -0.264658 0.378509 102 101 100
-0.688009 -0.264658 0.378509 133 132 132
0.472062 -0.263651 0.143418 102 101 100
1.412702 -0.639123 0.378335 99 96 93
1.434092 -0.631188 0.145582 99 96 93
1.424941 -0.466483 0.143418 99 96 93
1.427186 -0.629340 0.143418 99 96 93
0.201969 -1.212018 0.378149 99 96 93
0.779704 0.953300 0.353728 99 96 93
1.405381 0.639391 0.377171 99 96 93
1.413986 0.463257 0.378509 99 97 94
1.417981 0.300400 0.378509 102 101 100
1.418526 0.205457 0.378509 102 101 100
0.484838 -0.264658 0.378509 99 96 93
1.255669 0.205457 0.378509 102 101 100
0.939466 0.205457 0.378509 102 101 100
0.576737 0.205457 0.378509 101 98 96
1.102323 0.205457 0.378509 102 101 100
1.424938 0.647835 0.139153 99 96 93
-0.694171 1.669359 0.132357 99 96 93
-1.081807 1.739396 0.379490 99 96 93
-1.053699 1.757967 0.147315 99 96 93
-1.759923 -1.792475 0.147315 99 96 93
-1.788031 -1.811046 0.379490 99 96 93
-1.434917 -1.845824 0.379490 99 96 93
-1.406809 -1.827254 0.147315 99 96 93
-0.714153 -1.689475 0.147315 99 96 93
-0.757982 -1.708046 0.379490 92 91 90
-3.107139 0.656832 0.379490 102 101 100
-3.079031 0.675402 0.147315 99 96 93
-2.127575 1.636396 0.379490 104 101 93
-2.440500 1.469134 0.379490 99 97 94
-2.412392 1.487705 0.147315 99 96 93
-1.434918 1.774174 0.379490 99 96 93
-1.406810 1.792745 0.147315 99 96 93
-2.127574 -1.708046 0.379490 102 101 100
-2.099467 -1.689476 0.147315 99 96 93
-1.081804 -1.811045 0.379490 92 91 90
-0.722548 1.650970 0.364857 99 96 93
-0.694440 1.669540 0.132682 99 96 93
-0.722278 1.650788 0.364532 99 96 93
-2.440500 1.469134 0.379490 99 96 93
-2.939878 0.969757 0.379490 99 96 93
-2.714781 1.244038 0.379490 99 96 93
-3.210139 0.317288 0.379490 99 96 93
-3.107139 0.656832 0.379490 95 93 90
-3.210139 -0.388938 0.379490 99 96 93
-3.244917 -0.035825 0.379490 99 96 93
-3.107139 -0.728481 0.379490 98 95 92
-2.440500 -1.540784 0.379490 99 96 93
-2.127574 -1.708046 0.379490 99 96 93
-1.081804 -1.811045 0.379490 99 96 93
-0.278471 -1.474535 0.376177 168 168 168
-0.757982 -1.708046 0.379490 161 161 161
0.179467 1.210451 0.344535 104 103 102
0.201969 -1.212018 0.378149 124 123 123
-0.722548 1.650970 0.364857 104 101 91
-0.366241 1.483484 0.363818 104 102 94
-1.081807 1.739396 0.379490 102 101 98
-0.278471 -1.474535 0.376177 99 96 93
-0.757982 -1.708046 0.379490 99 96 93
0.939466 0.205457 0.378509 100 97 94
1.255669 0.205457 0.378509 99 96 94
-1.406810 1.792745 0.147315 75 75 74
0.816362 0.924893 0.129781 99 96 93
0.749391 -0.948887 0.154548 99 96 93
4 0 1 2 3
4 4 5 6 7
4 8 9 10 11
4 12 13 14 15
4 5 16 17 6
4 18 19 20 21
4 22 23 24 10
4 25 26 27 28
4 29 30 31 32
4 16 33 34 17
4 35 4 7 36
4 26 37 38 27
4 39 40 41 42
4 33 12 15 43
4 44 45 46 47
4 48 49 50 51
4 52 53 54 55
4 56 57 58 59
4 53 60 61 54
4 62 63 64 65
4 66 67 68 69
4 70 71 72 73
4 74 75 76 44
4 77 46 45 78
4 49 79 80 50
3 81 82 71
3 44 47 82
3 81 44 82
4 56 48 51 83
4 84 52 55 85
4 59 58 67 66
4 60 62 86 61
4 87 88 89 90
4 69 68 75 74
3 23 91 92
4 93 84 85 92
3 94 93 92
3 71 46 77
3 82 47 46
3 71 82 46
3 95 96 32
3 92 85 97
3 98 80 95
3 85 55 97
3 98 95 32
3 55 54 97
3 99 98 32
3 54 61 97
3 100 99 32
3 61 86 97
3 101 100 32
3 86 32 97
3 86 102 78
3 103 104 101
3 86 78 32
3 103 101 32
3 105 103 32
3 45 105 32
3 78 45 32
4 95 80 79 106
3 107 108 109
4 110 111 112 113
4 114 8 11 115
4 40 116 117 41
4 1 118 119 120
4 108 121 122 109
4 116 35 36 117
4 13 123 124 14
4 118 39 42 119
4 121 0 3 122
4 19 114 115 125
4 123 110 113 124
4 30 126 127 31
3 128 107 109
3 3 129 122
3 130 131 129
3 132 133 130
3 134 135 132
3 112 136 134
3 137 113 112
3 15 138 137
3 139 34 15
3 140 141 139
3 142 143 140
3 144 145 142
3 2 146 144
3 3 2 129
3 132 130 129
3 112 134 132
3 15 137 112
3 140 139 15
3 144 142 140
3 2 144 129
3 112 132 129
3 140 15 112
3 144 140 129
3 140 112 129
3 2 45 146
3 45 3 122
3 45 109 127
4 78 140 143 45
3 45 127 31
3 45 2 3
3 45 144 146
3 45 142 145
4 97 147 78 102
3 78 139 141
3 78 15 34
3 78 137 138
3 78 112 113
3 78 148 136
4 97 86 61 92
3 54 85 92
3 85 54 55
4 149 105 96 95
3 97 102 86
3 95 67 149
3 92 61 54
3 51 83 150
3 50 51 150
3 50 150 67
3 148 78 147
3 95 50 67
3 78 136 112
3 78 138 15
3 78 141 140
3 45 145 144
3 45 122 109
3 50 95 80
3 45 143 142
3 78 113 137
3 139 78 34
3 32 96 105
4 32 105 45 31
3 110 19 111
3 8 114 19
3 94 91 151
3 9 8 19
3 94 151 9
3 53 52 84
3 93 94 9
3 53 84 93
3 62 60 53
3 81 63 62
3 69 74 44
3 81 62 53
3 66 69 44
3 81 53 93
3 56 59 66
3 78 81 93
3 48 56 66
3 78 93 9
3 48 66 44
3 78 9 19
3 48 44 45
3 45 78 19
3 110 123 19
3 123 13 12
3 12 33 16
3 16 5 4
3 4 35 116
3 116 40 39
3 39 118 1
3 1 0 121
3 121 108 107
3 107 30 29
3 106 79 49
3 121 107 29
3 152 106 49
3 121 29 152
3 39 1 121
3 4 116 39
3 12 16 4
3 123 12 19
3 49 48 45
3 12 45 19
3 12 4 39
3 39 121 152
3 152 49 45
3 12 39 45
3 39 152 45
3 78 71 81
3 44 47 82
3 78 82 71
3 78 45 44
3 78 44 82
3 151 92 91
3 9 10 92
3 151 9 92
3 29 106 152
3 96 95 106
3 29 32 96
3 29 96 106
3 116 39 40
3 1 118 39
3 121 0 1
3 126 108 121
3 32 30 107
3 107 126 121
3 121 1 39
3 116 35 39
3 35 4 5
3 5 16 33
3 33 12 13
3 13 123 110
3 110 111 19
3 19 114 8
3 8 97 9
3 9 29 32
3 32 107 121
3 35 121 39
3 35 5 33
3 33 13 110
3 110 19 8
3 8 9 32
3 35 32 121
3 35 33 110
3 110 8 32
3 35 110 32
4 153 154 155 156
4 157 158 159 160
4 161 162 163 164
4 165 166 167 168
4 160 159 169 170
4 171 172 173 174
4 175 163 176 177
4 178 179 180 181
4 182 183 184 185
4 170 169 186 187
4 188 189 158 157
4 181 180 190 191
4 192 193 194 195
4 187 196 166 165
4 197 198 199 200
4 201 202 203 204
4 205 206 207 208
4 209 210 211 212
4 208 207 213 214
4 215 216 217 218
4 219 220 221 222
4 223 224 225 226
4 227 197 228 229
4 230 231 200 199
4 204 203 232 233
3 234 198 197
3 234 226 235
3 234 235 198
4 209 236 202 201
4 237 238 206 205
4 210 219 222 211
4 214 213 239 215
4 240 241 242 243
4 220 227 229 221
3 177 244 245
4 246 244 238 237
3 247 244 246
3 226 198 235
3 230 199 198
3 226 230 198
3 207 206 238
3 244 248 238
3 248 183 249
3 250 232 251
3 248 207 238
3 249 250 251
3 248 213 207
3 249 251 252
3 248 239 213
3 249 252 253
3 248 254 239
3 249 253 255
3 248 249 254
3 256 257 200
3 249 231 254
3 258 256 200
3 249 255 258
3 249 258 200
3 249 200 231
4 250 259 233 232
3 260 261 262
4 263 264 265 266
4 267 268 162 161
4 195 194 269 270
4 156 271 272 273
4 262 261 274 275
4 270 269 189 188
4 168 167 276 277
4 273 272 193 192
4 275 274 154 153
4 174 278 268 267
4 277 276 264 263
4 185 184 279 280
3 281 261 260
3 154 282 155
3 283 284 282
3 285 286 283
3 287 288 285
3 186 289 287
3 290 166 186
3 264 291 290
3 292 265 264
3 293 294 292
3 295 296 293
3 297 298 295
3 274 299 297
3 154 274 282
3 285 283 282
3 186 287 285
3 264 290 186
3 293 292 264
3 297 295 293
3 274 297 282
3 186 285 282
3 293 264 186
3 297 293 282
3 293 186 282
3 155 282 200
3 200 274 154
3 200 279 261
4 231 200 285 288
3 200 184 279
3 200 154 155
3 200 282 284
3 200 283 286
4 248 254 231 300
3 231 287 289
3 231 186 166
3 231 290 291
3 231 264 265
3 231 292 301
4 248 244 213 239
3 207 244 238
3 238 206 207
4 302 250 249 257
3 248 239 254
3 250 302 222
3 244 207 213
3 202 303 236
3 203 303 202
3 203 222 303
3 301 300 231
3 250 222 203
3 231 265 292
3 231 166 290
3 231 288 287
3 200 284 283
3 200 261 274
3 203 232 250
3 200 286 285
3 231 291 264
3 289 186 231
3 183 257 249
4 183 184 200 257
3 263 168 277
3 187 165 168
3 160 170 187
3 188 157 160
3 195 270 188
3 273 192 195
3 153 156 273
3 262 304 153
3 185 260 262
3 204 233 259
3 182 185 262
3 204 259 305
3 305 182 262
3 262 153 273
3 273 195 188
3 188 160 187
3 263 187 168
3 263 266 174
3 174 267 161
3 306 245 247
3 174 161 164
3 164 306 247
3 237 205 208
3 164 247 246
3 246 237 208
3 214 215 218
3 246 208 214
3 174 164 246
3 263 174 187
3 273 188 187
3 305 262 273
3 201 204 305
3 210 209 201
3 220 219 210
3 197 227 220
3 214 218 234
3 197 220 210
3 246 214 234
3 197 210 201
3 246 234 231
3 200 197 201
3 174 246 231
3 200 201 305
3 174 231 200
3 174 273 187
3 200 305 273
3 174 200 273
3 231 197 200
3 235 198 197
3 234 226 235
3 231 234 197
3 234 235 197
3 306 163 164
3 245 244 163
3 306 245 163
3 182 249 183
3 259 250 249
3 182 305 259
3 182 259 249
3 270 157 188
3 170 160 157
3 165 187 170
3 277 168 165
3 266 263 277
3 267 174 266
3 248 161 267
3 182 164 248
3 260 185 183
3 183 182 248
3 248 267 266
3 266 277 165
3 165 170 157
3 270 195 157
3 195 192 273
3 273 156 153
3 153 275 262
3 262 280 260
3 260 183 248
3 248 266 165
3 195 165 157
3 195 273 153
3 153 262 260
3 260 248 165
3 195 153 165
3 153 260 165
4 97 8 161 248
4 29 9 164 182
4 30 32 183 185
4 126 107 260 280
4 108 126 280 262
4 91 94 247 245
4 127 126 280 279
4 107 128 281 260
4 126 30 185 280
4 44 81 234 197
4 94 92 244 247
4 128 109 261 281
