ply
format ascii 1.0
comment Created by Blender 2.73 (sub 0) - www.blender.org, source file: ''
element vertex 17
property float x
property float y
property float z
property uchar red
property uchar green
property uchar blue
element face 6
property list uchar uint vertex_indices
end_header
-1.140658 -0.229768 -0.059563 255 13 2
-1.325736 -0.150766 -0.147838 255 111 1
1.181592 -0.218242 -0.249346 255 208 18
1.163073 -0.254728 0.062039 255 126 12
-1.266608 -0.016262 0.180624 255 233 1
1.066996 -0.079682 0.030818 255 14 0
1.438423 0.027821 0.027852 255 148 7
-1.626725 0.229812 0.055142 255 17 4
-1.266608 -0.016262 0.180624 255 248 0
-1.626725 0.229812 0.055142 255 17 10
-1.325736 -0.150766 -0.147838 255 122 1
-1.626725 0.229812 0.055142 255 208 18
1.438423 0.027821 0.027852 255 126 12
1.181592 -0.218242 -0.249346 255 0 2
1.438423 0.027821 0.027852 255 139 14
1.163073 -0.254728 0.062039 255 126 12
-1.140658 -0.229768 -0.059563 255 14 2
4 0 1 2 3
4 4 5 6 7
4 0 8 9 1
4 10 11 12 13
4 2 14 5 15
4 8 16 15 5
