ply
format ascii 1.0
comment Created by Blender 2.73 (sub 0) - www.blender.org, source file: ''
element vertex 12
property float x
property float y
property float z
property uchar red
property uchar green
property uchar blue
element face 6
property list uchar uint vertex_indices
end_header
-1.140658 -0.229768 -0.059563 111 255 238
-1.325736 -0.150766 -0.147838 111 255 238
1.181592 -0.218242 -0.249346 111 255 238
1.163073 -0.254728 0.062039 111 255 238
-1.266608 -0.016262 0.180624 111 255 238
1.066996 -0.079682 0.030818 111 255 238
1.438423 0.027821 0.027852 111 255 238
-1.626725 0.229812 0.055142 111 255 238
-1.325736 -0.150766 -0.147838 118 255 227
1.181592 -0.218242 -0.249346 111 255 238
1.438423 0.027821 0.027852 111 255 238
1.163073 -0.254728 0.062039 111 255 238
4 0 1 2 3
4 4 5 6 7
4 0 4 7 1
4 8 7 6 9
4 2 10 5 11
4 4 0 11 5
