ply
format ascii 1.0
comment Created by Blender 2.73 (sub 0) - www.blender.org, source file: 'untitled.blend'
element vertex 767
property float x
property float y
property float z
property uchar red
property uchar green
property uchar blue
element face 500
property list uchar uint vertex_indices
end_header
0.504958 -0.874086 1.302010 88 22 34
0.473708 -0.881899 1.223885 70 18 29
0.536208 -0.803774 1.153572 81 238 255
0.598708 -0.788149 1.302010 160 247 237
-0.463792 -0.803774 1.153572 217 254 224
-0.401292 -0.881899 1.223885 72 21 31
-0.432542 -0.874086 1.302010 70 17 28
-0.526292 -0.788149 1.302010 223 254 222
0.583083 -0.694399 1.114510 81 238 255
0.661208 -0.678774 1.302010 81 238 255
-0.510667 -0.694399 1.114510 85 238 255
-0.463792 -0.803774 1.153572 215 254 225
-0.588792 -0.678774 1.302010 221 255 224
0.536208 -0.803774 1.153572 255 255 255
0.387770 -0.835024 1.091072 255 255 255
0.387770 -0.733461 1.036385 255 255 255
0.583083 -0.694399 1.114510 255 255 255
-0.315355 -0.733461 1.036385 255 255 255
-0.315355 -0.835024 1.091072 237 255 236
-0.463792 -0.803774 1.153572 246 255 246
-0.510667 -0.694399 1.114510 255 255 255
0.387770 -0.897524 1.192635 64 17 28
0.387770 -0.835024 1.091072 81 238 255
-0.315355 -0.835024 1.091072 163 247 236
-0.315355 -0.897524 1.192635 73 17 29
0.309645 -0.913149 1.223885 61 16 26
0.239333 -0.858461 1.153572 81 238 255
-0.166917 -0.858461 1.153572 224 255 223
-0.237230 -0.913149 1.223885 71 16 28
0.192458 -0.764711 1.114510 81 238 255
0.387770 -0.733461 1.036385 81 238 255
-0.120042 -0.764711 1.114510 169 249 235
-0.315355 -0.733461 1.036385 81 238 255
0.239333 -0.858461 1.153572 255 255 255
0.176833 -0.858461 1.302010 255 255 255
0.114333 -0.772524 1.302010 255 255 255
0.192458 -0.764711 1.114510 255 255 255
-0.041917 -0.772524 1.302010 255 255 255
-0.104417 -0.858461 1.302010 255 255 255
-0.166917 -0.858461 1.153572 255 255 255
-0.120042 -0.764711 1.114510 255 255 255
0.278395 -0.913149 1.302010 61 16 26
0.176833 -0.858461 1.302010 81 238 255
-0.104417 -0.858461 1.302010 224 255 223
-0.205980 -0.913149 1.302010 70 16 28
0.309645 -0.913149 1.387947 71 28 36
0.239333 -0.858461 1.450447 81 238 255
-0.166917 -0.858461 1.450447 166 248 237
-0.237230 -0.913149 1.387947 66 20 30
0.239333 -0.858461 1.450447 255 255 255
0.192458 -0.764711 1.497322 255 255 255
-0.120042 -0.764711 1.497322 255 255 255
-0.166917 -0.858461 1.450447 255 255 255
0.387770 -0.835024 1.512947 255 255 255
0.387770 -0.733461 1.575447 255 255 255
-0.315355 -0.733461 1.575447 255 255 255
-0.315355 -0.835024 1.512947 255 255 255
0.387770 -0.897524 1.419197 84 34 42
0.387770 -0.835024 1.512947 147 245 240
-0.315355 -0.835024 1.512947 161 247 237
-0.315355 -0.897524 1.419197 66 20 30
0.473708 -0.881899 1.387947 94 36 45
0.536208 -0.803774 1.450447 197 252 229
-0.463792 -0.803774 1.450447 223 254 222
-0.401292 -0.881899 1.387947 66 18 29
0.536208 -0.803774 1.450447 255 255 255
0.583083 -0.694399 1.497322 255 255 255
-0.510667 -0.694399 1.497322 255 255 255
-0.463792 -0.803774 1.450447 255 255 255
0.583083 -0.694399 1.497322 81 238 255
-0.510667 -0.694399 1.497322 81 238 255
0.504958 -0.874086 1.302010 255 255 255
0.473708 -0.881899 1.387947 255 255 255
0.481520 -0.897524 1.395760 255 255 255
0.512770 -0.889711 1.302010 255 255 255
-0.409105 -0.897524 1.395760 255 255 255
-0.401292 -0.881899 1.387947 255 255 255
-0.432542 -0.874086 1.302010 255 255 255
-0.440355 -0.889711 1.302010 255 255 255
0.387770 -0.897524 1.419197 255 255 255
0.387770 -0.920961 1.434822 255 255 255
-0.315355 -0.920961 1.434822 255 255 255
-0.315355 -0.897524 1.419197 255 255 255
0.309645 -0.913149 1.387947 255 255 255
0.301833 -0.936586 1.395760 255 255 255
-0.229417 -0.936586 1.395760 255 255 255
-0.237230 -0.913149 1.387947 255 255 255
0.278395 -0.913149 1.302010 255 255 255
0.262770 -0.936586 1.302010 255 255 255
-0.190355 -0.936586 1.302010 255 255 255
-0.205980 -0.913149 1.302010 255 255 255
0.309645 -0.913149 1.223885 255 255 255
0.301833 -0.936586 1.216072 255 255 255
-0.229417 -0.936586 1.216072 255 255 255
-0.237230 -0.913149 1.223885 255 255 255
0.387770 -0.897524 1.192635 255 255 255
0.387770 -0.920961 1.177010 255 255 255
-0.315355 -0.920961 1.177010 255 255 255
-0.315355 -0.897524 1.192635 255 255 255
0.473708 -0.881899 1.223885 255 255 255
0.481520 -0.897524 1.216072 255 255 255
-0.409105 -0.897524 1.216072 255 255 255
-0.401292 -0.881899 1.223885 255 255 255
0.387770 -0.944399 1.302010 198 22 47
0.481520 -0.897524 1.216072 71 28 35
0.512770 -0.889711 1.302010 88 37 44
-0.440355 -0.889711 1.302010 67 20 31
-0.409105 -0.897524 1.216072 85 47 52
-0.315355 -0.944399 1.302010 198 22 47
0.387770 -0.920961 1.177010 66 25 33
-0.315355 -0.920961 1.177010 67 23 31
0.301833 -0.936586 1.216072 60 17 27
-0.229417 -0.936586 1.216072 65 17 28
0.262770 -0.936586 1.302010 60 18 28
-0.190355 -0.936586 1.302010 63 19 29
0.301833 -0.936586 1.395760 94 66 68
-0.229417 -0.936586 1.395760 81 48 52
0.387770 -0.920961 1.434822 129 115 108
-0.315355 -0.920961 1.434822 105 83 81
0.481520 -0.897524 1.395760 121 93 90
-0.409105 -0.897524 1.395760 73 37 44
0.215895 -0.670961 0.091072 87 239 255
0.200270 -0.749086 0.130135 83 238 255
0.036208 -0.756899 0.114510 173 156 185
0.036208 -0.694399 0.075447 99 240 255
0.036208 -0.756899 0.114510 238 165 169
-0.127855 -0.749086 0.130135 192 212 210
-0.143480 -0.670961 0.091072 89 239 253
0.036208 -0.694399 0.075447 186 251 234
0.364333 -0.639711 0.114510 148 245 255
0.270583 -0.749086 0.145760 82 238 255
-0.198167 -0.749086 0.145760 149 245 239
-0.291917 -0.639711 0.114510 83 238 255
0.403395 -0.647524 0.169197 156 245 255
0.301833 -0.780336 0.239510 81 238 255
-0.229417 -0.780336 0.239510 251 95 127
-0.330980 -0.647524 0.169197 81 238 255
0.387770 -0.686586 0.364510 81 238 255
0.286208 -0.803774 0.356697 81 238 255
-0.213792 -0.803774 0.356697 255 71 113
-0.315355 -0.686586 0.364510 159 223 224
0.348708 -0.686586 0.622322 81 238 255
0.247145 -0.827211 0.614510 81 238 255
-0.174730 -0.827211 0.614510 81 238 255
-0.276292 -0.686586 0.622322 81 238 255
0.239333 -0.678774 0.872322 87 231 249
0.473708 -0.647524 0.919197 133 243 255
0.434645 -0.788149 1.012947 88 239 255
0.161208 -0.928774 0.958260 83 235 253
-0.362230 -0.788149 1.012947 81 238 255
-0.401292 -0.647524 0.919197 81 238 255
-0.166917 -0.678774 0.872322 81 238 255
-0.088792 -0.928774 0.958260 124 243 246
0.669020 -0.655336 1.020760 83 239 255
0.653395 -0.741274 1.114510 81 238 255
-0.580980 -0.741274 1.114510 81 238 255
-0.596605 -0.655336 1.020760 81 238 255
0.864333 -0.561586 1.208260 81 238 255
0.762770 -0.717836 1.262947 81 238 255
-0.690355 -0.717836 1.262947 81 238 255
-0.791917 -0.561586 1.208260 81 238 255
0.895583 -0.710024 1.489510 81 238 255
0.778395 -0.772524 1.434822 81 238 255
-0.705980 -0.772524 1.434822 81 238 255
-0.823167 -0.710024 1.489510 81 238 255
0.747145 -0.741274 1.544197 81 238 255
0.723708 -0.842836 1.473885 81 238 255
-0.651292 -0.842836 1.473885 81 238 255
-0.674730 -0.741274 1.544197 81 238 255
0.528395 -0.803774 1.661385 81 238 255
0.473708 -0.913149 1.606697 81 238 255
-0.401292 -0.913149 1.606697 81 238 255
-0.455980 -0.803774 1.661385 81 238 255
0.356520 -0.850649 1.817635 81 238 255
0.348708 -0.952211 1.700447 81 238 255
-0.276292 -0.952211 1.700447 81 238 255
-0.284105 -0.850649 1.817635 81 238 255
0.192458 -0.874086 1.778572 81 238 255
0.239333 -0.967836 1.677010 81 238 255
-0.166917 -0.967836 1.677010 81 238 255
-0.120042 -0.874086 1.778572 81 238 255
0.098708 -0.866274 1.552010 81 238 255
0.137770 -0.960024 1.489510 81 238 255
-0.065355 -0.960024 1.489510 81 238 255
-0.026292 -0.866274 1.552010 81 238 255
0.036208 -0.858461 1.489510 81 238 255
0.036208 -0.936586 1.411385 81 238 255
0.200270 -0.889711 1.473885 81 238 255
0.286208 -0.874086 1.528572 81 238 255
-0.213792 -0.874086 1.528572 81 238 255
-0.127855 -0.889711 1.473885 81 238 255
0.364333 -0.858461 1.536385 81 238 255
-0.291917 -0.858461 1.536385 81 238 255
0.465895 -0.835024 1.497322 205 253 227
-0.393480 -0.835024 1.497322 189 250 231
0.637770 -0.780336 1.434822 81 238 255
-0.565355 -0.780336 1.434822 139 245 242
0.676833 -0.764711 1.356697 81 238 255
-0.604417 -0.764711 1.356697 190 251 230
0.661208 -0.764711 1.247322 81 238 255
-0.588792 -0.764711 1.247322 81 238 255
0.528395 -0.788149 1.122322 81 238 255
-0.455980 -0.788149 1.122322 152 246 239
0.411208 -0.819399 1.075447 81 238 255
-0.338792 -0.819399 1.075447 94 239 252
0.239333 -0.858461 1.153572 81 238 255
-0.166917 -0.858461 1.153572 224 255 223
0.200270 -0.866274 1.200447 81 238 255
0.036208 -0.842836 1.106697 81 238 255
-0.127855 -0.866274 1.200447 224 255 223
0.161208 -0.881899 1.364510 81 238 255
-0.088792 -0.881899 1.364510 168 248 236
0.036208 -0.881899 1.270760 81 238 255
0.169020 -0.874086 1.270760 81 238 255
-0.096605 -0.874086 1.270760 224 255 223
0.098708 -0.811586 0.177010 255 71 113
0.036208 -0.803774 0.169197 255 71 113
0.200270 -0.749086 0.130135 224 255 223
-0.026292 -0.811586 0.177010 255 71 113
0.153395 -0.827211 0.223885 254 72 114
0.270583 -0.749086 0.145760 224 255 223
-0.080980 -0.827211 0.223885 255 71 113
0.145583 -0.850649 0.341072 255 71 113
0.301833 -0.780336 0.239510 224 255 223
-0.073167 -0.850649 0.341072 255 71 113
0.114333 -0.866274 0.614510 81 238 255
0.153395 -0.850649 0.372322 254 77 116
0.286208 -0.803774 0.356697 219 254 224
-0.080980 -0.850649 0.372322 255 71 113
-0.041917 -0.866274 0.614510 81 238 255
0.122145 -0.858461 0.770760 135 175 199
0.036208 -0.858461 0.731697 147 196 208
0.036208 -0.866274 0.614510 81 238 255
-0.049730 -0.858461 0.770760 175 215 212
0.036208 -0.850649 0.380135 255 71 113
0.036208 -0.850649 0.294197 255 71 113
0.161208 -0.866274 0.833260 134 174 199
0.169020 -0.913149 0.833260 136 175 200
0.129958 -0.897524 0.786385 134 174 199
0.122145 -0.858461 0.770760 136 175 200
-0.057542 -0.897524 0.786385 173 210 210
-0.096605 -0.913149 0.833260 213 245 220
-0.088792 -0.866274 0.833260 199 233 216
-0.049730 -0.858461 0.770760 181 215 212
0.137770 -0.858461 0.911385 255 255 255
0.145583 -0.897524 0.927010 255 255 255
0.169020 -0.913149 0.833260 255 255 255
0.161208 -0.866274 0.833260 255 255 255
-0.096605 -0.913149 0.833260 224 255 223
-0.073167 -0.897524 0.927010 233 255 233
-0.065355 -0.858461 0.911385 239 255 239
-0.088792 -0.866274 0.833260 224 255 223
0.036208 -0.858461 0.919197 255 255 255
0.075270 -0.897524 0.934822 255 255 255
-0.073167 -0.897524 0.927010 255 255 255
-0.002855 -0.897524 0.934822 255 255 255
-0.065355 -0.858461 0.911385 255 255 255
0.036208 -0.866274 0.864510 134 174 199
0.036208 -0.913149 0.872322 134 174 199
0.075270 -0.897524 0.934822 134 175 200
0.036208 -0.858461 0.919197 134 174 199
-0.002855 -0.897524 0.934822 132 177 201
0.036208 -0.858461 0.731697 168 198 214
0.036208 -0.897524 0.739510 148 184 206
0.036208 -0.858461 0.731697 162 198 208
0.036208 -0.897524 0.739510 148 184 204
0.036208 -0.897524 0.739510 138 183 204
0.114333 -0.920961 0.809822 134 174 199
0.036208 -0.920961 0.770760 134 174 199
-0.041917 -0.920961 0.809822 137 176 200
0.036208 -0.944399 0.856697 134 174 199
0.083083 -0.928774 0.911385 134 174 199
-0.010667 -0.928774 0.911385 134 174 199
-0.002855 -0.897524 0.934822 135 177 200
0.129958 -0.928774 0.903572 134 175 200
0.145583 -0.897524 0.927010 115 199 220
-0.057542 -0.928774 0.903572 160 197 207
-0.073167 -0.897524 0.927010 176 236 227
0.145583 -0.897524 0.927010 113 199 221
0.129958 -0.928774 0.903572 133 175 200
0.145583 -0.944399 0.833260 134 174 199
0.169020 -0.913149 0.833260 133 175 200
-0.073167 -0.944399 0.833260 170 208 208
0.169020 -0.913149 0.833260 135 175 199
0.137770 -0.858461 0.911385 135 179 202
-0.065355 -0.858461 0.911385 145 211 219
0.200270 -0.827211 0.817635 170 206 209
-0.127855 -0.827211 0.817635 93 239 252
0.215895 -0.827211 0.747322 219 253 224
-0.143480 -0.827211 0.747322 81 238 255
0.294020 -0.670961 0.747322 81 238 255
0.215895 -0.827211 0.747322 81 237 255
-0.221605 -0.670961 0.747322 81 238 255
0.270583 -0.670961 0.809822 81 238 255
0.200270 -0.827211 0.817635 113 200 222
-0.198167 -0.670961 0.809822 81 238 255
0.036208 -0.835024 0.286385 255 71 113
0.129958 -0.842836 0.317635 255 71 113
-0.057542 -0.842836 0.317635 255 71 113
0.129958 -0.827211 0.239510 255 71 113
-0.057542 -0.827211 0.239510 255 71 113
0.083083 -0.803774 0.192635 255 71 113
-0.010667 -0.803774 0.192635 255 71 113
0.036208 -0.803774 0.184822 255 71 113
0.036208 -0.803774 0.184822 224 255 223
0.083083 -0.803774 0.192635 224 255 223
0.083083 -0.749086 0.208260 224 255 223
0.036208 -0.749086 0.200447 224 255 223
-0.010667 -0.749086 0.208260 224 255 223
-0.010667 -0.803774 0.192635 224 255 223
0.129958 -0.827211 0.239510 224 255 223
0.129958 -0.756899 0.247322 224 255 223
-0.057542 -0.756899 0.247322 81 238 255
-0.057542 -0.827211 0.239510 81 238 255
-0.010667 -0.803774 0.192635 82 238 255
-0.010667 -0.749086 0.208260 81 238 255
0.129958 -0.780336 0.309822 255 71 113
0.129958 -0.756899 0.247322 255 71 113
-0.057542 -0.780336 0.309822 81 238 255
-0.057542 -0.842836 0.317635 81 238 255
0.036208 -0.772524 0.278572 255 71 113
-0.057542 -0.780336 0.309822 255 71 113
0.036208 -0.749086 0.200447 255 71 113
0.083083 -0.749086 0.208260 255 71 113
-0.010667 -0.749086 0.208260 255 71 113
-0.057542 -0.756899 0.247322 255 71 113
0.223708 -0.889711 1.216072 79 211 227
0.208083 -0.897524 1.278572 77 199 214
-0.151292 -0.889711 1.216072 203 226 200
-0.135667 -0.897524 1.278572 204 225 199
0.215895 -0.897524 1.356697 78 212 228
-0.143480 -0.897524 1.356697 217 245 215
0.247145 -0.897524 1.434822 81 238 255
-0.174730 -0.897524 1.434822 223 255 223
0.262770 -0.897524 1.169197 99 212 221
-0.190355 -0.897524 1.169197 202 223 197
0.411208 -0.858461 1.122322 82 230 246
-0.338792 -0.858461 1.122322 218 249 219
0.512770 -0.835024 1.161385 84 230 246
-0.440355 -0.835024 1.161385 224 255 223
0.614333 -0.795961 1.255135 81 238 255
-0.541917 -0.795961 1.255135 203 252 227
0.622145 -0.803774 1.348885 86 238 254
-0.549730 -0.803774 1.348885 224 255 223
0.598708 -0.811586 1.411385 81 238 255
-0.526292 -0.811586 1.411385 224 255 223
0.458083 -0.889711 1.458260 218 245 215
-0.385667 -0.889711 1.458260 215 241 212
0.372145 -0.874086 1.489510 179 249 232
-0.299730 -0.874086 1.489510 223 255 223
0.309645 -0.889711 1.481697 81 238 255
-0.237230 -0.889711 1.481697 208 253 226
0.270583 -0.874086 1.419197 92 208 219
0.317458 -0.881899 1.458260 113 235 241
-0.198167 -0.874086 1.419197 205 227 199
-0.245042 -0.881899 1.458260 216 243 214
0.372145 -0.866274 1.466072 206 230 201
-0.299730 -0.866274 1.466072 203 225 197
0.450270 -0.866274 1.450447 198 217 191
-0.377855 -0.866274 1.450447 185 197 175
0.567458 -0.795961 1.395760 210 253 226
-0.495042 -0.795961 1.395760 217 245 215
0.590895 -0.788149 1.341072 210 253 226
-0.518480 -0.788149 1.341072 221 250 219
0.583083 -0.788149 1.270760 153 244 237
-0.510667 -0.788149 1.270760 221 250 219
0.497145 -0.819399 1.177010 117 186 187
-0.424730 -0.819399 1.177010 215 240 211
0.411208 -0.842836 1.145760 117 175 178
-0.338792 -0.842836 1.145760 186 199 177
0.278395 -0.874086 1.184822 124 145 141
-0.205980 -0.874086 1.184822 146 141 129
0.239333 -0.866274 1.231697 71 142 156
-0.166917 -0.866274 1.231697 154 154 140
0.231520 -0.874086 1.356697 74 166 180
-0.159105 -0.874086 1.356697 193 210 185
0.231520 -0.866274 1.286385 68 105 118
-0.159105 -0.866274 1.286385 140 133 123
0.145583 -0.725649 1.520760 81 238 255
0.036208 -0.717836 1.466072 81 238 255
-0.073167 -0.725649 1.520760 81 238 255
0.098708 -0.866274 1.552010 255 255 255
0.192458 -0.874086 1.778572 255 255 255
0.231520 -0.733461 1.723885 255 255 255
0.145583 -0.725649 1.520760 255 255 255
-0.159105 -0.733461 1.723885 255 255 255
-0.120042 -0.874086 1.778572 255 255 255
-0.026292 -0.866274 1.552010 255 255 255
-0.073167 -0.725649 1.520760 255 255 255
0.356520 -0.850649 1.817635 255 255 255
0.372145 -0.710024 1.747322 255 255 255
-0.299730 -0.710024 1.747322 255 255 255
-0.284105 -0.850649 1.817635 255 255 255
0.528395 -0.803774 1.661385 255 255 255
0.520583 -0.670961 1.614510 255 255 255
-0.448167 -0.670961 1.614510 255 255 255
-0.455980 -0.803774 1.661385 255 255 255
0.747145 -0.741274 1.544197 255 255 255
0.715895 -0.608461 1.512947 255 255 255
-0.643480 -0.608461 1.512947 255 255 255
-0.674730 -0.741274 1.544197 255 255 255
0.895583 -0.710024 1.489510 255 255 255
0.833083 -0.577211 1.466072 255 255 255
-0.760667 -0.577211 1.466072 255 255 255
-0.823167 -0.710024 1.489510 255 255 255
0.864333 -0.561586 1.208260 255 255 255
0.809645 -0.491274 1.223885 255 255 255
-0.737230 -0.491274 1.223885 255 255 255
-0.791917 -0.561586 1.208260 255 255 255
0.669020 -0.655336 1.020760 255 255 255
0.637770 -0.530336 1.059822 255 255 255
-0.565355 -0.530336 1.059822 255 255 255
-0.596605 -0.655336 1.020760 255 255 255
0.473708 -0.647524 0.919197 255 255 255
0.473708 -0.585024 0.966072 255 255 255
-0.401292 -0.585024 0.966072 255 255 255
-0.401292 -0.647524 0.919197 255 255 255
0.036208 -0.436586 0.489510 143 148 255
0.036208 -0.397524 0.575447 143 148 255
0.215895 -0.374086 0.645760 143 148 255
0.161208 -0.475649 0.520760 143 148 255
-0.143480 -0.374086 0.645760 143 148 255
-0.088792 -0.475649 0.520760 143 148 255
0.036208 -0.460024 0.255135 143 148 255
0.176833 -0.483461 0.302010 143 148 255
-0.104417 -0.483461 0.302010 143 148 255
0.036208 -0.577211 0.083260 143 148 255
0.200270 -0.553774 0.114510 143 148 255
-0.127855 -0.553774 0.114510 143 148 255
0.215895 -0.670961 0.091072 143 148 255
0.036208 -0.694399 0.075447 143 148 255
-0.143480 -0.670961 0.091072 143 148 255
0.364333 -0.639711 0.114510 143 148 255
0.364333 -0.514711 0.145760 143 148 255
-0.291917 -0.639711 0.114510 143 148 255
-0.291917 -0.514711 0.145760 143 148 255
0.403395 -0.647524 0.169197 143 148 255
0.325270 -0.499086 0.348885 143 148 255
-0.330980 -0.647524 0.169197 144 149 255
-0.252855 -0.499086 0.348885 143 148 255
0.387770 -0.686586 0.364510 143 148 255
0.286208 -0.506899 0.559822 143 148 255
-0.315355 -0.686586 0.364510 179 195 241
-0.213792 -0.506899 0.559822 143 148 255
0.270583 -0.522524 0.708260 143 148 255
-0.198167 -0.522524 0.708260 143 148 255
0.348708 -0.686586 0.622322 143 148 255
-0.276292 -0.686586 0.622322 143 148 255
0.294020 -0.670961 0.747322 255 255 255
0.254958 -0.545961 0.778572 255 255 255
0.247145 -0.585024 0.833260 255 255 255
0.270583 -0.670961 0.809822 255 255 255
-0.174730 -0.585024 0.833260 255 255 255
-0.182542 -0.545961 0.778572 255 255 255
-0.221605 -0.670961 0.747322 255 255 255
-0.198167 -0.670961 0.809822 255 255 255
0.254958 -0.545961 0.778572 143 148 255
0.294020 -0.670961 0.747322 143 148 255
-0.182542 -0.545961 0.778572 143 148 255
-0.221605 -0.670961 0.747322 143 148 255
0.247145 -0.585024 0.833260 85 232 251
0.239333 -0.616274 0.887947 86 232 250
-0.174730 -0.585024 0.833260 81 238 255
-0.166917 -0.616274 0.887947 81 238 255
0.239333 -0.678774 0.872322 255 255 255
0.239333 -0.616274 0.887947 255 255 255
-0.166917 -0.616274 0.887947 255 255 255
-0.166917 -0.678774 0.872322 255 255 255
0.036208 0.711851 1.130135 143 148 255
0.372145 0.547789 1.114510 143 148 255
0.379958 0.422789 0.911385 143 148 255
0.036208 0.555601 0.864510 143 148 255
-0.307542 0.422789 0.911385 143 148 255
-0.299730 0.547789 1.114510 143 148 255
0.333083 0.149351 0.747322 143 148 255
0.036208 0.235289 0.677010 143 148 255
-0.260667 0.149351 0.747322 143 148 255
0.247145 -0.280336 0.669197 143 148 255
0.036208 -0.303774 0.598885 143 148 255
-0.174730 -0.280336 0.669197 143 148 255
0.270583 -0.522524 0.708260 255 255 255
0.215895 -0.374086 0.645760 255 255 255
0.247145 -0.280336 0.669197 255 255 255
-0.174730 -0.280336 0.669197 255 255 255
-0.143480 -0.374086 0.645760 255 255 255
-0.198167 -0.522524 0.708260 255 255 255
0.770583 -0.186586 1.012947 255 255 255
0.887770 -0.170961 1.294197 255 255 255
-0.698167 -0.186586 1.012947 255 255 255
-0.815355 -0.170961 1.294197 255 255 255
0.036208 0.735289 1.622322 143 148 255
0.497145 0.586851 1.497322 143 148 255
-0.424730 0.586851 1.497322 143 148 255
0.036208 -0.405336 1.958260 81 238 255
0.489333 -0.350649 1.911385 81 238 255
0.489333 -0.045961 1.989510 83 238 255
0.036208 -0.038149 2.044197 81 238 255
-0.416917 -0.045961 1.989510 81 238 255
-0.416917 -0.350649 1.911385 81 238 255
0.036208 -0.038149 2.044197 144 149 255
0.489333 -0.045961 1.989510 144 149 255
0.489333 0.266539 1.927010 143 148 255
0.036208 0.430601 1.958260 143 148 255
-0.416917 0.266539 1.927010 143 148 255
-0.416917 -0.045961 1.989510 143 148 255
0.715895 -0.608461 1.512947 81 238 255
0.833083 -0.577211 1.466072 81 238 255
0.762770 -0.452211 1.466072 81 238 255
0.669020 -0.397524 1.512947 81 238 255
-0.690355 -0.452211 1.466072 255 255 255
-0.596605 -0.397524 1.512947 255 255 255
0.833083 -0.241274 1.622322 81 238 255
0.676833 -0.170961 1.762947 81 238 255
-0.760667 -0.241274 1.622322 81 238 255
-0.690355 -0.452211 1.466072 81 238 255
-0.596605 -0.397524 1.512947 81 238 255
-0.604417 -0.170961 1.762947 81 238 255
0.833083 0.000914 1.677010 81 238 255
0.676833 0.079039 1.809822 81 238 255
-0.760667 0.000914 1.677010 81 238 255
-0.604417 0.079039 1.809822 81 238 255
0.676833 0.079039 1.809822 143 148 255
0.833083 0.000914 1.677010 143 148 255
0.833083 0.243101 1.598885 143 148 255
0.676833 0.329039 1.739510 143 148 255
-0.760667 0.243101 1.598885 143 148 255
-0.760667 0.000914 1.677010 143 148 255
-0.604417 0.079039 1.809822 192 195 255
-0.604417 0.329039 1.739510 143 148 255
0.809645 0.321226 1.325447 143 148 255
0.653395 0.469664 1.387947 143 148 255
-0.580980 0.469664 1.387947 143 148 255
-0.737230 0.321226 1.325447 143 148 255
0.497145 -0.545961 1.583260 81 238 255
-0.424730 -0.545961 1.583260 81 238 255
0.520583 -0.670961 1.614510 81 238 255
-0.424730 -0.545961 1.583260 255 255 255
0.036208 -0.686586 1.630135 81 238 255
0.497145 -0.545961 1.583260 255 255 255
-0.424730 -0.545961 1.583260 247 255 255
0.762770 -0.452211 1.466072 255 255 255
0.887770 -0.170961 1.294197 81 238 255
0.895583 -0.069399 1.380135 81 238 255
-0.823167 -0.069399 1.380135 81 238 255
-0.815355 -0.170961 1.294197 81 238 255
0.895583 -0.069399 1.380135 143 148 255
0.856520 0.086851 1.387947 143 148 255
0.833083 -0.241274 1.622322 143 148 255
-0.784105 0.086851 1.387947 143 148 255
-0.823167 -0.069399 1.380135 143 148 255
-0.760667 -0.241274 1.622322 143 148 255
0.333083 0.149351 0.747322 255 255 255
0.465895 0.094664 0.864510 255 255 255
0.442458 -0.264711 0.887947 255 255 255
-0.393480 0.094664 0.864510 255 255 255
-0.260667 0.149351 0.747322 255 88 127
-0.174730 -0.280336 0.669197 255 212 221
-0.370042 -0.264711 0.887947 255 255 255
0.629958 0.047789 0.934822 255 255 255
-0.557542 0.047789 0.934822 255 255 255
0.473708 -0.585024 0.966072 152 245 255
0.254958 -0.545961 0.778572 81 238 255
0.442458 -0.264711 0.887947 84 238 255
-0.182542 -0.545961 0.778572 81 238 255
-0.401292 -0.585024 0.966072 87 239 255
-0.370042 -0.264711 0.887947 81 238 255
0.247145 -0.280336 0.669197 81 238 255
0.473708 -0.585024 0.966072 155 245 255
-0.401292 -0.585024 0.966072 89 239 255
0.676833 0.313414 1.052010 143 148 255
0.520583 0.430601 1.083260 143 148 255
-0.448167 0.430601 1.083260 143 148 255
-0.604417 0.313414 1.052010 143 148 255
0.629958 0.047789 0.934822 143 148 255
0.465895 0.094664 0.864510 143 148 255
-0.393480 0.094664 0.864510 143 148 255
-0.557542 0.047789 0.934822 143 148 255
1.059645 0.196226 1.536385 81 238 255
0.926833 0.118101 1.466072 81 238 255
0.958083 0.102476 1.419197 81 238 255
1.051833 0.172789 1.473885 81 238 255
-0.885667 0.102476 1.419197 81 238 255
-0.854417 0.118101 1.466072 81 238 255
-0.987230 0.196226 1.536385 81 238 255
-0.979417 0.172789 1.473885 81 238 255
1.223708 0.274351 1.497322 81 238 255
1.270583 0.305601 1.567635 81 238 255
-1.151292 0.274351 1.497322 81 238 255
-1.198167 0.305601 1.567635 81 238 255
1.301833 0.289976 1.348885 81 238 255
1.387770 0.305601 1.380135 81 238 255
-1.229417 0.289976 1.348885 81 238 255
-1.315355 0.305601 1.380135 81 238 255
1.247145 0.289976 1.137947 81 238 255
1.317458 0.313414 1.114510 81 238 255
-1.174730 0.289976 1.137947 81 238 255
-1.245042 0.313414 1.114510 81 238 255
1.067458 0.188414 1.020760 81 238 255
1.075270 0.211851 0.958260 81 238 255
-0.995042 0.188414 1.020760 81 238 255
-1.002855 0.211851 0.958260 81 238 255
0.864333 0.016539 0.989510 81 238 255
0.809645 0.008726 0.919197 81 238 255
-0.791917 0.016539 0.989510 81 238 255
-0.737230 0.008726 0.919197 81 238 255
1.075270 0.250914 1.059822 81 238 255
0.919020 0.094664 1.036385 81 238 255
-0.846605 0.094664 1.036385 81 238 255
-1.002855 0.250914 1.059822 81 238 255
1.223708 0.329039 1.153572 81 238 255
-1.151292 0.329039 1.153572 81 238 255
1.270583 0.329039 1.309822 81 238 255
-1.198167 0.329039 1.309822 81 238 255
1.208083 0.321226 1.419197 81 238 255
-1.135667 0.321226 1.419197 81 238 255
1.059645 0.243101 1.403572 81 238 255
-0.987230 0.243101 1.403572 81 238 255
0.981520 0.172789 1.364510 81 238 255
-0.909105 0.172789 1.364510 81 238 255
0.754958 0.055601 1.036385 255 255 255
0.762770 -0.045961 1.059822 255 255 255
-0.682542 0.055601 1.036385 255 255 255
-0.690355 -0.045961 1.059822 255 255 255
0.629958 0.047789 0.934822 81 238 255
0.754958 0.055601 1.036385 81 238 255
-0.791917 0.016539 0.989510 255 255 255
-0.737230 0.008726 0.919197 255 255 255
0.895583 -0.069399 1.380135 255 255 255
-0.823167 -0.069399 1.380135 255 255 255
0.856520 0.086851 1.387947 81 238 255
0.879958 0.094664 1.348885 81 238 255
-0.807542 0.094664 1.348885 81 238 255
-0.784105 0.086851 1.387947 81 238 255
0.848708 0.157164 1.044197 81 238 255
-0.776292 0.157164 1.044197 255 255 255
-0.846605 0.094664 1.036385 255 255 255
0.879958 0.157164 1.075447 255 255 255
0.754958 0.071226 1.098885 255 255 255
0.848708 0.157164 1.044197 255 255 255
-0.682542 0.071226 1.098885 255 255 255
-0.807542 0.157164 1.075447 255 255 255
0.794020 0.157164 1.153572 255 255 255
0.856520 0.157164 1.145760 255 255 255
-0.721605 0.157164 1.153572 255 255 255
-0.784105 0.157164 1.145760 255 255 255
0.872145 0.157164 1.231697 255 255 255
0.833083 0.094664 1.262947 255 255 255
-0.760667 0.094664 1.262947 255 255 255
-0.799730 0.157164 1.231697 255 255 255
0.833083 0.094664 1.262947 81 238 255
0.872145 0.157164 1.231697 81 238 255
0.926833 0.149351 1.302010 81 238 255
-0.807542 0.094664 1.348885 255 255 255
-0.854417 0.149351 1.302010 255 255 255
-0.854417 0.149351 1.302010 81 238 255
0.879958 0.094664 1.348885 255 255 255
0.856520 0.086851 1.387947 255 255 255
-0.784105 0.086851 1.387947 255 255 255
0.926833 0.204039 1.294197 81 238 255
0.989333 0.227476 1.348885 81 238 255
-0.854417 0.204039 1.294197 81 238 255
-0.916917 0.227476 1.348885 81 238 255
0.926833 0.149351 1.302010 255 255 255
0.879958 0.204039 1.231697 255 255 255
0.926833 0.204039 1.294197 255 255 255
-0.807542 0.204039 1.231697 255 255 255
-0.854417 0.204039 1.294197 255 255 255
0.801833 0.204039 1.153572 255 255 255
-0.729417 0.204039 1.153572 255 255 255
0.864333 0.204039 1.137947 255 255 255
-0.791917 0.204039 1.137947 255 255 255
0.887770 0.204039 1.075447 255 255 255
-0.815355 0.204039 1.075447 255 255 255
0.848708 0.204039 1.044197 255 255 255
-0.776292 0.204039 1.044197 255 255 255
0.919020 0.149351 1.044197 81 238 255
0.848708 0.204039 1.044197 81 238 255
-0.846605 0.149351 1.044197 255 255 255
1.075270 0.297789 1.387947 81 238 255
-1.002855 0.297789 1.387947 81 238 255
1.223708 0.368101 1.403572 81 238 255
-1.151292 0.368101 1.403572 81 238 255
1.270583 0.329039 1.309822 255 255 255
1.208083 0.321226 1.419197 255 255 255
1.223708 0.368101 1.403572 255 255 255
1.294020 0.375914 1.302010 255 255 255
-1.151292 0.368101 1.403572 255 255 255
-1.135667 0.321226 1.419197 255 255 255
-1.198167 0.329039 1.309822 255 255 255
-1.221605 0.375914 1.302010 255 255 255
1.223708 0.329039 1.153572 255 255 255
1.247145 0.368101 1.145760 255 255 255
-1.151292 0.329039 1.153572 255 255 255
-1.174730 0.368101 1.145760 255 255 255
1.247145 0.368101 1.145760 81 238 255
1.083083 0.305601 1.059822 81 238 255
-1.174730 0.368101 1.145760 81 238 255
-1.010667 0.305601 1.059822 81 238 255
-0.846605 0.149351 1.044197 81 238 255
0.864333 0.204039 1.137947 81 238 255
0.887770 0.204039 1.075447 81 238 255
0.973708 0.219664 1.122322 81 238 255
0.926833 0.211851 1.169197 81 238 255
-0.901292 0.219664 1.122322 255 255 255
-0.854417 0.211851 1.169197 255 255 255
1.036208 0.250914 1.184822 81 238 255
0.997145 0.235289 1.231697 81 238 255
-0.963792 0.250914 1.184822 255 255 255
-0.924730 0.235289 1.231697 255 255 255
1.090895 0.266539 1.247322 81 238 255
1.051833 0.258726 1.294197 81 238 255
-1.018480 0.266539 1.247322 81 238 255
-0.963792 0.250914 1.184822 81 238 255
-0.924730 0.235289 1.231697 81 238 255
-0.979417 0.258726 1.294197 81 238 255
1.145583 0.274351 1.270760 81 238 255
1.122145 0.274351 1.333260 81 238 255
-1.073167 0.274351 1.270760 81 238 255
-1.049730 0.274351 1.333260 81 238 255
0.879958 0.204039 1.231697 81 238 255
0.926833 0.211851 1.169197 255 255 255
-0.901292 0.219664 1.122322 81 238 255
1.294020 0.375914 1.302010 81 238 255
-1.221605 0.375914 1.302010 81 238 255
1.075270 0.211851 0.958260 143 148 255
0.809645 0.008726 0.919197 143 148 255
0.825270 0.211851 0.934822 143 148 255
1.075270 0.375914 0.973885 143 148 255
-0.752855 0.211851 0.934822 147 152 255
-0.737230 0.008726 0.919197 170 174 255
-1.002855 0.211851 0.958260 143 148 255
-1.002855 0.375914 0.973885 143 148 255
1.317458 0.313414 1.114510 255 255 255
1.075270 0.211851 0.958260 255 255 255
1.075270 0.375914 0.973885 255 255 255
1.348708 0.414976 1.114510 255 255 255
-1.002855 0.375914 0.973885 255 255 255
-1.002855 0.211851 0.958260 255 255 255
-1.245042 0.313414 1.114510 255 255 255
-1.276292 0.414976 1.114510 255 255 255
1.348708 0.414976 1.114510 81 238 255
1.403395 0.383726 1.356697 81 238 255
-1.276292 0.414976 1.114510 81 238 255
-1.330980 0.383726 1.356697 81 238 255
1.286208 0.430601 1.528572 81 238 255
-1.330980 0.383726 1.356697 255 255 255
-1.315355 0.305601 1.380135 255 255 255
-1.198167 0.305601 1.567635 255 255 255
-1.213792 0.430601 1.528572 255 255 255
1.059645 0.196226 1.536385 143 148 255
1.270583 0.305601 1.567635 143 148 255
1.286208 0.430601 1.528572 143 148 255
1.059645 0.368101 1.497322 143 148 255
-1.213792 0.430601 1.528572 143 148 255
-1.198167 0.305601 1.567635 143 149 255
-0.987230 0.196226 1.536385 143 148 255
-0.987230 0.368101 1.497322 143 148 255
0.926833 0.118101 1.466072 143 148 255
0.895583 0.266539 1.442635 143 148 255
-0.854417 0.118101 1.466072 143 148 255
-0.823167 0.266539 1.442635 143 148 255
-0.752855 0.211851 0.934822 143 148 255
1.348708 0.414976 1.114510 143 148 255
-1.276292 0.414976 1.114510 143 148 255
1.403395 0.383726 1.356697 151 156 255
-1.330980 0.383726 1.356697 143 148 255
-0.737230 0.008726 0.919197 143 148 255
4 0 1 2 3
4 4 5 6 7
4 3 2 8 9
4 10 11 7 12
4 13 14 15 16
4 17 18 19 20
4 1 21 22 2
4 23 24 5 4
4 21 25 26 22
4 27 28 24 23
4 22 26 29 30
4 31 27 23 32
4 33 34 35 36
4 37 38 39 40
4 25 41 42 26
4 43 44 28 27
4 41 45 46 42
4 47 48 44 43
4 34 49 50 35
4 51 52 38 37
4 49 53 54 50
4 55 56 52 51
4 45 57 58 46
4 59 60 48 47
4 57 61 62 58
4 63 64 60 59
4 53 65 66 54
4 67 68 56 55
4 62 3 9 69
4 12 7 63 70
4 61 0 3 62
4 7 6 64 63
4 71 72 73 74
4 75 76 77 78
4 72 79 80 73
4 81 82 76 75
4 79 83 84 80
4 85 86 82 81
4 83 87 88 84
4 89 90 86 85
4 87 91 92 88
4 93 94 90 89
4 91 95 96 92
4 97 98 94 93
4 95 99 100 96
4 101 102 98 97
4 99 71 74 100
4 78 77 102 101
3 103 104 105
3 106 107 108
3 109 104 103
3 108 107 110
3 103 111 109
3 110 112 108
3 103 113 111
3 112 114 108
3 103 115 113
3 114 116 108
3 103 117 115
3 116 118 108
3 103 119 117
3 118 120 108
3 103 105 119
3 120 106 108
4 121 122 123 124
4 125 126 127 128
4 129 130 122 121
4 126 131 132 127
4 133 134 130 129
4 131 135 136 132
4 137 138 134 133
4 135 139 140 136
4 141 142 138 137
4 139 143 144 140
4 145 146 147 148
4 149 150 151 152
4 146 153 154 147
4 155 156 150 149
4 153 157 158 154
4 159 160 156 155
4 157 161 162 158
4 163 164 160 159
4 161 165 166 162
4 167 168 164 163
4 165 169 170 166
4 171 172 168 167
4 169 173 174 170
4 175 176 172 171
4 173 177 178 174
4 179 180 176 175
4 177 181 182 178
4 183 184 180 179
4 181 185 186 182
4 186 185 184 183
4 187 188 178 182
4 179 189 190 183
4 188 191 174 178
4 175 192 189 179
4 193 170 174 191
4 175 171 194 192
4 195 166 170 193
4 171 167 196 194
4 197 162 166 195
4 167 163 198 196
4 199 158 162 197
4 163 159 200 198
4 201 154 158 199
4 159 155 202 200
4 203 147 154 201
4 155 149 204 202
4 205 148 147 203
4 149 152 206 204
4 205 207 208 148
4 208 209 206 152
4 187 182 186 210
4 186 183 190 211
4 210 186 212 213
4 212 186 211 214
4 208 207 213 212
4 214 209 208 212
4 215 216 125 217
4 125 216 218 126
4 219 215 217 220
4 126 218 221 131
4 222 219 220 223
4 131 221 224 135
4 142 225 226 227
4 228 229 143 139
4 222 223 227 226
4 139 135 224 228
4 230 231 232 225
4 232 231 233 229
4 226 225 232 234
4 232 229 228 234
4 235 222 226 234
4 228 224 235 234
4 236 237 238 239
4 240 241 242 243
4 244 245 246 247
4 248 249 250 251
4 252 253 245 244
4 254 255 252 256
4 257 258 259 260
4 261 258 257 260
4 262 239 238 263
4 240 243 264 265
4 266 238 267 268
4 269 240 266 268
4 258 270 271 259
4 272 270 258 273
4 259 271 274 275
4 276 272 273 277
4 278 279 280 281
4 282 276 277 241
4 283 280 267 238
4 269 282 241 240
4 270 280 274 271
4 276 282 270 272
4 270 268 267 280
4 269 268 270 282
4 260 284 148 208
4 152 285 260 208
4 284 236 286 148
4 287 242 285 152
4 236 230 288 286
4 289 233 242 287
4 230 225 142 288
4 143 229 233 289
4 141 290 291 142
4 289 292 144 143
4 290 293 294 291
4 287 295 292 289
4 145 148 294 293
4 287 152 151 295
4 222 235 296 297
4 296 235 224 298
4 219 222 297 299
4 298 224 221 300
4 215 219 299 301
4 300 221 218 302
4 216 215 301 303
4 302 218 216 303
4 304 305 306 307
4 308 309 304 307
4 305 310 311 306
4 312 313 314 315
4 299 297 316 317
4 318 319 313 312
4 297 296 320 316
4 320 296 298 321
4 320 322 323 316
4 324 322 320 321
3 316 323 317
3 325 324 321
4 213 207 326 327
4 328 209 214 329
4 210 213 327 330
4 329 214 211 331
4 187 210 330 332
4 331 211 190 333
4 207 205 334 326
4 335 206 209 328
4 205 203 336 334
4 337 204 206 335
4 203 201 338 336
4 339 202 204 337
4 201 199 340 338
4 341 200 202 339
4 199 197 342 340
4 343 198 200 341
4 197 195 344 342
4 345 196 198 343
4 195 193 346 344
4 347 194 196 345
4 193 191 348 346
4 349 192 194 347
4 191 188 350 348
4 351 189 192 349
4 188 187 332 350
4 333 190 189 351
4 350 332 352 353
4 354 333 351 355
4 348 350 353 356
4 355 351 349 357
4 346 348 356 358
4 357 349 347 359
4 344 346 358 360
4 359 347 345 361
4 342 344 360 362
4 361 345 343 363
4 340 342 362 364
4 363 343 341 365
4 338 340 364 366
4 365 341 339 367
4 336 338 366 368
4 367 339 337 369
4 334 336 368 370
4 369 337 335 371
4 326 334 370 372
4 371 335 328 373
4 332 330 374 352
4 375 331 333 354
4 330 327 376 374
4 377 329 331 375
4 327 326 372 376
4 373 328 329 377
4 185 181 378 379
4 380 184 185 379
4 381 382 383 384
4 385 386 387 388
4 382 389 390 383
4 391 392 386 385
4 389 393 394 390
4 395 396 392 391
4 393 397 398 394
4 399 400 396 395
4 397 401 402 398
4 403 404 400 399
4 401 405 406 402
4 407 408 404 403
4 405 409 410 406
4 411 412 408 407
4 409 413 414 410
4 415 416 412 411
4 417 418 419 420
4 421 418 417 422
4 423 417 420 424
4 422 417 423 425
4 426 423 424 427
4 425 423 426 428
4 429 430 426 427
4 426 430 431 428
4 432 429 427 433
4 428 431 434 435
4 436 432 433 437
4 435 434 438 439
4 440 436 437 441
4 439 438 442 443
4 437 424 420 441
4 422 425 439 443
4 437 433 427 424
4 428 435 439 425
4 444 441 420 419
4 422 443 445 421
4 446 440 441 444
4 443 442 447 445
4 448 449 450 451
4 452 453 454 455
4 446 444 456 457
4 458 445 447 459
4 145 293 460 461
4 462 295 151 463
4 464 465 414 413
4 415 466 467 416
4 468 469 470 471
4 472 473 468 471
4 471 470 474 475
4 476 472 471 475
4 475 474 477 478
4 479 476 475 478
4 478 477 419 418
4 421 479 478 418
4 480 481 482 449
4 483 484 485 453
4 406 410 486 487
4 488 411 407 489
4 490 491 469 468
4 473 492 490 468
4 493 494 495 496
4 497 498 493 496
4 499 500 501 502
4 503 504 499 502
4 502 501 491 490
4 492 503 502 490
4 505 506 507 508
4 509 403 399 510
4 508 507 511 512
4 513 514 515 516
4 512 511 517 518
4 519 513 516 520
4 521 522 523 524
4 525 526 527 528
4 529 530 524 523
4 528 531 532 525
4 491 501 524 530
4 528 503 492 531
4 501 500 521 524
4 527 504 503 528
4 495 494 512 518
4 516 498 497 520
4 494 533 508 512
4 515 534 498 516
4 535 505 508 533
4 510 399 395 536
4 537 533 494 493
4 498 534 537 493
4 384 383 390 394
4 391 385 388 395
4 378 394 538 537
4 539 395 380 537
3 379 378 537
3 537 380 379
4 402 406 487 540
4 489 407 403 509
4 541 542 511 507
4 513 543 544 514
4 545 546 522 547
4 526 548 549 550
4 529 523 522 546
4 526 525 532 548
4 482 551 552 553
4 554 555 556 557
4 486 553 552 558
4 554 557 488 559
4 410 414 553 486
4 557 415 411 488
4 560 460 561 562
4 563 462 564 565
3 561 566 562
3 557 483 453
3 567 461 460
3 462 463 568
4 529 569 570 530
4 571 572 532 531
4 491 530 570 469
4 571 531 492 473
4 573 574 570 569
4 571 575 576 572
4 474 470 570 574
4 571 472 476 575
3 469 570 470
3 472 571 473
4 577 578 579 580
4 581 582 583 584
4 577 580 585 586
4 587 584 583 588
4 586 585 589 590
4 591 587 588 592
4 590 589 593 594
4 595 591 592 596
4 594 593 597 598
4 599 595 596 600
4 598 597 601 602
4 603 599 600 604
4 597 605 606 601
4 607 608 599 603
4 593 609 605 597
4 608 610 595 599
4 589 611 609 593
4 610 612 591 595
4 585 613 611 589
4 612 614 587 591
4 580 615 613 585
4 614 616 584 587
4 580 579 617 615
4 618 581 584 616
4 486 558 619 620
4 621 559 488 622
4 623 602 601 624
4 625 626 559 621
4 487 486 620 627
4 622 488 489 628
4 629 630 579 578
4 581 631 632 582
4 601 606 633 624
4 634 635 625 621
4 636 637 619 638
4 621 639 640 634
4 641 637 636 642
4 640 639 643 644
4 645 646 637 641
4 639 647 648 643
4 630 649 650 651
4 648 647 652 653
4 579 630 651 617
4 654 631 581 618
4 627 646 655 656
4 652 647 628 657
4 627 620 637 646
4 639 622 628 647
3 620 619 637
3 639 621 622
4 617 651 658 659
4 660 654 618 661
4 662 645 663 664
4 665 648 653 666
4 645 641 667 663
4 668 643 648 665
4 641 642 669 667
4 670 644 643 668
4 642 636 671 669
4 672 640 644 670
4 636 638 673 671
4 674 634 640 672
4 633 606 675 676
4 677 635 634 674
4 615 617 659 678
4 661 618 616 679
4 613 615 678 680
4 679 616 614 681
4 682 683 684 685
4 686 687 688 689
4 690 682 685 691
4 689 688 692 693
4 605 609 694 695
4 696 610 608 697
4 606 605 695 675
4 697 608 607 698
4 699 700 701 702
4 703 672 670 704
4 702 701 705 706
4 707 703 704 708
4 706 705 709 710
4 711 712 713 714
4 710 709 715 716
4 717 711 714 718
4 678 659 710 716
4 714 661 679 718
4 658 706 710 659
4 714 713 660 661
4 658 719 702 706
4 704 665 666 708
4 669 720 663 667
4 665 704 670 668
4 676 675 701 700
4 703 677 674 672
4 695 705 701 675
4 721 712 697 698
4 694 709 705 695
4 712 711 696 697
4 722 715 709 694
4 711 717 723 696
4 680 716 715 722
4 717 718 681 723
3 678 716 680
3 681 718 679
4 724 725 726 727
4 728 729 730 731
4 732 733 734 735
4 736 737 738 739
4 590 594 740 741
4 742 596 592 743
4 586 590 741 744
4 745 746 747 748
4 749 750 751 752
4 753 754 755 756
4 757 749 752 758
4 756 755 759 760
4 752 727 726 758
4 761 731 756 760
4 752 751 762 727
4 763 753 756 731
3 751 764 762
3 763 765 753
4 529 546 757 758
4 759 548 532 760
4 529 758 726 569
4 761 760 532 572
4 573 569 726 725
4 761 572 576 766
