ply
format ascii 1.0
comment Created by Blender 2.73 (sub 0) - www.blender.org, source file: 'falcon.blend'
element vertex 577
property float x
property float y
property float z
property float nx
property float ny
property float nz
property uchar red
property uchar green
property uchar blue
element face 219
property list uchar uint vertex_indices
end_header
-1.753113 1.772681 0.003897 0.290036 -0.956121 -0.041362 99 96 93
-1.781221 1.754111 0.236072 0.290036 -0.956121 -0.041362 99 96 93
-2.120764 1.651111 0.236072 0.290036 -0.956121 -0.041362 99 96 93
-2.092657 1.669682 0.003897 0.290036 -0.956121 -0.041362 99 96 93
-3.209999 -0.002539 0.003897 0.987091 0.097220 0.127277 99 96 93
-3.238107 -0.021110 0.236072 0.987091 0.097220 0.127277 102 101 100
-3.203328 -0.374223 0.236072 0.987091 0.097220 0.127277 102 101 100
-3.175220 -0.355652 0.003897 0.987091 0.097220 0.127277 99 96 93
-0.227832 -1.441249 0.000584 -0.485581 0.874176 -0.005305 99 96 93
-0.271661 -1.459820 0.232759 -0.485581 0.874176 -0.005305 102 101 100
0.208779 -1.197303 0.234731 -0.485581 0.874176 -0.005305 102 101 100
0.236887 -1.178733 0.002556 -0.485581 0.874176 -0.005305 99 96 93
-2.679863 -1.282402 0.003897 0.628384 0.765688 0.137317 99 96 93
-2.707971 -1.300972 0.236072 0.628384 0.765688 0.137317 99 96 93
-2.433689 -1.526069 0.236072 0.628384 0.765688 0.137317 101 100 99
-2.405581 -1.507499 0.003897 0.628384 0.765688 0.137317 99 96 93
-3.175220 -0.355652 0.003897 0.947819 0.287517 0.137743 99 96 93
-3.203328 -0.374223 0.236072 0.947819 0.287517 0.137743 102 101 100
-3.100329 -0.713766 0.236072 0.947819 0.287517 0.137743 102 101 100
-3.072221 -0.695196 0.003897 0.947819 0.287517 0.137743 99 96 93
-1.399999 -1.812539 0.003897 -0.097794 0.992910 0.067578 98 95 92
-1.428107 -1.831109 0.236072 -0.097794 0.992910 0.067578 102 101 100
-1.074994 -1.796330 0.236072 -0.097794 0.992910 0.067578 102 101 100
-1.046886 -1.777760 0.003897 -0.097794 0.992910 0.067578 99 96 93
0.236887 -1.178733 0.002556 -0.427221 0.903971 0.017856 102 101 100
0.208779 -1.197303 0.234731 -0.427221 0.903971 0.017856 102 101 100
1.419512 -0.624407 0.234917 -0.427221 0.903971 0.017856 102 101 100
0.756201 -0.934172 0.011130 -0.427221 0.903971 0.017856 94 93 92
1.431748 0.662551 -0.004265 -0.431523 -0.902000 -0.013534 102 101 100
1.412191 0.654106 0.233753 -0.431523 -0.902000 -0.013534 102 101 100
0.786514 0.968015 0.210310 -0.431523 -0.902000 -0.013534 102 101 100
0.823172 0.939608 -0.013637 -0.431523 -0.902000 -0.013534 102 101 100
0.211694 1.219440 -0.015482 -0.465210 -0.881098 -0.085122 99 96 93
0.186277 1.225166 0.201117 -0.465210 -0.881098 -0.085122 99 96 93
-0.359431 1.498199 0.220400 -0.465210 -0.881098 -0.085122 99 96 93
-0.351115 1.529325 -0.010269 -0.465210 -0.881098 -0.085122 99 96 93
-3.072221 -0.695196 0.003897 0.872859 0.466552 0.142988 99 96 93
-3.100329 -0.713766 0.236072 0.872859 0.466552 0.142988 102 101 100
-2.933067 -1.026691 0.236072 0.872859 0.466552 0.142988 99 96 93
-2.904959 -1.008121 0.003897 0.872859 0.466552 0.142988 99 96 93
-3.175220 0.350574 0.003897 0.988931 -0.097401 0.111933 99 96 93
-3.203328 0.332004 0.236072 0.988931 -0.097401 0.111933 102 101 100
-3.238107 -0.021110 0.236072 0.988931 -0.097401 0.111933 102 101 100
-3.209999 -0.002539 0.003897 0.988931 -0.097401 0.111933 99 96 93
0.823172 0.939608 -0.013637 -0.405223 -0.914115 0.013726 102 101 100
0.786514 0.968015 0.210310 -0.405223 -0.914115 0.013726 102 101 100
0.186277 1.225166 0.201117 -0.405223 -0.914115 0.013726 92 91 90
0.211694 1.219440 -0.015482 -0.405223 -0.914115 0.013726 92 91 90
-2.679863 1.277323 0.003897 0.772302 -0.633812 0.042802 99 96 93
-2.707971 1.258753 0.236072 0.772302 -0.633812 0.042802 102 101 100
-2.933067 0.984472 0.236072 0.772302 -0.633812 0.042802 102 101 100
-2.904959 1.003042 0.003897 0.772302 -0.633812 0.042802 99 96 93
-2.904959 -1.008121 0.003897 0.765083 0.627888 0.142845 99 96 93
-2.933067 -1.026691 0.236072 0.765083 0.627888 0.142845 98 95 92
-2.707971 -1.300972 0.236072 0.765083 0.627888 0.142845 99 96 93
-2.679863 -1.282402 0.003897 0.765083 0.627888 0.142845 99 96 93
0.463237 0.230771 0.000000 -0.068056 -0.980877 -0.182342 99 96 93
0.827206 0.160415 0.000000 -0.068056 -0.980877 -0.182342 99 96 93
0.829318 0.148879 0.303890 -0.068056 -0.980877 -0.182342 102 101 100
-0.663944 0.220172 0.235091 -0.068056 -0.980877 -0.182342 99 96 93
1.439943 0.325714 0.000000 -0.997559 -0.024469 -0.065400 99 96 93
1.424791 0.315115 0.235091 -0.997559 -0.024469 -0.065400 99 96 93
1.420796 0.477973 0.235091 -0.997559 -0.024469 -0.065400 99 96 93
1.435948 0.488571 0.000000 -0.997559 -0.024469 -0.065400 99 96 93
1.433482 -0.239344 0.000000 0.000000 -0.998985 -0.045039 99 96 93
1.418329 -0.249943 0.235091 0.000000 -0.998985 -0.045039 99 96 93
1.271990 -0.249943 0.235091 0.000000 -0.998985 -0.045039 99 96 93
1.287143 -0.239344 0.000000 0.000000 -0.998985 -0.045039 99 96 93
1.440489 0.230771 0.000000 0.000000 0.998985 0.045039 99 96 93
1.277632 0.230771 0.000000 0.000000 0.998985 0.045039 99 96 93
1.262479 0.220172 0.235091 0.000000 0.998985 0.045039 99 96 93
1.425336 0.220172 0.235091 0.000000 0.998985 0.045039 90 88 86
1.109133 -0.249943 0.235091 0.000000 -0.998985 -0.045039 99 96 93
1.124286 -0.239344 0.000000 0.000000 -0.998985 -0.045039 99 96 93
0.637114 -0.239344 0.000000 0.000000 -0.998985 -0.045039 99 96 93
0.621962 -0.249943 0.235091 0.000000 -0.998985 -0.045039 102 101 100
0.491649 -0.249943 0.235091 0.000000 -0.998985 -0.045039 102 101 97
0.506801 -0.239344 0.000000 0.000000 -0.998985 -0.045039 99 96 93
1.124286 0.230771 0.000000 0.000000 0.998985 0.045039 99 96 93
0.961429 0.230771 0.000000 0.000000 0.998985 0.045039 99 96 93
0.946276 0.220172 0.235091 0.000000 0.998985 0.045039 99 96 93
1.109133 0.220172 0.235091 0.000000 0.998985 0.045039 99 96 93
0.478872 -0.248935 0.000000 -0.076441 0.984461 -0.158095 84 82 81
-0.681198 -0.249943 0.235091 -0.076441 0.984461 -0.158095 92 91 90
0.837496 -0.172287 0.303890 -0.076441 0.984461 -0.158095 102 101 100
0.830146 -0.170343 0.000000 -0.076441 0.984461 -0.158095 99 96 93
0.598700 0.230771 0.000000 0.000000 0.998985 0.045039 99 96 93
0.463237 0.230771 0.000000 0.000000 0.998985 0.045039 99 96 93
-0.663944 0.220172 0.235091 0.000000 0.998985 0.045039 102 101 100
0.583547 0.220172 0.235091 0.000000 0.998985 0.045039 102 101 100
0.837496 -0.172287 0.303890 0.045637 -0.000523 -0.998958 99 96 93
-0.681198 -0.249943 0.235091 0.045637 -0.000523 -0.998958 99 96 93
-0.663944 0.220172 0.235091 0.045637 -0.000523 -0.998958 99 96 93
0.829318 0.148879 0.303890 0.045637 -0.000523 -0.998958 102 101 100
1.435948 0.488571 0.000000 -0.997930 0.000083 -0.064317 99 96 93
1.420796 0.477973 0.235091 -0.997930 0.000083 -0.064317 99 96 93
1.420810 0.650131 0.235091 -0.997930 0.000083 -0.064317 99 96 93
1.435963 0.660730 0.000000 -0.997930 0.000083 -0.064317 99 96 93
0.478872 -0.248935 0.000000 0.000000 0.000000 1.000000 99 96 93
0.827206 0.160415 0.000000 0.000000 0.000000 1.000000 99 96 93
0.463237 0.230771 0.000000 0.000000 0.000000 1.000000 99 96 93
0.830146 -0.170343 0.000000 0.000000 0.000000 1.000000 99 96 93
0.828369 -0.008380 0.000000 0.000000 0.000000 1.000000 99 96 93
1.440489 0.230771 0.000000 -0.997896 -0.005733 -0.064577 99 96 93
1.425336 0.220172 0.235091 -0.997896 -0.005733 -0.064577 99 96 93
1.424791 0.315115 0.235091 -0.997896 -0.005733 -0.064577 99 96 93
1.439943 0.325714 0.000000 -0.997896 -0.005733 -0.064577 99 96 93
1.431237 -0.325714 0.000000 -0.997668 0.025930 -0.063135 99 96 93
1.416085 -0.336313 0.235091 -0.997668 0.025930 -0.063135 99 96 93
1.418329 -0.249943 0.235091 -0.997668 0.025930 -0.063135 99 96 93
1.433482 -0.239344 0.000000 -0.997668 0.025930 -0.063135 99 96 93
0.621962 -0.249943 0.235091 0.000000 -0.998985 -0.045039 99 96 93
0.506801 -0.239344 0.000000 0.007987 -0.999957 -0.004719 102 101 100
0.491649 -0.249943 0.235091 0.007987 -0.999957 -0.004719 102 101 100
-0.681198 -0.249943 0.235091 0.007987 -0.999957 -0.004719 133 132 132
0.478872 -0.248935 0.000000 0.007987 -0.999957 -0.004719 102 101 100
0.756201 -0.934172 0.011130 -0.420967 0.907043 -0.007764 94 93 92
1.419512 -0.624407 0.234917 -0.420967 0.907043 -0.007764 99 96 93
1.440902 -0.616472 0.002164 -0.420967 0.907043 -0.007764 99 96 93
1.431751 -0.451767 0.000000 -0.998040 -0.009471 -0.061857 99 96 93
1.419512 -0.624407 0.234917 -0.998040 -0.009471 -0.061857 99 96 93
1.416085 -0.336313 0.235091 -0.998040 -0.009471 -0.061857 99 96 93
1.431237 -0.325714 0.000000 -0.998040 -0.009471 -0.061857 99 96 93
1.433996 -0.614624 0.000000 -0.997975 -0.013756 -0.062103 99 96 93
1.419512 -0.624407 0.234917 -0.997975 -0.013756 -0.062103 99 96 93
1.431751 -0.451767 0.000000 -0.997975 -0.013756 -0.062103 99 96 93
0.837496 -0.172287 0.303890 -0.999658 -0.025456 0.005982 99 96 93
0.829318 0.148879 0.303890 -0.999658 -0.025456 0.005982 102 101 100
0.827206 0.160415 0.000000 -0.999658 -0.025456 0.005982 99 96 93
0.830146 -0.170343 0.000000 -0.999670 -0.008885 0.024124 99 96 93
0.837496 -0.172287 0.303890 -0.999670 -0.008885 0.024124 99 96 93
0.827206 0.160415 0.000000 -0.999670 -0.008885 0.024124 99 96 93
1.271990 -0.249943 0.235091 0.000000 0.000000 -1.000000 99 96 93
1.418329 -0.249943 0.235091 0.000000 0.000000 -1.000000 99 96 93
1.416085 -0.336313 0.235091 0.000000 0.000000 -1.000000 99 96 93
1.419512 -0.624407 0.234917 -0.000131 0.000602 -1.000000 99 96 93
0.208779 -1.197303 0.234731 -0.000131 0.000602 -1.000000 99 96 93
1.416085 -0.336313 0.235091 -0.000131 0.000602 -1.000000 99 96 93
0.186277 1.225166 0.201117 -0.108631 -0.287583 -0.951575 99 96 93
0.786514 0.968015 0.210310 -0.108631 -0.287583 -0.951575 99 96 93
1.412191 0.654106 0.233753 -0.108631 -0.287583 -0.951575 99 96 93
0.208779 -1.197303 0.234731 0.000136 0.000227 -1.000000 99 96 93
1.271990 -0.249943 0.235091 0.000136 0.000227 -1.000000 99 96 93
1.416085 -0.336313 0.235091 0.000136 0.000227 -1.000000 99 96 93
1.412191 0.654106 0.233753 0.153408 -0.000013 -0.988163 99 96 93
1.420810 0.650131 0.235091 0.153408 -0.000013 -0.988163 99 96 93
1.420796 0.477973 0.235091 0.153408 -0.000013 -0.988163 99 97 94
0.208779 -1.197303 0.234731 0.000000 0.000380 -1.000000 99 96 93
1.109133 -0.249943 0.235091 0.000000 0.000380 -1.000000 99 96 93
1.271990 -0.249943 0.235091 0.000000 0.000380 -1.000000 99 96 93
0.186277 1.225166 0.201117 0.023613 -0.006441 -0.999700 99 96 93
1.412191 0.654106 0.233753 0.023613 -0.006441 -0.999700 99 96 93
1.420796 0.477973 0.235091 0.023613 -0.006441 -0.999700 99 97 94
0.621962 -0.249943 0.235091 0.000000 0.000380 -1.000000 99 96 93
0.186277 1.225166 0.201117 0.027924 0.000685 -0.999610 99 96 93
1.420796 0.477973 0.235091 0.027924 0.000685 -0.999610 99 97 94
1.424791 0.315115 0.235091 0.027924 0.000685 -0.999610 102 101 100
0.208779 -1.197303 0.234731 0.031985 -0.013571 -0.999396 99 96 93
0.186277 1.225166 0.201117 0.031985 -0.013571 -0.999396 99 96 93
0.621962 -0.249943 0.235091 0.031985 -0.013571 -0.999396 99 96 93
-0.681198 -0.249943 0.235091 0.000000 0.000000 0.000000 99 96 93
0.491649 -0.249943 0.235091 0.000000 0.000000 0.000000 99 96 93
0.621962 -0.249943 0.235091 0.000000 0.000000 0.000000 99 96 93
1.109133 0.220172 0.235091 0.000000 0.000000 0.000000 102 101 100
0.946276 0.220172 0.235091 0.000000 0.000000 0.000000 102 101 100
0.583547 0.220172 0.235091 0.000000 0.000000 0.000000 101 98 96
0.186277 1.225166 0.201117 0.000000 0.023025 0.999735 99 96 93
-0.681198 -0.249943 0.235091 0.000000 0.023025 0.999735 99 96 93
0.621962 -0.249943 0.235091 0.000000 0.023025 0.999735 99 96 93
1.425336 0.220172 0.235091 0.000000 0.000000 0.000000 102 101 100
1.262479 0.220172 0.235091 0.000000 0.000000 0.000000 102 101 100
0.186277 1.225166 0.201117 0.027537 0.000158 -0.999621 99 96 93
1.424791 0.315115 0.235091 0.027537 0.000158 -0.999621 102 101 100
1.425336 0.220172 0.235091 0.027537 0.000158 -0.999621 102 101 100
0.186277 1.225166 0.201117 0.000000 -0.033786 -0.999429 99 96 93
1.425336 0.220172 0.235091 0.000000 -0.033786 -0.999429 102 101 100
1.109133 0.220172 0.235091 0.000000 -0.033786 -0.999429 102 101 100
0.583547 0.220172 0.235091 0.000000 -0.033786 -0.999429 101 98 96
-0.663944 0.220172 0.235091 0.000000 -0.033786 -0.999429 99 96 93
0.186277 1.225166 0.201117 0.041735 -0.001532 0.999128 99 96 93
-0.663944 0.220172 0.235091 0.041735 -0.001532 0.999128 99 96 93
-0.681198 -0.249943 0.235091 0.041735 -0.001532 0.999128 99 96 93
1.412191 0.654106 0.233753 -0.386788 -0.919847 -0.065402 99 96 93
1.431748 0.662551 -0.004265 -0.386788 -0.919847 -0.065402 99 96 93
1.435963 0.660730 0.000000 -0.386788 -0.919847 -0.065402 99 96 93
1.420810 0.650131 0.235091 -0.386788 -0.919847 -0.065402 99 96 93
-0.687360 1.684074 -0.011061 -0.242109 -0.964392 -0.106447 99 96 93
-1.074997 1.754111 0.236072 -0.242109 -0.964392 -0.106447 99 96 93
-1.046889 1.772682 0.003897 -0.242109 -0.964392 -0.106447 99 96 93
-1.753113 -1.777760 0.003897 0.097610 0.991048 0.091085 99 96 93
-1.781221 -1.796330 0.236072 0.097610 0.991048 0.091085 99 96 93
-1.428107 -1.831109 0.236072 0.097610 0.991048 0.091085 99 96 93
-1.399999 -1.812539 0.003897 0.097610 0.991048 0.091085 99 96 93
-0.707342 -1.674760 0.003897 -0.437857 0.898980 -0.010752 99 96 93
-0.751171 -1.693331 0.236072 -0.437857 0.898980 -0.010752 92 91 90
-0.271661 -1.459820 0.232759 -0.437857 0.898980 -0.010752 102 101 100
-0.227832 -1.441249 0.000584 -0.437857 0.898980 -0.010752 99 96 93
-2.904959 1.003042 0.003897 0.879825 -0.470277 0.068900 99 96 93
-2.933067 0.984472 0.236072 0.879825 -0.470277 0.068900 102 101 100
-3.100329 0.671547 0.236072 0.879825 -0.470277 0.068900 102 101 100
-3.072221 0.690117 0.003897 0.879825 -0.470277 0.068900 99 96 93
-2.092657 1.669682 0.003897 0.471354 -0.881841 -0.013470 99 96 93
-2.120764 1.651111 0.236072 0.471354 -0.881841 -0.013470 104 101 93
-2.433690 1.483850 0.236072 0.471354 -0.881841 -0.013470 99 97 94
-2.405582 1.502420 0.003897 0.471354 -0.881841 -0.013470 99 96 93
-1.428108 1.788890 0.236072 -0.097609 -0.991048 -0.091085 99 96 93
-1.400000 1.807460 0.003897 -0.097609 -0.991048 -0.091085 99 96 93
-1.046889 1.772682 0.003897 -0.097609 -0.991048 -0.091085 99 96 93
-1.074997 1.754111 0.236072 -0.097609 -0.991048 -0.091085 99 96 93
-3.072221 0.690117 0.003897 0.952861 -0.289047 0.092237 99 96 93
-3.100329 0.671547 0.236072 0.952861 -0.289047 0.092237 102 101 100
-3.203328 0.332004 0.236072 0.952861 -0.289047 0.092237 102 101 100
-3.175220 0.350574 0.003897 0.952861 -0.289047 0.092237 99 96 93
-2.405581 -1.507499 0.003897 0.467605 0.874827 0.126583 99 96 93
-2.433689 -1.526069 0.236072 0.467605 0.874827 0.126583 101 100 99
-2.120764 -1.693331 0.236072 0.467605 0.874827 0.126583 102 101 100
-2.092656 -1.674761 0.003897 0.467605 0.874827 0.126583 99 96 93
-2.405582 1.502420 0.003897 0.634322 -0.772924 0.014971 99 96 93
-2.433690 1.483850 0.236072 0.634322 -0.772924 0.014971 99 97 94
-2.707971 1.258753 0.236072 0.634322 -0.772924 0.014971 102 101 100
-2.679863 1.277323 0.003897 0.634322 -0.772924 0.014971 99 96 93
-1.400000 1.807460 0.003897 0.097793 -0.992910 -0.067578 99 96 93
-1.428108 1.788890 0.236072 0.097793 -0.992910 -0.067578 99 96 93
-1.781221 1.754111 0.236072 0.097793 -0.992910 -0.067578 99 96 93
-1.753113 1.772681 0.003897 0.097793 -0.992910 -0.067578 99 96 93
-1.046886 -1.777760 0.003897 -0.296429 0.954570 0.030428 99 96 93
-1.074994 -1.796330 0.236072 -0.296429 0.954570 0.030428 92 91 90
-0.751171 -1.693331 0.236072 -0.296429 0.954570 0.030428 92 91 90
-0.707342 -1.674760 0.003897 -0.296429 0.954570 0.030428 99 96 93
-2.092656 -1.674761 0.003897 0.288491 0.951028 0.110993 99 96 93
-2.120764 -1.693331 0.236072 0.288491 0.951028 0.110993 102 101 100
-1.781221 -1.796330 0.236072 0.288491 0.951028 0.110993 99 96 93
-1.753113 -1.777760 0.003897 0.288491 0.951028 0.110993 99 96 93
-0.351115 1.529325 -0.010269 -0.418455 -0.898964 -0.129453 99 96 93
-0.359431 1.498199 0.220400 -0.418455 -0.898964 -0.129453 99 96 93
-0.715737 1.665685 0.221438 -0.418455 -0.898964 -0.129453 99 96 93
-0.687630 1.684255 -0.010736 -0.418455 -0.898964 -0.129453 99 96 93
-0.715468 1.665504 0.221114 -0.242109 -0.964392 -0.106447 99 96 93
-1.781221 1.754111 0.236072 0.000000 -0.000000 -1.000000 99 96 93
-2.433690 1.483850 0.236072 0.000000 -0.000000 -1.000000 99 96 93
-2.120764 1.651111 0.236072 0.000000 -0.000000 -1.000000 99 96 93
-2.933067 0.984472 0.236072 0.000000 0.000000 -1.000000 99 96 93
-2.707971 1.258753 0.236072 0.000000 0.000000 -1.000000 99 96 93
-3.203328 0.332004 0.236072 0.000000 0.000000 -1.000000 99 96 93
-3.100329 0.671547 0.236072 0.000000 0.000000 -1.000000 95 93 90
-3.203328 -0.374223 0.236072 0.000000 -0.000000 -1.000000 99 96 93
-3.238107 -0.021110 0.236072 0.000000 -0.000000 -1.000000 99 96 93
-2.933067 -1.026691 0.236072 0.000000 0.000000 -1.000000 99 96 93
-3.100329 -0.713766 0.236072 0.000000 0.000000 -1.000000 98 95 92
-2.433689 -1.526069 0.236072 0.000000 0.000000 -1.000000 99 96 93
-2.707971 -1.300972 0.236072 0.000000 0.000000 -1.000000 99 96 93
-1.781221 -1.796330 0.236072 0.000000 0.000000 -1.000000 99 96 93
-2.120764 -1.693331 0.236072 0.000000 0.000000 -1.000000 99 96 93
-1.074994 -1.796330 0.236072 0.000000 0.000000 -1.000000 99 96 93
-1.428107 -1.831109 0.236072 0.000000 0.000000 -1.000000 99 96 93
-0.271661 -1.459820 0.232759 0.013000 -0.040871 -0.999080 168 168 168
-0.751171 -1.693331 0.236072 0.013000 -0.040871 -0.999080 161 161 161
-1.074994 -1.796330 0.236072 0.013000 -0.040871 -0.999080 99 96 93
0.186277 1.225166 0.201117 0.011626 -0.013766 -0.999838 104 103 102
0.208779 -1.197303 0.234731 0.011626 -0.013766 -0.999838 124 123 123
-0.271661 -1.459820 0.232759 0.011626 -0.013766 -0.999838 168 168 168
-0.715737 1.665685 0.221438 0.323272 0.691728 -0.645761 104 101 91
-0.359431 1.498199 0.220400 0.323272 0.691728 -0.645761 104 102 94
0.186277 1.225166 0.201117 0.323272 0.691728 -0.645761 104 103 102
-1.428108 1.788890 0.236072 0.026184 0.265856 -0.963657 99 96 93
-1.074997 1.754111 0.236072 0.026184 0.265856 -0.963657 102 101 98
-0.715737 1.665685 0.221438 0.026184 0.265856 -0.963657 104 101 91
-1.428108 1.788890 0.236072 -0.000000 0.000000 -1.000000 99 96 93
-0.271661 -1.459820 0.232759 0.000000 -0.009845 -0.999952 168 168 168
-1.074994 -1.796330 0.236072 0.000000 -0.009845 -0.999952 99 96 93
-1.781221 -1.796330 0.236072 0.000000 -0.009845 -0.999952 99 96 93
-0.715737 1.665685 0.221438 -0.026100 -0.007329 -0.999632 104 101 91
0.186277 1.225166 0.201117 -0.026100 -0.007329 -0.999632 104 103 102
-0.271661 -1.459820 0.232759 -0.026100 -0.007329 -0.999632 168 168 168
-1.428108 1.788890 0.236072 -0.013070 0.043085 -0.998986 99 96 93
-0.715737 1.665685 0.221438 -0.013070 0.043085 -0.998986 104 101 91
-2.433690 1.483850 0.236072 -0.013070 0.043085 -0.998986 99 96 93
-0.271661 -1.459820 0.232759 -0.001646 -0.002463 -0.999996 168 168 168
-1.781221 -1.796330 0.236072 -0.001646 -0.002463 -0.999996 99 96 93
-2.933067 -1.026691 0.236072 -0.001646 -0.002463 -0.999996 99 96 93
-0.715737 1.665685 0.221438 -0.008014 -0.004760 -0.999956 104 101 91
-0.271661 -1.459820 0.232759 -0.008014 -0.004760 -0.999956 168 168 168
-2.433690 1.483850 0.236072 -0.008014 -0.004760 -0.999956 99 96 93
-0.271661 -1.459820 0.232759 -0.001206 0.000240 -0.999999 168 168 168
-2.933067 -1.026691 0.236072 -0.001206 0.000240 -0.999999 99 96 93
-2.433690 1.483850 0.236072 -0.001206 0.000240 -0.999999 99 96 93
-2.120764 1.651111 0.236072 0.000237 -0.000444 1.000000 99 96 93
-2.433690 1.483850 0.236072 0.000237 -0.000444 1.000000 99 96 93
-0.663944 0.220172 0.235091 0.000237 -0.000444 1.000000 99 96 93
-0.663944 0.220172 0.235091 0.000059 -0.000597 1.000000 99 96 93
-1.428108 1.788890 0.236072 0.000059 -0.000597 1.000000 99 96 93
-1.781221 1.754111 0.236072 0.000059 -0.000597 1.000000 99 96 93
-0.663944 0.220172 0.235091 0.043397 0.010990 0.998998 99 96 93
-0.715737 1.665685 0.221438 0.043397 0.010990 0.998998 99 96 93
-1.074997 1.754111 0.236072 0.043397 0.010990 0.998998 99 96 93
-0.681198 -0.249943 0.235091 0.000384 -0.000024 1.000000 99 96 93
-0.663944 0.220172 0.235091 0.000384 -0.000024 1.000000 99 96 93
-3.203328 0.332004 0.236072 0.000384 -0.000024 1.000000 99 96 93
-3.238107 -0.021110 0.236072 0.000384 -0.000024 1.000000 99 96 93
-0.663944 0.220172 0.235091 0.007479 0.009712 0.999925 99 96 93
-0.359431 1.498199 0.220400 0.007479 0.009712 0.999925 99 96 93
-0.715737 1.665685 0.221438 0.007479 0.009712 0.999925 99 96 93
-0.663944 0.220172 0.235091 0.000159 -0.000524 1.000000 99 96 93
-1.781221 1.754111 0.236072 0.000159 -0.000524 1.000000 99 96 93
-2.120764 1.651111 0.236072 0.000159 -0.000524 1.000000 99 96 93
-0.663944 0.220172 0.235091 0.000297 -0.000361 1.000000 99 96 93
-2.433690 1.483850 0.236072 0.000297 -0.000361 1.000000 99 96 93
-2.707971 1.258753 0.236072 0.000297 -0.000361 1.000000 99 96 93
-0.663944 0.220172 0.235091 0.000367 -0.000196 1.000000 99 96 93
-2.933067 0.984472 0.236072 0.000367 -0.000196 1.000000 99 96 93
-3.100329 0.671547 0.236072 0.000367 -0.000196 1.000000 95 93 90
0.208779 -1.197303 0.234731 -0.000986 -0.001305 0.999999 99 96 93
0.491649 -0.249943 0.235091 -0.000986 -0.001305 0.999999 99 96 93
-0.681198 -0.249943 0.235091 -0.000986 -0.001305 0.999999 99 96 93
-0.271661 -1.459820 0.232759 -0.000986 -0.001305 0.999999 99 96 93
-0.681198 -0.249943 0.235091 0.000383 0.000116 1.000000 99 96 93
-3.203328 -0.374223 0.236072 0.000383 0.000116 1.000000 99 96 93
-3.100329 -0.713766 0.236072 0.000383 0.000116 1.000000 98 95 92
-0.681198 -0.249943 0.235091 0.000340 0.000279 1.000000 99 96 93
-2.933067 -1.026691 0.236072 0.000340 0.000279 1.000000 99 96 93
-2.707971 -1.300972 0.236072 0.000340 0.000279 1.000000 99 96 93
-0.681198 -0.249943 0.235091 0.000237 0.000443 1.000000 99 96 93
-2.433689 -1.526069 0.236072 0.000237 0.000443 1.000000 99 96 93
-2.120764 -1.693331 0.236072 0.000237 0.000443 1.000000 99 96 93
-0.681198 -0.249943 0.235091 0.000058 0.000593 1.000000 99 96 93
-1.781221 -1.796330 0.236072 0.000058 0.000593 1.000000 99 96 93
-1.428107 -1.831109 0.236072 0.000058 0.000593 1.000000 99 96 93
-0.681198 -0.249943 0.235091 -0.000220 0.000691 1.000000 99 96 93
-1.074994 -1.796330 0.236072 -0.000220 0.000691 1.000000 99 96 93
-0.751171 -1.693331 0.236072 -0.000220 0.000691 1.000000 99 96 93
0.208779 -1.197303 0.234731 0.000027 -0.000406 1.000000 99 96 93
1.419512 -0.624407 0.234917 0.000027 -0.000406 1.000000 99 96 93
1.109133 -0.249943 0.235091 0.000027 -0.000406 1.000000 99 96 93
0.621962 -0.249943 0.235091 0.000027 -0.000406 1.000000 99 96 93
1.271990 -0.249943 0.235091 -0.000364 -0.000607 1.000000 99 96 93
1.419512 -0.624407 0.234917 -0.000364 -0.000607 1.000000 99 96 93
1.416085 -0.336313 0.235091 -0.000364 -0.000607 1.000000 99 96 93
1.416085 -0.336313 0.235091 -0.000000 0.000000 1.000000 99 96 93
1.418329 -0.249943 0.235091 -0.000000 0.000000 1.000000 99 96 93
1.271990 -0.249943 0.235091 -0.000000 0.000000 1.000000 99 96 93
0.946276 0.220172 0.235091 -0.014146 0.030096 0.999447 100 97 94
1.412191 0.654106 0.233753 -0.014146 0.030096 0.999447 99 96 93
0.786514 0.968015 0.210310 -0.014146 0.030096 0.999447 99 96 93
0.583547 0.220172 0.235091 -0.014146 0.030096 0.999447 101 98 96
0.208779 -1.197303 0.234731 0.000000 -0.000380 1.000000 99 96 93
0.621962 -0.249943 0.235091 0.000000 -0.000380 1.000000 99 96 93
0.491649 -0.249943 0.235091 0.000000 -0.000380 1.000000 99 96 93
1.412191 0.654106 0.233753 0.000000 0.003084 0.999995 99 96 93
0.946276 0.220172 0.235091 0.000000 0.003084 0.999995 100 97 94
1.109133 0.220172 0.235091 0.000000 0.003084 0.999995 99 96 93
1.419512 -0.624407 0.234917 0.000000 -0.000464 1.000000 99 96 93
1.271990 -0.249943 0.235091 0.000000 -0.000464 1.000000 99 96 93
1.109133 -0.249943 0.235091 0.000000 -0.000464 1.000000 99 96 93
1.424791 0.315115 0.235091 0.000000 -0.000000 1.000000 99 96 93
1.262479 0.220172 0.235091 0.000000 -0.000000 1.000000 99 96 94
1.425336 0.220172 0.235091 0.000000 -0.000000 1.000000 99 96 93
1.420796 0.477973 0.235091 0.000000 -0.000000 1.000000 99 96 93
1.109133 0.220172 0.235091 0.000000 -0.000000 1.000000 99 96 93
-0.751171 -1.693331 0.236072 0.006737 0.000353 0.999977 99 96 93
-0.271661 -1.459820 0.232759 0.006737 0.000353 0.999977 99 96 93
-0.681198 -0.249943 0.235091 0.006737 0.000353 0.999977 99 96 93
1.412191 0.654106 0.233753 -0.006040 0.007302 0.999955 99 96 93
1.109133 0.220172 0.235091 -0.006040 0.007302 0.999955 99 96 93
1.420796 0.477973 0.235091 -0.006040 0.007302 0.999955 99 96 93
-0.681198 -0.249943 0.235091 -0.000064 0.000651 1.000000 99 96 93
-1.428107 -1.831109 0.236072 -0.000064 0.000651 1.000000 99 96 93
-1.074994 -1.796330 0.236072 -0.000064 0.000651 1.000000 99 96 93
-0.681198 -0.249943 0.235091 0.000297 0.000362 1.000000 99 96 93
-2.707971 -1.300972 0.236072 0.000297 0.000362 1.000000 99 96 93
-2.433689 -1.526069 0.236072 0.000297 0.000362 1.000000 99 96 93
-0.681198 -0.249943 0.235091 0.000387 0.000038 1.000000 99 96 93
-3.238107 -0.021110 0.236072 0.000387 0.000038 1.000000 99 96 93
-3.203328 -0.374223 0.236072 0.000387 0.000038 1.000000 99 96 93
-0.663944 0.220172 0.235091 0.000339 -0.000278 1.000000 99 96 93
-2.707971 1.258753 0.236072 0.000339 -0.000278 1.000000 99 96 93
-2.933067 0.984472 0.236072 0.000339 -0.000278 1.000000 99 96 93
-0.663944 0.220172 0.235091 -0.000065 -0.000657 1.000000 99 96 93
-1.074997 1.754111 0.236072 -0.000065 -0.000657 1.000000 99 96 93
-1.428108 1.788890 0.236072 -0.000065 -0.000657 1.000000 99 96 93
1.420796 0.477973 0.235091 -0.153408 0.000013 0.988163 99 96 93
1.420810 0.650131 0.235091 -0.153408 0.000013 0.988163 99 96 93
1.412191 0.654106 0.233753 -0.153408 0.000013 0.988163 99 96 93
-0.663944 0.220172 0.235091 0.000381 -0.000116 1.000000 99 96 93
-3.100329 0.671547 0.236072 0.000381 -0.000116 1.000000 95 93 90
-3.203328 0.332004 0.236072 0.000381 -0.000116 1.000000 99 96 93
-0.681198 -0.249943 0.235091 0.000158 0.000522 1.000000 99 96 93
-2.120764 -1.693331 0.236072 0.000158 0.000522 1.000000 99 96 93
-1.781221 -1.796330 0.236072 0.000158 0.000522 1.000000 99 96 93
-3.100329 -0.713766 0.236072 0.000368 0.000197 1.000000 98 95 92
-2.933067 -1.026691 0.236072 0.000368 0.000197 1.000000 99 96 93
-0.681198 -0.249943 0.235091 0.000368 0.000197 1.000000 99 96 93
0.186277 1.225166 0.201117 -0.001003 0.033390 0.999442 99 96 93
0.583547 0.220172 0.235091 -0.001003 0.033390 0.999442 101 98 96
0.786514 0.968015 0.210310 -0.001003 0.033390 0.999442 99 96 93
0.186277 1.225166 0.201117 0.014082 0.021881 0.999661 99 96 93
-0.359431 1.498199 0.220400 0.014082 0.021881 0.999661 99 96 93
-0.663944 0.220172 0.235091 0.014082 0.021881 0.999661 99 96 93
0.583547 0.220172 0.235091 0.014082 0.021881 0.999661 101 98 96
-1.753113 -1.777760 0.003897 -0.000000 -0.000000 1.000000 99 96 93
-2.405581 -1.507499 0.003897 -0.000000 -0.000000 1.000000 99 96 93
-2.092656 -1.674761 0.003897 -0.000000 -0.000000 1.000000 99 96 93
-2.904959 -1.008121 0.003897 0.000000 0.000000 1.000000 99 96 93
-2.679863 -1.282402 0.003897 0.000000 0.000000 1.000000 99 96 93
-3.175220 -0.355652 0.003897 0.000000 0.000000 1.000000 99 96 93
-3.072221 -0.695196 0.003897 0.000000 0.000000 1.000000 99 96 93
-3.175220 0.350574 0.003897 0.000000 -0.000000 1.000000 99 96 93
-3.209999 -0.002539 0.003897 0.000000 -0.000000 1.000000 99 96 93
-2.904959 1.003042 0.003897 0.000000 0.000000 1.000000 99 96 93
-3.072221 0.690117 0.003897 0.000000 0.000000 1.000000 99 96 93
-2.405582 1.502420 0.003897 0.000000 0.000000 1.000000 99 96 93
-2.679863 1.277323 0.003897 0.000000 0.000000 1.000000 99 96 93
-1.753113 1.772681 0.003897 0.000000 0.000000 1.000000 99 96 93
-2.092657 1.669682 0.003897 0.000000 0.000000 1.000000 99 96 93
-1.046889 1.772682 0.003897 -0.000000 0.000000 1.000000 99 96 93
-1.400000 1.807460 0.003897 -0.000000 0.000000 1.000000 75 75 74
-0.351115 1.529325 -0.010269 0.090032 0.200621 0.975523 99 96 93
-0.687360 1.684074 -0.011061 0.090032 0.200621 0.975523 99 96 93
-1.046889 1.772682 0.003897 0.090032 0.200621 0.975523 99 96 93
1.435948 0.488571 0.000000 -0.711252 0.000059 0.702937 99 96 93
1.435963 0.660730 0.000000 -0.711252 0.000059 0.702937 99 96 93
1.431748 0.662551 -0.004265 -0.711252 0.000059 0.702937 99 96 93
0.211694 1.219440 -0.015482 0.039593 0.055123 0.997694 99 96 93
-0.351115 1.529325 -0.010269 0.039593 0.055123 0.997694 99 96 93
-1.046889 1.772682 0.003897 0.039593 0.055123 0.997694 99 96 93
1.435948 0.488571 0.000000 -0.004287 0.024402 0.999693 99 96 93
1.431748 0.662551 -0.004265 -0.004287 0.024402 0.999693 99 96 93
0.823172 0.939608 -0.013637 -0.004287 0.024402 0.999693 99 96 93
0.823172 0.939608 -0.013637 0.308780 0.679125 0.665917 99 96 93
0.211694 1.219440 -0.015482 0.308780 0.679125 0.665917 99 96 93
-1.046889 1.772682 0.003897 0.308780 0.679125 0.665917 99 96 93
-1.399999 -1.812539 0.003897 0.000000 0.000000 1.000000 99 96 93
-1.046886 -1.777760 0.003897 0.000000 0.000000 1.000000 99 96 93
-1.046886 -1.777760 0.003897 -0.011405 0.037599 0.999228 99 96 93
-0.707342 -1.674760 0.003897 -0.011405 0.037599 0.999228 99 96 93
-0.227832 -1.441249 0.000584 -0.011405 0.037599 0.999228 99 96 93
0.756201 -0.934172 0.011130 -0.174423 0.401289 0.899191 99 96 93
1.440902 -0.616472 0.002164 -0.174423 0.401289 0.899191 99 96 93
1.433996 -0.614624 0.000000 -0.174423 0.401289 0.899191 99 96 93
-1.046886 -1.777760 0.003897 0.026106 -0.053714 0.998215 99 96 93
-0.227832 -1.441249 0.000584 0.026106 -0.053714 0.998215 99 96 93
0.236887 -1.178733 0.002556 0.026106 -0.053714 0.998215 99 96 93
0.236887 -1.178733 0.002556 -0.426200 0.904515 0.014324 99 96 93
0.756201 -0.934172 0.011130 -0.426200 0.904515 0.014324 99 96 93
1.433996 -0.614624 0.000000 -0.426200 0.904515 0.014324 99 96 93
1.431237 -0.325714 0.000000 -0.000000 0.000000 1.000000 99 96 93
1.433482 -0.239344 0.000000 -0.000000 0.000000 1.000000 99 96 93
1.287143 -0.239344 0.000000 -0.000000 0.000000 1.000000 99 96 93
0.236887 -1.178733 0.002556 0.002121 0.000029 0.999998 99 96 93
1.433996 -0.614624 0.000000 0.002121 0.000029 0.999998 99 96 93
1.431751 -0.451767 0.000000 0.002121 0.000029 0.999998 99 96 93
1.431751 -0.451767 0.000000 0.000000 0.000000 1.000000 99 96 93
1.287143 -0.239344 0.000000 0.000000 0.000000 0.000000 99 96 93
1.124286 -0.239344 0.000000 0.000000 0.000000 0.000000 99 96 93
0.637114 -0.239344 0.000000 0.000000 0.000000 0.000000 99 96 93
0.637114 -0.239344 0.000000 0.000000 0.000000 1.000000 99 96 93
0.506801 -0.239344 0.000000 0.000000 0.000000 1.000000 99 96 93
0.598700 0.230771 0.000000 0.000000 0.000000 0.000000 99 96 93
0.961429 0.230771 0.000000 0.000000 0.000000 0.000000 99 96 93
1.124286 0.230771 0.000000 0.000000 0.000000 0.000000 99 96 93
0.463237 0.230771 0.000000 0.000000 0.000000 0.000000 99 96 93
1.277632 0.230771 0.000000 0.000000 0.000000 0.000000 99 96 93
1.440489 0.230771 0.000000 0.000000 0.000000 0.000000 99 96 93
1.431751 -0.451767 0.000000 0.144914 0.680787 0.718004 99 96 93
0.478872 -0.248935 0.000000 0.144914 0.680787 0.718004 99 96 93
-0.681198 -0.249943 0.235091 0.144914 0.680787 0.718004 99 96 93
0.236887 -1.178733 0.002556 0.094886 -0.152499 0.983738 99 96 93
1.431751 -0.451767 0.000000 0.094886 -0.152499 0.983738 99 96 93
-0.681198 -0.249943 0.235091 0.094886 -0.152499 0.983738 99 96 93
1.440489 0.230771 0.000000 0.000000 0.000000 1.000000 99 96 93
1.439943 0.325714 0.000000 0.000000 0.000000 1.000000 99 96 93
-1.046886 -1.777760 0.003897 0.079264 -0.167670 0.982652 99 96 93
0.236887 -1.178733 0.002556 0.079264 -0.167670 0.982652 99 96 93
-0.681198 -0.249943 0.235091 0.079264 -0.167670 0.982652 99 96 93
-0.663944 0.220172 0.235091 0.089235 -0.917978 0.386463 99 96 93
0.463237 0.230771 0.000000 0.089235 -0.917978 0.386463 99 96 93
1.439943 0.325714 0.000000 0.089235 -0.917978 0.386463 99 96 93
-1.046886 -1.777760 0.003897 -0.598171 0.021954 0.801068 99 96 93
-0.681198 -0.249943 0.235091 -0.598171 0.021954 0.801068 99 96 93
-0.663944 0.220172 0.235091 -0.598171 0.021954 0.801068 99 96 93
0.823172 0.939608 -0.013637 0.002894 -0.014549 0.999890 99 96 93
-1.046889 1.772682 0.003897 0.002894 -0.014549 0.999890 99 96 93
-2.405582 1.502420 0.003897 0.002894 -0.014549 0.999890 99 96 93
1.439943 0.325714 0.000000 -0.022658 -0.000556 0.999743 99 96 93
1.435948 0.488571 0.000000 -0.022658 -0.000556 0.999743 99 96 93
0.823172 0.939608 -0.013637 -0.022658 -0.000556 0.999743 99 96 93
-1.046886 -1.777760 0.003897 -0.044110 -0.106491 0.993335 99 96 93
-0.663944 0.220172 0.235091 -0.044110 -0.106491 0.993335 99 96 93
-2.904959 -1.008121 0.003897 -0.044110 -0.106491 0.993335 99 96 93
-0.663944 0.220172 0.235091 0.103901 0.126303 0.986535 99 96 93
1.439943 0.325714 0.000000 0.103901 0.126303 0.986535 99 96 93
0.823172 0.939608 -0.013637 0.103901 0.126303 0.986535 99 96 93
-0.663944 0.220172 0.235091 -0.114990 0.022873 0.993103 99 96 93
-2.405582 1.502420 0.003897 -0.114990 0.022873 0.993103 99 96 93
-2.904959 -1.008121 0.003897 -0.114990 0.022873 0.993103 99 96 93
-0.663944 0.220172 0.235091 0.046846 0.238524 0.970006 99 96 93
0.823172 0.939608 -0.013637 0.046846 0.238524 0.970006 99 96 93
-2.405582 1.502420 0.003897 0.046846 0.238524 0.970006 99 96 93
-0.681198 -0.249943 0.235091 0.204234 -0.007496 0.978894 99 96 93
0.463237 0.230771 0.000000 0.204234 -0.007496 0.978894 99 96 93
-0.663944 0.220172 0.235091 0.204234 -0.007496 0.978894 99 96 93
-0.681198 -0.249943 0.235091 0.198605 0.006473 0.980058 99 96 93
0.478872 -0.248935 0.000000 0.198605 0.006473 0.980058 99 96 93
0.463237 0.230771 0.000000 0.198605 0.006473 0.980058 99 96 93
0.756201 -0.934172 0.011130 0.426239 -0.904373 -0.020734 99 96 93
0.208779 -1.197303 0.234731 0.426239 -0.904373 -0.020734 102 101 100
0.236887 -1.178733 0.002556 0.426239 -0.904373 -0.020734 99 96 93
1.440902 -0.616472 0.002164 0.427698 -0.903882 0.008491 99 96 93
1.419512 -0.624407 0.234917 0.427698 -0.903882 0.008491 99 96 93
0.208779 -1.197303 0.234731 0.427698 -0.903882 0.008491 102 101 100
0.756201 -0.934172 0.011130 0.420176 -0.906636 -0.038241 99 96 93
1.440902 -0.616472 0.002164 0.420176 -0.906636 -0.038241 99 96 93
0.208779 -1.197303 0.234731 0.420176 -0.906636 -0.038241 102 101 100
0.211694 1.219440 -0.015482 -0.393421 -0.919098 -0.021870 99 96 93
0.786514 0.968015 0.210310 -0.393421 -0.919098 -0.021870 99 96 93
0.186277 1.225166 0.201117 -0.393421 -0.919098 -0.021870 99 96 93
1.431748 0.662551 -0.004265 -0.445346 -0.892752 -0.068266 99 96 93
1.412191 0.654106 0.233753 -0.445346 -0.892752 -0.068266 99 96 93
0.786514 0.968015 0.210310 -0.445346 -0.892752 -0.068266 99 96 93
0.211694 1.219440 -0.015482 -0.410367 -0.895585 0.171830 99 96 93
0.823172 0.939608 -0.013637 -0.410367 -0.895585 0.171830 99 96 93
1.431748 0.662551 -0.004265 -0.410367 -0.895585 0.171830 99 96 93
0.211694 1.219440 -0.015482 -0.415156 -0.908631 0.045120 99 96 93
1.431748 0.662551 -0.004265 -0.415156 -0.908631 0.045120 99 96 93
0.786514 0.968015 0.210310 -0.415156 -0.908631 0.045120 99 96 93
-3.072221 0.690117 0.003897 0.000000 -0.000000 -1.000000 99 96 93
-3.209999 -0.002539 0.003897 0.000000 -0.000000 -1.000000 99 96 93
-3.175220 0.350574 0.003897 0.000000 -0.000000 -1.000000 99 96 93
-3.072221 -0.695196 0.003897 0.000000 0.000000 -1.000000 99 96 93
-3.175220 -0.355652 0.003897 0.000000 0.000000 -1.000000 99 96 93
-2.679863 -1.282402 0.003897 0.000000 0.000000 -1.000000 99 96 93
-2.904959 -1.008121 0.003897 0.000000 0.000000 -1.000000 99 96 93
-2.092656 -1.674761 0.003897 0.000000 0.000000 -1.000000 99 96 93
-2.405581 -1.507499 0.003897 0.000000 0.000000 -1.000000 99 96 93
-1.399999 -1.812539 0.003897 0.000000 0.000000 -1.000000 99 96 93
-1.753113 -1.777760 0.003897 0.000000 0.000000 -1.000000 99 96 93
-0.707342 -1.674760 0.003897 0.000000 0.000000 -1.000000 99 96 93
-1.046886 -1.777760 0.003897 0.000000 0.000000 -1.000000 99 96 93
0.208779 -1.197303 0.234731 -0.435428 0.892472 -0.117885 99 96 93
-0.227832 -1.441249 0.000584 -0.435428 0.892472 -0.117885 99 96 93
-0.707342 -1.674760 0.003897 -0.435428 0.892472 -0.117885 99 96 93
0.211694 1.219440 -0.015482 -0.992579 -0.011338 -0.121071 99 96 93
0.236887 -1.178733 0.002556 -0.992579 -0.011338 -0.121071 99 96 93
0.208779 -1.197303 0.234731 -0.992579 -0.011338 -0.121071 99 96 93
-0.687360 1.684074 -0.011061 -0.405529 -0.882371 -0.238678 99 96 93
-0.351115 1.529325 -0.010269 -0.405529 -0.882371 -0.238678 99 96 93
0.186277 1.225166 0.201117 -0.405529 -0.882371 -0.238678 99 96 93
0.186277 1.225166 0.201117 -0.993160 -0.010839 -0.116256 99 96 93
0.211694 1.219440 -0.015482 -0.993160 -0.010839 -0.116256 99 96 93
0.208779 -1.197303 0.234731 -0.993160 -0.010839 -0.116256 99 96 93
0.208779 -1.197303 0.234731 -0.121612 0.611381 -0.781936 99 96 93
-0.707342 -1.674760 0.003897 -0.121612 0.611381 -0.781936 99 96 93
-1.399999 -1.812539 0.003897 -0.121612 0.611381 -0.781936 99 96 93
-2.904959 1.003042 0.003897 -0.000000 0.000000 -1.000000 99 96 93
-2.679863 1.277323 0.003897 0.000000 0.000000 -1.000000 99 96 93
-2.405582 1.502420 0.003897 0.000000 0.000000 -1.000000 99 96 93
-2.092657 1.669682 0.003897 0.000000 0.000000 -1.000000 99 96 93
-1.753113 1.772681 0.003897 0.000000 0.000000 -1.000000 99 96 93
-1.400000 1.807460 0.003897 -0.000000 0.000000 -1.000000 99 96 93
-1.046889 1.772682 0.003897 -0.000000 0.000000 -1.000000 99 96 93
-1.046889 1.772682 0.003897 0.212145 0.917555 -0.336285 99 96 93
-0.687630 1.684255 -0.010736 0.212145 0.917555 -0.336285 99 96 93
-0.687360 1.684074 -0.011061 0.212145 0.917555 -0.336285 99 96 93
-0.687360 1.684074 -0.011061 0.230352 -0.011362 -0.973041 99 96 93
0.186277 1.225166 0.201117 0.230352 -0.011362 -0.973041 99 96 93
0.208779 -1.197303 0.234731 0.230352 -0.011362 -0.973041 99 96 93
0.208779 -1.197303 0.234731 0.073226 0.176784 -0.981522 99 96 93
-1.399999 -1.812539 0.003897 0.073226 0.176784 -0.981522 99 96 93
-2.679863 -1.282402 0.003897 0.073226 0.176784 -0.981522 99 96 93
-1.753113 1.772681 0.003897 -0.000000 0.166461 -0.986048 99 96 93
-1.046889 1.772682 0.003897 -0.000000 0.166461 -0.986048 99 96 93
-0.687360 1.684074 -0.011061 -0.000000 0.166461 -0.986048 99 96 93
-0.687360 1.684074 -0.011061 0.081260 -0.059597 -0.994910 99 96 93
0.208779 -1.197303 0.234731 0.081260 -0.059597 -0.994910 99 96 93
-2.679863 -1.282402 0.003897 0.081260 -0.059597 -0.994910 99 96 93
-1.753113 1.772681 0.003897 -0.013689 0.004152 -0.999898 99 96 93
-0.687360 1.684074 -0.011061 -0.013689 0.004152 -0.999898 99 96 93
-2.679863 -1.282402 0.003897 -0.013689 0.004152 -0.999898 99 96 93
4 0 1 2 3
4 4 5 6 7
4 8 9 10 11
4 12 13 14 15
4 16 17 18 19
4 20 21 22 23
4 24 25 26 27
4 28 29 30 31
4 32 33 34 35
4 36 37 38 39
4 40 41 42 43
4 44 45 46 47
4 48 49 50 51
4 52 53 54 55
4 56 57 58 59
4 60 61 62 63
4 64 65 66 67
4 68 69 70 71
4 67 66 72 73
4 74 75 76 77
4 78 79 80 81
4 82 83 84 85
4 86 87 88 89
4 90 91 92 93
4 94 95 96 97
3 98 99 100
3 98 101 102
3 98 102 99
4 103 104 105 106
4 107 108 109 110
4 69 78 81 70
4 73 72 111 74
4 112 113 114 115
4 79 86 89 80
3 116 117 118
4 119 120 121 122
3 123 124 125
3 101 99 102
3 126 127 128
3 129 130 131
3 132 133 134
3 135 136 137
3 138 139 140
3 141 142 143
3 144 145 146
3 147 148 149
3 150 151 152
3 147 153 148
3 154 155 156
3 157 158 159
3 160 161 162
3 163 164 165
3 166 167 168
3 169 170 163
3 171 172 173
3 174 175 176
3 174 176 177
3 174 177 178
3 179 180 181
4 182 183 184 185
3 186 187 188
4 189 190 191 192
4 193 194 195 196
4 197 198 199 200
4 201 202 203 204
4 205 206 207 208
4 209 210 211 212
4 213 214 215 216
4 217 218 219 220
4 221 222 223 224
4 225 226 227 228
4 229 230 231 232
4 233 234 235 236
3 237 187 186
3 238 239 240
3 241 242 239
3 243 244 241
3 245 246 243
3 247 248 245
3 249 250 247
3 251 252 249
3 253 254 251
3 255 256 257
3 258 259 260
3 261 262 263
3 264 265 266
3 238 267 239
3 243 241 239
3 247 245 243
3 251 249 247
3 268 269 270
3 271 272 273
3 274 275 276
3 247 243 239
3 277 278 279
3 280 281 282
3 283 284 285
3 286 287 288
3 289 290 291
3 292 293 294
4 295 296 297 298
3 299 300 301
3 302 303 304
3 305 306 307
3 308 309 310
4 311 312 313 314
3 315 316 317
3 318 319 320
3 321 322 323
3 324 325 326
3 327 328 329
4 330 331 332 333
3 334 335 336
3 337 338 339
4 340 341 342 343
3 344 345 346
3 347 348 349
3 350 351 352
3 353 354 355
3 356 354 353
3 356 357 354
3 358 359 360
3 361 362 363
3 364 365 366
3 367 368 369
3 370 371 372
3 373 374 375
3 376 377 378
3 379 380 381
3 382 383 384
3 385 386 387
3 388 389 390
3 391 392 393
4 394 395 396 397
3 398 399 400
3 401 402 399
3 403 404 401
3 405 406 403
3 407 408 405
3 409 410 407
3 411 412 409
3 413 414 411
3 415 416 417
3 418 419 420
3 421 422 423
3 424 425 426
3 427 428 429
3 413 411 409
3 409 407 405
3 405 403 401
3 398 401 399
3 398 430 431
3 432 433 434
3 435 436 437
3 438 439 440
3 441 442 443
3 444 445 446
3 447 448 449
3 450 444 446
3 451 452 453
3 454 455 98
3 456 457 458
3 446 454 98
3 459 456 458
3 450 446 98
3 458 460 461
3 462 463 464
3 459 458 461
3 465 466 467
3 100 468 469
3 470 471 472
3 473 474 475
3 476 477 478
3 398 431 401
3 409 405 401
3 479 480 481
3 482 483 484
3 485 486 487
3 488 489 490
3 491 492 493
3 494 495 496
3 497 498 499
3 102 99 100
3 98 101 102
3 500 501 502
3 98 102 100
3 503 504 505
3 506 507 508
3 509 510 511
3 512 513 514
3 515 516 517
3 518 519 520
3 521 522 523
3 524 525 526
3 527 528 525
3 529 530 527
3 531 532 529
3 533 534 531
3 535 536 533
3 537 538 539
3 540 541 542
3 543 544 545
3 546 547 548
3 549 550 551
3 533 531 529
3 529 527 525
3 524 552 525
3 552 553 554
3 554 555 556
3 556 557 558
3 559 560 561
3 562 563 564
3 565 566 567
3 552 529 525
3 552 554 556
3 568 569 570
3 571 572 573
3 552 556 529
3 574 575 576
