ply
format ascii 1.0
comment Created by Blender 2.73 (sub 0) - www.blender.org, source file: 'falcon.blend'
element vertex 503
property float x
property float y
property float z
property float nx
property float ny
property float nz
property uchar red
property uchar green
property uchar blue
element face 186
property list uchar uint vertex_indices
end_header
-1.753113 1.772681 0.003897 0.290036 -0.956121 -0.041362 102 101 100
-1.781221 1.754111 0.236072 0.290036 -0.956121 -0.041362 102 101 100
-2.120764 1.651111 0.236072 0.290036 -0.956121 -0.041362 102 101 100
-2.092657 1.669682 0.003897 0.290036 -0.956121 -0.041362 102 101 100
-3.209999 -0.002539 0.003897 0.987091 0.097220 0.127277 102 101 100
-3.238107 -0.021110 0.236072 0.987091 0.097220 0.127277 102 101 100
-3.203328 -0.374223 0.236072 0.987091 0.097220 0.127277 102 101 100
-3.175220 -0.355652 0.003897 0.987091 0.097220 0.127277 102 101 100
-0.227832 -1.441249 0.000584 -0.485581 0.874176 -0.005305 102 101 100
-0.271661 -1.459820 0.232759 -0.485581 0.874176 -0.005305 102 101 100
0.208779 -1.197303 0.234731 -0.485581 0.874176 -0.005305 102 101 100
0.236887 -1.178733 0.002556 -0.485581 0.874176 -0.005305 102 101 100
-2.679863 -1.282402 0.003897 0.628384 0.765688 0.137317 102 101 100
-2.707971 -1.300972 0.236072 0.628384 0.765688 0.137317 102 101 100
-2.433689 -1.526069 0.236072 0.628384 0.765688 0.137317 102 101 100
-2.405581 -1.507499 0.003897 0.628384 0.765688 0.137317 102 101 100
-3.175220 -0.355652 0.003897 0.947819 0.287517 0.137743 102 101 100
-3.203328 -0.374223 0.236072 0.947819 0.287517 0.137743 102 101 100
-3.100329 -0.713766 0.236072 0.947819 0.287517 0.137743 102 101 100
-3.072221 -0.695196 0.003897 0.947819 0.287517 0.137743 102 101 100
-1.399999 -1.812539 0.003897 -0.097794 0.992910 0.067578 102 101 100
-1.428107 -1.831109 0.236072 -0.097794 0.992910 0.067578 102 101 100
-1.074994 -1.796330 0.236072 -0.097794 0.992910 0.067578 102 101 100
-1.046886 -1.777760 0.003897 -0.097794 0.992910 0.067578 103 102 101
0.236887 -1.178733 0.002556 -0.427221 0.903971 0.017856 102 101 100
0.208779 -1.197303 0.234731 -0.427221 0.903971 0.017856 102 101 100
1.419512 -0.624407 0.234917 -0.427221 0.903971 0.017856 102 101 100
0.756201 -0.934172 0.011130 -0.427221 0.903971 0.017856 102 101 100
1.431748 0.662551 -0.004265 -0.431523 -0.902000 -0.013534 102 101 100
1.412191 0.654106 0.233753 -0.431523 -0.902000 -0.013534 102 101 100
0.786514 0.968015 0.210310 -0.431523 -0.902000 -0.013534 102 101 100
0.823172 0.939608 -0.013637 -0.431523 -0.902000 -0.013534 102 101 100
0.211694 1.219440 -0.015482 -0.465210 -0.881098 -0.085122 92 91 90
0.186277 1.225166 0.201117 -0.465210 -0.881098 -0.085122 93 92 91
-0.359431 1.498199 0.220400 -0.465210 -0.881098 -0.085122 100 99 98
-0.351115 1.529325 -0.010269 -0.465210 -0.881098 -0.085122 92 91 90
-3.072221 -0.695196 0.003897 0.872859 0.466552 0.142988 102 101 100
-3.100329 -0.713766 0.236072 0.872859 0.466552 0.142988 102 101 100
-2.933067 -1.026691 0.236072 0.872859 0.466552 0.142988 102 101 100
-2.904959 -1.008121 0.003897 0.872859 0.466552 0.142988 102 101 100
-3.175220 0.350574 0.003897 0.988931 -0.097401 0.111933 102 101 100
-3.203328 0.332004 0.236072 0.988931 -0.097401 0.111933 102 101 100
-3.238107 -0.021110 0.236072 0.988931 -0.097401 0.111933 102 101 100
-3.209999 -0.002539 0.003897 0.988931 -0.097401 0.111933 102 101 100
0.823172 0.939608 -0.013637 -0.405223 -0.914115 0.013726 102 101 100
0.786514 0.968015 0.210310 -0.405223 -0.914115 0.013726 102 101 100
0.186277 1.225166 0.201117 -0.405223 -0.914115 0.013726 92 91 90
0.211694 1.219440 -0.015482 -0.405223 -0.914115 0.013726 92 91 90
-2.679863 1.277323 0.003897 0.772302 -0.633812 0.042802 102 101 100
-2.707971 1.258753 0.236072 0.772302 -0.633812 0.042802 102 101 100
-2.933067 0.984472 0.236072 0.772302 -0.633812 0.042802 102 101 100
-2.904959 1.003042 0.003897 0.772302 -0.633812 0.042802 102 101 100
-2.904959 -1.008121 0.003897 0.765083 0.627888 0.142845 102 101 100
-2.933067 -1.026691 0.236072 0.765083 0.627888 0.142845 102 101 100
-2.707971 -1.300972 0.236072 0.765083 0.627888 0.142845 102 101 100
-2.679863 -1.282402 0.003897 0.765083 0.627888 0.142845 102 101 100
0.463237 0.230771 0.000000 -0.068056 -0.980877 -0.182342 102 101 100
0.827206 0.160415 0.000000 -0.068056 -0.980877 -0.182342 102 101 100
0.829318 0.148879 0.303890 -0.068056 -0.980877 -0.182342 102 101 100
-0.663944 0.220172 0.235091 -0.068056 -0.980877 -0.182342 92 91 90
1.439943 0.325714 0.000000 -0.997559 -0.024469 -0.065400 102 101 100
1.424791 0.315115 0.235091 -0.997559 -0.024469 -0.065400 102 101 100
1.420796 0.477973 0.235091 -0.997559 -0.024469 -0.065400 102 101 100
1.435948 0.488571 0.000000 -0.997559 -0.024469 -0.065400 102 101 100
1.433482 -0.239344 0.000000 0.000000 -0.998985 -0.045039 102 101 100
1.418329 -0.249943 0.235091 0.000000 -0.998985 -0.045039 102 101 100
1.271990 -0.249943 0.235091 0.000000 -0.998985 -0.045039 93 92 91
1.287143 -0.239344 0.000000 0.000000 -0.998985 -0.045039 102 101 100
1.440489 0.230771 0.000000 0.000000 0.998985 0.045039 102 101 100
1.277632 0.230771 0.000000 0.000000 0.998985 0.045039 102 101 100
1.262479 0.220172 0.235091 0.000000 0.998985 0.045039 102 101 100
1.425336 0.220172 0.235091 0.000000 0.998985 0.045039 102 101 100
1.109133 -0.249943 0.235091 0.000000 -0.998985 -0.045039 92 91 90
1.124286 -0.239344 0.000000 0.000000 -0.998985 -0.045039 92 91 90
0.637114 -0.239344 0.000000 0.000000 -0.998985 -0.045039 102 101 100
0.621962 -0.249943 0.235091 0.000000 -0.998985 -0.045039 102 101 100
0.491649 -0.249943 0.235091 0.000000 -0.998985 -0.045039 102 101 100
0.506801 -0.239344 0.000000 0.000000 -0.998985 -0.045039 102 101 100
1.124286 0.230771 0.000000 0.000000 0.998985 0.045039 102 101 100
0.961429 0.230771 0.000000 0.000000 0.998985 0.045039 102 101 100
0.946276 0.220172 0.235091 0.000000 0.998985 0.045039 102 101 100
1.109133 0.220172 0.235091 0.000000 0.998985 0.045039 102 101 100
0.478872 -0.248935 0.000000 -0.076441 0.984461 -0.158095 92 91 90
-0.681198 -0.249943 0.235091 -0.076441 0.984461 -0.158095 92 91 90
0.837496 -0.172287 0.303890 -0.076441 0.984461 -0.158095 102 101 100
0.830146 -0.170343 0.000000 -0.076441 0.984461 -0.158095 102 101 100
0.598700 0.230771 0.000000 0.000000 0.998985 0.045039 102 101 100
0.463237 0.230771 0.000000 0.000000 0.998985 0.045039 102 101 100
-0.663944 0.220172 0.235091 0.000000 0.998985 0.045039 102 101 100
0.583547 0.220172 0.235091 0.000000 0.998985 0.045039 102 101 100
0.837496 -0.172287 0.303890 0.045637 -0.000523 -0.998958 102 101 100
-0.681198 -0.249943 0.235091 0.045637 -0.000523 -0.998958 102 101 100
-0.663944 0.220172 0.235091 0.045637 -0.000523 -0.998958 102 101 100
0.829318 0.148879 0.303890 0.045637 -0.000523 -0.998958 102 101 100
1.435948 0.488571 0.000000 -0.997930 0.000083 -0.064317 102 101 100
1.420796 0.477973 0.235091 -0.997930 0.000083 -0.064317 102 101 100
1.420810 0.650131 0.235091 -0.997930 0.000083 -0.064317 102 101 100
1.435963 0.660730 0.000000 -0.997930 0.000083 -0.064317 102 101 100
0.478872 -0.248935 0.000000 0.000000 0.000000 1.000000 92 91 90
0.827206 0.160415 0.000000 0.000000 0.000000 1.000000 102 101 100
0.463237 0.230771 0.000000 0.000000 0.000000 1.000000 102 101 100
0.830146 -0.170343 0.000000 0.000000 0.000000 1.000000 102 101 100
0.828369 -0.008380 0.000000 0.000000 0.000000 1.000000 102 101 100
1.440489 0.230771 0.000000 -0.997896 -0.005733 -0.064577 102 101 100
1.425336 0.220172 0.235091 -0.997896 -0.005733 -0.064577 102 101 100
1.424791 0.315115 0.235091 -0.997896 -0.005733 -0.064577 102 101 100
1.439943 0.325714 0.000000 -0.997896 -0.005733 -0.064577 102 101 100
1.431237 -0.325714 0.000000 -0.997668 0.025930 -0.063135 102 101 100
1.416085 -0.336313 0.235091 -0.997668 0.025930 -0.063135 102 101 100
1.418329 -0.249943 0.235091 -0.997668 0.025930 -0.063135 102 101 100
1.433482 -0.239344 0.000000 -0.997668 0.025930 -0.063135 102 101 100
0.506801 -0.239344 0.000000 0.007987 -0.999957 -0.004719 102 101 100
0.491649 -0.249943 0.235091 0.007987 -0.999957 -0.004719 102 101 100
-0.681198 -0.249943 0.235091 0.007987 -0.999957 -0.004719 133 132 132
0.478872 -0.248935 0.000000 0.007987 -0.999957 -0.004719 102 101 100
0.756201 -0.934172 0.011130 -0.420967 0.907043 -0.007764 102 101 100
1.419512 -0.624407 0.234917 -0.420967 0.907043 -0.007764 102 101 100
1.440902 -0.616472 0.002164 -0.420967 0.907043 -0.007764 92 91 90
1.431751 -0.451767 0.000000 -0.998040 -0.009471 -0.061857 102 101 100
1.419512 -0.624407 0.234917 -0.998040 -0.009471 -0.061857 102 101 100
1.416085 -0.336313 0.235091 -0.998040 -0.009471 -0.061857 102 101 100
1.431237 -0.325714 0.000000 -0.998040 -0.009471 -0.061857 102 101 100
1.433996 -0.614624 0.000000 -0.997975 -0.013756 -0.062103 92 91 90
1.419512 -0.624407 0.234917 -0.997975 -0.013756 -0.062103 102 101 100
1.431751 -0.451767 0.000000 -0.997975 -0.013756 -0.062103 102 101 100
0.837496 -0.172287 0.303890 -0.999658 -0.025456 0.005982 102 101 100
0.829318 0.148879 0.303890 -0.999658 -0.025456 0.005982 102 101 100
0.827206 0.160415 0.000000 -0.999658 -0.025456 0.005982 102 101 100
0.830146 -0.170343 0.000000 -0.999670 -0.008885 0.024124 102 101 100
0.837496 -0.172287 0.303890 -0.999670 -0.008885 0.024124 102 101 100
0.827206 0.160415 0.000000 -0.999670 -0.008885 0.024124 102 101 100
1.271990 -0.249943 0.235091 0.000000 0.000000 -1.000000 102 101 100
1.418329 -0.249943 0.235091 0.000000 0.000000 -1.000000 102 101 100
1.416085 -0.336313 0.235091 0.000000 0.000000 -1.000000 102 101 100
1.419512 -0.624407 0.234917 -0.000131 0.000602 -1.000000 102 101 100
0.208779 -1.197303 0.234731 -0.000131 0.000602 -1.000000 102 101 100
1.416085 -0.336313 0.235091 -0.000131 0.000602 -1.000000 102 101 100
0.186277 1.225166 0.201117 -0.108631 -0.287583 -0.951575 97 96 95
0.786514 0.968015 0.210310 -0.108631 -0.287583 -0.951575 102 101 100
1.412191 0.654106 0.233753 -0.108631 -0.287583 -0.951575 102 101 100
0.208779 -1.197303 0.234731 0.000136 0.000227 -1.000000 102 101 100
1.271990 -0.249943 0.235091 0.000136 0.000227 -1.000000 102 101 100
1.416085 -0.336313 0.235091 0.000136 0.000227 -1.000000 102 101 100
1.412191 0.654106 0.233753 0.153408 -0.000013 -0.988163 102 101 100
1.420810 0.650131 0.235091 0.153408 -0.000013 -0.988163 102 101 100
1.420796 0.477973 0.235091 0.153408 -0.000013 -0.988163 102 101 100
0.208779 -1.197303 0.234731 0.000000 0.000380 -1.000000 102 101 100
1.109133 -0.249943 0.235091 0.000000 0.000380 -1.000000 102 101 100
1.271990 -0.249943 0.235091 0.000000 0.000380 -1.000000 102 101 100
0.186277 1.225166 0.201117 0.023613 -0.006441 -0.999700 97 96 95
1.412191 0.654106 0.233753 0.023613 -0.006441 -0.999700 102 101 100
1.420796 0.477973 0.235091 0.023613 -0.006441 -0.999700 102 101 100
0.621962 -0.249943 0.235091 0.000000 0.000380 -1.000000 102 101 100
0.186277 1.225166 0.201117 0.027924 0.000685 -0.999610 97 96 95
1.420796 0.477973 0.235091 0.027924 0.000685 -0.999610 102 101 100
1.424791 0.315115 0.235091 0.027924 0.000685 -0.999610 102 101 100
0.208779 -1.197303 0.234731 0.031985 -0.013571 -0.999396 102 101 100
0.186277 1.225166 0.201117 0.031985 -0.013571 -0.999396 97 96 95
0.621962 -0.249943 0.235091 0.031985 -0.013571 -0.999396 102 101 100
-0.681198 -0.249943 0.235091 0.000000 0.000000 0.000000 102 101 100
0.491649 -0.249943 0.235091 0.000000 0.000000 0.000000 92 91 90
0.621962 -0.249943 0.235091 0.000000 0.000000 0.000000 102 101 100
1.109133 0.220172 0.235091 0.000000 0.000000 0.000000 102 101 100
0.946276 0.220172 0.235091 0.000000 0.000000 0.000000 102 101 100
0.583547 0.220172 0.235091 0.000000 0.000000 0.000000 102 101 100
0.186277 1.225166 0.201117 0.000000 0.023025 0.999735 97 96 95
-0.681198 -0.249943 0.235091 0.000000 0.023025 0.999735 102 101 100
0.621962 -0.249943 0.235091 0.000000 0.023025 0.999735 102 101 100
1.425336 0.220172 0.235091 0.000000 0.000000 0.000000 102 101 100
1.262479 0.220172 0.235091 0.000000 0.000000 0.000000 102 101 100
0.186277 1.225166 0.201117 0.027537 0.000158 -0.999621 97 96 95
1.424791 0.315115 0.235091 0.027537 0.000158 -0.999621 102 101 100
1.425336 0.220172 0.235091 0.027537 0.000158 -0.999621 102 101 100
0.186277 1.225166 0.201117 0.000000 -0.033786 -0.999429 97 96 95
1.425336 0.220172 0.235091 0.000000 -0.033786 -0.999429 102 101 100
1.109133 0.220172 0.235091 0.000000 -0.033786 -0.999429 102 101 100
0.583547 0.220172 0.235091 0.000000 -0.033786 -0.999429 102 101 100
-0.663944 0.220172 0.235091 0.000000 -0.033786 -0.999429 102 101 100
0.186277 1.225166 0.201117 0.041735 -0.001532 0.999128 97 96 95
-0.663944 0.220172 0.235091 0.041735 -0.001532 0.999128 102 101 100
-0.681198 -0.249943 0.235091 0.041735 -0.001532 0.999128 102 101 100
1.412191 0.654106 0.233753 -0.386788 -0.919847 -0.065402 102 101 100
1.431748 0.662551 -0.004265 -0.386788 -0.919847 -0.065402 102 101 100
1.435963 0.660730 0.000000 -0.386788 -0.919847 -0.065402 102 101 100
1.420810 0.650131 0.235091 -0.386788 -0.919847 -0.065402 102 101 100
-0.687360 1.684074 -0.011061 -0.242109 -0.964392 -0.106447 92 91 90
-1.074997 1.754111 0.236072 -0.242109 -0.964392 -0.106447 102 101 100
-1.046889 1.772682 0.003897 -0.242109 -0.964392 -0.106447 92 91 90
-1.753113 -1.777760 0.003897 0.097610 0.991048 0.091085 102 101 100
-1.781221 -1.796330 0.236072 0.097610 0.991048 0.091085 102 101 100
-1.428107 -1.831109 0.236072 0.097610 0.991048 0.091085 102 101 100
-1.399999 -1.812539 0.003897 0.097610 0.991048 0.091085 102 101 100
-0.707342 -1.674760 0.003897 -0.437857 0.898980 -0.010752 92 91 90
-0.751171 -1.693331 0.236072 -0.437857 0.898980 -0.010752 92 91 90
-0.271661 -1.459820 0.232759 -0.437857 0.898980 -0.010752 102 101 100
-0.227832 -1.441249 0.000584 -0.437857 0.898980 -0.010752 102 101 100
-2.904959 1.003042 0.003897 0.879825 -0.470277 0.068900 102 101 100
-2.933067 0.984472 0.236072 0.879825 -0.470277 0.068900 102 101 100
-3.100329 0.671547 0.236072 0.879825 -0.470277 0.068900 102 101 100
-3.072221 0.690117 0.003897 0.879825 -0.470277 0.068900 102 101 100
-2.092657 1.669682 0.003897 0.471354 -0.881841 -0.013470 102 101 100
-2.120764 1.651111 0.236072 0.471354 -0.881841 -0.013470 102 101 100
-2.433690 1.483850 0.236072 0.471354 -0.881841 -0.013470 102 101 100
-2.405582 1.502420 0.003897 0.471354 -0.881841 -0.013470 102 101 100
-1.428108 1.788890 0.236072 -0.097609 -0.991048 -0.091085 92 91 90
-1.400000 1.807460 0.003897 -0.097609 -0.991048 -0.091085 102 101 100
-1.046889 1.772682 0.003897 -0.097609 -0.991048 -0.091085 92 91 90
-1.074997 1.754111 0.236072 -0.097609 -0.991048 -0.091085 102 101 100
-3.072221 0.690117 0.003897 0.952861 -0.289047 0.092237 102 101 100
-3.100329 0.671547 0.236072 0.952861 -0.289047 0.092237 102 101 100
-3.203328 0.332004 0.236072 0.952861 -0.289047 0.092237 102 101 100
-3.175220 0.350574 0.003897 0.952861 -0.289047 0.092237 102 101 100
-2.405581 -1.507499 0.003897 0.467605 0.874827 0.126583 102 101 100
-2.433689 -1.526069 0.236072 0.467605 0.874827 0.126583 102 101 100
-2.120764 -1.693331 0.236072 0.467605 0.874827 0.126583 102 101 100
-2.092656 -1.674761 0.003897 0.467605 0.874827 0.126583 102 101 100
-2.405582 1.502420 0.003897 0.634322 -0.772924 0.014971 102 101 100
-2.433690 1.483850 0.236072 0.634322 -0.772924 0.014971 102 101 100
-2.707971 1.258753 0.236072 0.634322 -0.772924 0.014971 102 101 100
-2.679863 1.277323 0.003897 0.634322 -0.772924 0.014971 102 101 100
-1.400000 1.807460 0.003897 0.097793 -0.992910 -0.067578 102 101 100
-1.428108 1.788890 0.236072 0.097793 -0.992910 -0.067578 92 91 90
-1.781221 1.754111 0.236072 0.097793 -0.992910 -0.067578 102 101 100
-1.753113 1.772681 0.003897 0.097793 -0.992910 -0.067578 102 101 100
-1.046886 -1.777760 0.003897 -0.296429 0.954570 0.030428 92 91 90
-1.074994 -1.796330 0.236072 -0.296429 0.954570 0.030428 92 91 90
-0.751171 -1.693331 0.236072 -0.296429 0.954570 0.030428 92 91 90
-0.707342 -1.674760 0.003897 -0.296429 0.954570 0.030428 92 91 90
-2.092656 -1.674761 0.003897 0.288491 0.951028 0.110993 102 101 100
-2.120764 -1.693331 0.236072 0.288491 0.951028 0.110993 102 101 100
-1.781221 -1.796330 0.236072 0.288491 0.951028 0.110993 102 101 100
-1.753113 -1.777760 0.003897 0.288491 0.951028 0.110993 102 101 100
-0.351115 1.529325 -0.010269 -0.418455 -0.898964 -0.129453 92 91 90
-0.359431 1.498199 0.220400 -0.418455 -0.898964 -0.129453 100 99 98
-0.715737 1.665685 0.221438 -0.418455 -0.898964 -0.129453 102 101 100
-0.687630 1.684255 -0.010736 -0.418455 -0.898964 -0.129453 92 91 90
-0.715468 1.665504 0.221114 -0.242109 -0.964392 -0.106447 102 101 100
-1.781221 1.754111 0.236072 0.000000 -0.000000 -1.000000 97 96 95
-2.433690 1.483850 0.236072 0.000000 -0.000000 -1.000000 101 100 99
-2.120764 1.651111 0.236072 0.000000 -0.000000 -1.000000 102 101 100
-2.933067 0.984472 0.236072 0.000000 0.000000 -1.000000 92 91 90
-2.707971 1.258753 0.236072 0.000000 0.000000 -1.000000 94 93 92
-3.203328 0.332004 0.236072 0.000000 0.000000 -1.000000 93 92 91
-3.100329 0.671547 0.236072 0.000000 0.000000 -1.000000 92 91 90
-3.203328 -0.374223 0.236072 0.000000 -0.000000 -1.000000 92 91 90
-3.238107 -0.021110 0.236072 0.000000 -0.000000 -1.000000 92 91 90
-2.933067 -1.026691 0.236072 0.000000 0.000000 -1.000000 92 91 90
-3.100329 -0.713766 0.236072 0.000000 0.000000 -1.000000 92 91 90
-2.433689 -1.526069 0.236072 0.000000 0.000000 -1.000000 96 95 94
-2.707971 -1.300972 0.236072 0.000000 0.000000 -1.000000 92 91 90
-1.781221 -1.796330 0.236072 0.000000 0.000000 -1.000000 92 91 90
-2.120764 -1.693331 0.236072 0.000000 0.000000 -1.000000 97 96 95
-1.074994 -1.796330 0.236072 0.000000 0.000000 -1.000000 92 91 90
-1.428107 -1.831109 0.236072 0.000000 0.000000 -1.000000 92 91 90
-0.271661 -1.459820 0.232759 0.013000 -0.040871 -0.999080 168 168 168
-0.751171 -1.693331 0.236072 0.013000 -0.040871 -0.999080 161 161 161
-1.074994 -1.796330 0.236072 0.013000 -0.040871 -0.999080 92 91 90
0.186277 1.225166 0.201117 0.011626 -0.013766 -0.999838 104 103 102
0.208779 -1.197303 0.234731 0.011626 -0.013766 -0.999838 124 123 123
-0.271661 -1.459820 0.232759 0.011626 -0.013766 -0.999838 168 168 168
-0.715737 1.665685 0.221438 0.323272 0.691728 -0.645761 102 101 100
-0.359431 1.498199 0.220400 0.323272 0.691728 -0.645761 102 101 100
0.186277 1.225166 0.201117 0.323272 0.691728 -0.645761 104 103 102
-1.428108 1.788890 0.236072 0.026184 0.265856 -0.963657 100 99 98
-1.074997 1.754111 0.236072 0.026184 0.265856 -0.963657 102 101 100
-0.715737 1.665685 0.221438 0.026184 0.265856 -0.963657 102 101 100
-1.428108 1.788890 0.236072 -0.000000 0.000000 -1.000000 100 99 98
-0.271661 -1.459820 0.232759 0.000000 -0.009845 -0.999952 168 168 168
-1.074994 -1.796330 0.236072 0.000000 -0.009845 -0.999952 92 91 90
-1.781221 -1.796330 0.236072 0.000000 -0.009845 -0.999952 92 91 90
-0.715737 1.665685 0.221438 -0.026100 -0.007329 -0.999632 102 101 100
0.186277 1.225166 0.201117 -0.026100 -0.007329 -0.999632 104 103 102
-0.271661 -1.459820 0.232759 -0.026100 -0.007329 -0.999632 168 168 168
-1.428108 1.788890 0.236072 -0.013070 0.043085 -0.998986 100 99 98
-0.715737 1.665685 0.221438 -0.013070 0.043085 -0.998986 102 101 100
-2.433690 1.483850 0.236072 -0.013070 0.043085 -0.998986 101 100 99
-0.271661 -1.459820 0.232759 -0.001646 -0.002463 -0.999996 168 168 168
-1.781221 -1.796330 0.236072 -0.001646 -0.002463 -0.999996 92 91 90
-2.933067 -1.026691 0.236072 -0.001646 -0.002463 -0.999996 92 91 90
-0.715737 1.665685 0.221438 -0.008014 -0.004760 -0.999956 102 101 100
-0.271661 -1.459820 0.232759 -0.008014 -0.004760 -0.999956 168 168 168
-2.433690 1.483850 0.236072 -0.008014 -0.004760 -0.999956 101 100 99
-0.271661 -1.459820 0.232759 -0.001206 0.000240 -0.999999 168 168 168
-2.933067 -1.026691 0.236072 -0.001206 0.000240 -0.999999 92 91 90
-2.433690 1.483850 0.236072 -0.001206 0.000240 -0.999999 101 100 99
-2.120764 1.651111 0.236072 0.000237 -0.000444 1.000000 102 101 100
-2.433690 1.483850 0.236072 0.000237 -0.000444 1.000000 101 100 99
-0.663944 0.220172 0.235091 0.000237 -0.000444 1.000000 102 101 100
-0.663944 0.220172 0.235091 0.000059 -0.000597 1.000000 102 101 100
-1.428108 1.788890 0.236072 0.000059 -0.000597 1.000000 100 99 98
-1.781221 1.754111 0.236072 0.000059 -0.000597 1.000000 97 96 95
-0.663944 0.220172 0.235091 0.043397 0.010990 0.998998 102 101 100
-0.715737 1.665685 0.221438 0.043397 0.010990 0.998998 102 101 100
-1.074997 1.754111 0.236072 0.043397 0.010990 0.998998 102 101 100
-0.681198 -0.249943 0.235091 0.000384 -0.000024 1.000000 102 101 100
-0.663944 0.220172 0.235091 0.000384 -0.000024 1.000000 102 101 100
-3.203328 0.332004 0.236072 0.000384 -0.000024 1.000000 93 92 91
-3.238107 -0.021110 0.236072 0.000384 -0.000024 1.000000 92 91 90
-0.663944 0.220172 0.235091 0.007479 0.009712 0.999925 102 101 100
-0.359431 1.498199 0.220400 0.007479 0.009712 0.999925 102 101 100
-0.715737 1.665685 0.221438 0.007479 0.009712 0.999925 102 101 100
-0.663944 0.220172 0.235091 0.000159 -0.000524 1.000000 102 101 100
-1.781221 1.754111 0.236072 0.000159 -0.000524 1.000000 97 96 95
-2.120764 1.651111 0.236072 0.000159 -0.000524 1.000000 102 101 100
-0.663944 0.220172 0.235091 0.000297 -0.000361 1.000000 102 101 100
-2.433690 1.483850 0.236072 0.000297 -0.000361 1.000000 101 100 99
-2.707971 1.258753 0.236072 0.000297 -0.000361 1.000000 94 93 92
-0.663944 0.220172 0.235091 0.000367 -0.000196 1.000000 102 101 100
-2.933067 0.984472 0.236072 0.000367 -0.000196 1.000000 92 91 90
-3.100329 0.671547 0.236072 0.000367 -0.000196 1.000000 92 91 90
0.208779 -1.197303 0.234731 -0.000986 -0.001305 0.999999 102 101 100
0.491649 -0.249943 0.235091 -0.000986 -0.001305 0.999999 102 101 100
-0.681198 -0.249943 0.235091 -0.000986 -0.001305 0.999999 102 101 100
-0.271661 -1.459820 0.232759 -0.000986 -0.001305 0.999999 102 101 100
-0.681198 -0.249943 0.235091 0.000383 0.000116 1.000000 102 101 100
-3.203328 -0.374223 0.236072 0.000383 0.000116 1.000000 92 91 90
-3.100329 -0.713766 0.236072 0.000383 0.000116 1.000000 92 91 90
-0.681198 -0.249943 0.235091 0.000340 0.000279 1.000000 102 101 100
-2.933067 -1.026691 0.236072 0.000340 0.000279 1.000000 92 91 90
-2.707971 -1.300972 0.236072 0.000340 0.000279 1.000000 92 91 90
-0.681198 -0.249943 0.235091 0.000237 0.000443 1.000000 102 101 100
-2.433689 -1.526069 0.236072 0.000237 0.000443 1.000000 96 95 94
-2.120764 -1.693331 0.236072 0.000237 0.000443 1.000000 97 96 95
-0.681198 -0.249943 0.235091 0.000058 0.000593 1.000000 102 101 100
-1.781221 -1.796330 0.236072 0.000058 0.000593 1.000000 92 91 90
-1.428107 -1.831109 0.236072 0.000058 0.000593 1.000000 92 91 90
-0.681198 -0.249943 0.235091 -0.000220 0.000691 1.000000 102 101 100
-1.074994 -1.796330 0.236072 -0.000220 0.000691 1.000000 92 91 90
-0.751171 -1.693331 0.236072 -0.000220 0.000691 1.000000 92 91 90
0.208779 -1.197303 0.234731 0.000027 -0.000406 1.000000 102 101 100
1.419512 -0.624407 0.234917 0.000027 -0.000406 1.000000 102 101 100
1.109133 -0.249943 0.235091 0.000027 -0.000406 1.000000 102 101 100
0.621962 -0.249943 0.235091 0.000027 -0.000406 1.000000 102 101 100
1.271990 -0.249943 0.235091 -0.000364 -0.000607 1.000000 102 101 100
1.419512 -0.624407 0.234917 -0.000364 -0.000607 1.000000 102 101 100
1.416085 -0.336313 0.235091 -0.000364 -0.000607 1.000000 102 101 100
1.416085 -0.336313 0.235091 -0.000000 0.000000 1.000000 102 101 100
1.418329 -0.249943 0.235091 -0.000000 0.000000 1.000000 102 101 100
1.271990 -0.249943 0.235091 -0.000000 0.000000 1.000000 102 101 100
0.946276 0.220172 0.235091 -0.014146 0.030096 0.999447 102 101 100
1.412191 0.654106 0.233753 -0.014146 0.030096 0.999447 102 101 100
0.786514 0.968015 0.210310 -0.014146 0.030096 0.999447 102 101 100
0.583547 0.220172 0.235091 -0.014146 0.030096 0.999447 102 101 100
0.208779 -1.197303 0.234731 0.000000 -0.000380 1.000000 102 101 100
0.621962 -0.249943 0.235091 0.000000 -0.000380 1.000000 102 101 100
0.491649 -0.249943 0.235091 0.000000 -0.000380 1.000000 102 101 100
1.412191 0.654106 0.233753 0.000000 0.003084 0.999995 102 101 100
0.946276 0.220172 0.235091 0.000000 0.003084 0.999995 102 101 100
1.109133 0.220172 0.235091 0.000000 0.003084 0.999995 102 101 100
1.419512 -0.624407 0.234917 0.000000 -0.000464 1.000000 102 101 100
1.271990 -0.249943 0.235091 0.000000 -0.000464 1.000000 102 101 100
1.109133 -0.249943 0.235091 0.000000 -0.000464 1.000000 102 101 100
1.424791 0.315115 0.235091 0.000000 -0.000000 1.000000 102 101 100
1.262479 0.220172 0.235091 0.000000 -0.000000 1.000000 102 101 100
1.425336 0.220172 0.235091 0.000000 -0.000000 1.000000 102 101 100
1.420796 0.477973 0.235091 0.000000 -0.000000 1.000000 102 101 100
1.109133 0.220172 0.235091 0.000000 -0.000000 1.000000 102 101 100
-0.751171 -1.693331 0.236072 0.006737 0.000353 0.999977 92 91 90
-0.271661 -1.459820 0.232759 0.006737 0.000353 0.999977 102 101 100
-0.681198 -0.249943 0.235091 0.006737 0.000353 0.999977 102 101 100
1.412191 0.654106 0.233753 -0.006040 0.007302 0.999955 102 101 100
1.109133 0.220172 0.235091 -0.006040 0.007302 0.999955 102 101 100
1.420796 0.477973 0.235091 -0.006040 0.007302 0.999955 102 101 100
-0.681198 -0.249943 0.235091 -0.000064 0.000651 1.000000 102 101 100
-1.428107 -1.831109 0.236072 -0.000064 0.000651 1.000000 92 91 90
-1.074994 -1.796330 0.236072 -0.000064 0.000651 1.000000 92 91 90
-0.681198 -0.249943 0.235091 0.000297 0.000362 1.000000 102 101 100
-2.707971 -1.300972 0.236072 0.000297 0.000362 1.000000 92 91 90
-2.433689 -1.526069 0.236072 0.000297 0.000362 1.000000 96 95 94
-0.681198 -0.249943 0.235091 0.000387 0.000038 1.000000 102 101 100
-3.238107 -0.021110 0.236072 0.000387 0.000038 1.000000 92 91 90
-3.203328 -0.374223 0.236072 0.000387 0.000038 1.000000 92 91 90
-0.663944 0.220172 0.235091 0.000339 -0.000278 1.000000 102 101 100
-2.707971 1.258753 0.236072 0.000339 -0.000278 1.000000 94 93 92
-2.933067 0.984472 0.236072 0.000339 -0.000278 1.000000 92 91 90
-0.663944 0.220172 0.235091 -0.000065 -0.000657 1.000000 102 101 100
-1.074997 1.754111 0.236072 -0.000065 -0.000657 1.000000 102 101 100
-1.428108 1.788890 0.236072 -0.000065 -0.000657 1.000000 100 99 98
1.420796 0.477973 0.235091 -0.153408 0.000013 0.988163 102 101 100
1.420810 0.650131 0.235091 -0.153408 0.000013 0.988163 102 101 100
1.412191 0.654106 0.233753 -0.153408 0.000013 0.988163 102 101 100
-0.663944 0.220172 0.235091 0.000381 -0.000116 1.000000 102 101 100
-3.100329 0.671547 0.236072 0.000381 -0.000116 1.000000 92 91 90
-3.203328 0.332004 0.236072 0.000381 -0.000116 1.000000 93 92 91
-0.681198 -0.249943 0.235091 0.000158 0.000522 1.000000 102 101 100
-2.120764 -1.693331 0.236072 0.000158 0.000522 1.000000 97 96 95
-1.781221 -1.796330 0.236072 0.000158 0.000522 1.000000 92 91 90
-3.100329 -0.713766 0.236072 0.000368 0.000197 1.000000 92 91 90
-2.933067 -1.026691 0.236072 0.000368 0.000197 1.000000 92 91 90
-0.681198 -0.249943 0.235091 0.000368 0.000197 1.000000 102 101 100
0.186277 1.225166 0.201117 -0.001003 0.033390 0.999442 96 95 94
0.583547 0.220172 0.235091 -0.001003 0.033390 0.999442 102 101 100
0.786514 0.968015 0.210310 -0.001003 0.033390 0.999442 102 101 100
0.186277 1.225166 0.201117 0.014082 0.021881 0.999661 96 95 94
-0.359431 1.498199 0.220400 0.014082 0.021881 0.999661 102 101 100
-0.663944 0.220172 0.235091 0.014082 0.021881 0.999661 102 101 100
0.583547 0.220172 0.235091 0.014082 0.021881 0.999661 102 101 100
-1.753113 -1.777760 0.003897 -0.000000 -0.000000 1.000000 102 101 100
-2.405581 -1.507499 0.003897 -0.000000 -0.000000 1.000000 102 101 100
-2.092656 -1.674761 0.003897 -0.000000 -0.000000 1.000000 102 101 100
-2.904959 -1.008121 0.003897 0.000000 0.000000 1.000000 102 101 100
-2.679863 -1.282402 0.003897 0.000000 0.000000 1.000000 102 101 100
-3.175220 -0.355652 0.003897 0.000000 0.000000 1.000000 102 101 100
-3.072221 -0.695196 0.003897 0.000000 0.000000 1.000000 102 101 100
-3.175220 0.350574 0.003897 0.000000 -0.000000 1.000000 102 101 100
-3.209999 -0.002539 0.003897 0.000000 -0.000000 1.000000 102 101 100
-2.904959 1.003042 0.003897 0.000000 0.000000 1.000000 102 101 100
-3.072221 0.690117 0.003897 0.000000 0.000000 1.000000 102 101 100
-2.405582 1.502420 0.003897 0.000000 0.000000 1.000000 102 101 100
-2.679863 1.277323 0.003897 0.000000 0.000000 1.000000 102 101 100
-1.753113 1.772681 0.003897 0.000000 0.000000 1.000000 102 101 100
-2.092657 1.669682 0.003897 0.000000 0.000000 1.000000 102 101 100
-1.046889 1.772682 0.003897 -0.000000 0.000000 1.000000 92 91 90
-1.400000 1.807460 0.003897 -0.000000 0.000000 1.000000 102 101 100
-0.351115 1.529325 -0.010269 0.090032 0.200621 0.975523 92 91 90
-0.687360 1.684074 -0.011061 0.090032 0.200621 0.975523 92 91 90
-1.046889 1.772682 0.003897 0.090032 0.200621 0.975523 92 91 90
1.435948 0.488571 0.000000 -0.711252 0.000059 0.702937 102 101 100
1.435963 0.660730 0.000000 -0.711252 0.000059 0.702937 102 101 100
1.431748 0.662551 -0.004265 -0.711252 0.000059 0.702937 102 101 100
0.211694 1.219440 -0.015482 0.039593 0.055123 0.997694 92 91 90
-0.351115 1.529325 -0.010269 0.039593 0.055123 0.997694 92 91 90
-1.046889 1.772682 0.003897 0.039593 0.055123 0.997694 92 91 90
1.435948 0.488571 0.000000 -0.004287 0.024402 0.999693 102 101 100
1.431748 0.662551 -0.004265 -0.004287 0.024402 0.999693 102 101 100
0.823172 0.939608 -0.013637 -0.004287 0.024402 0.999693 112 111 110
0.823172 0.939608 -0.013637 0.308780 0.679125 0.665917 112 111 110
0.211694 1.219440 -0.015482 0.308780 0.679125 0.665917 92 91 90
-1.046889 1.772682 0.003897 0.308780 0.679125 0.665917 92 91 90
-1.399999 -1.812539 0.003897 0.000000 0.000000 1.000000 103 102 101
-1.046886 -1.777760 0.003897 0.000000 0.000000 1.000000 102 101 100
-1.046886 -1.777760 0.003897 -0.011405 0.037599 0.999228 102 101 100
-0.707342 -1.674760 0.003897 -0.011405 0.037599 0.999228 102 101 100
-0.227832 -1.441249 0.000584 -0.011405 0.037599 0.999228 102 101 100
0.756201 -0.934172 0.011130 -0.174423 0.401289 0.899191 102 101 100
1.440902 -0.616472 0.002164 -0.174423 0.401289 0.899191 92 91 90
1.433996 -0.614624 0.000000 -0.174423 0.401289 0.899191 92 91 90
-1.046886 -1.777760 0.003897 0.026106 -0.053714 0.998215 102 101 100
-0.227832 -1.441249 0.000584 0.026106 -0.053714 0.998215 102 101 100
0.236887 -1.178733 0.002556 0.026106 -0.053714 0.998215 102 101 100
0.236887 -1.178733 0.002556 -0.426200 0.904515 0.014324 102 101 100
0.756201 -0.934172 0.011130 -0.426200 0.904515 0.014324 102 101 100
1.433996 -0.614624 0.000000 -0.426200 0.904515 0.014324 92 91 90
1.431237 -0.325714 0.000000 -0.000000 0.000000 1.000000 92 91 90
1.433482 -0.239344 0.000000 -0.000000 0.000000 1.000000 92 91 90
1.287143 -0.239344 0.000000 -0.000000 0.000000 1.000000 95 94 93
0.236887 -1.178733 0.002556 0.002121 0.000029 0.999998 102 101 100
1.433996 -0.614624 0.000000 0.002121 0.000029 0.999998 92 91 90
1.431751 -0.451767 0.000000 0.002121 0.000029 0.999998 92 91 90
1.431751 -0.451767 0.000000 0.000000 0.000000 1.000000 92 91 90
1.287143 -0.239344 0.000000 0.000000 0.000000 0.000000 95 94 93
1.124286 -0.239344 0.000000 0.000000 0.000000 0.000000 92 91 90
0.637114 -0.239344 0.000000 0.000000 0.000000 0.000000 102 101 100
0.637114 -0.239344 0.000000 0.000000 0.000000 1.000000 102 101 100
0.506801 -0.239344 0.000000 0.000000 0.000000 1.000000 92 91 90
0.598700 0.230771 0.000000 0.000000 0.000000 0.000000 102 101 100
0.961429 0.230771 0.000000 0.000000 0.000000 0.000000 96 95 94
1.124286 0.230771 0.000000 0.000000 0.000000 0.000000 92 91 90
0.463237 0.230771 0.000000 0.000000 0.000000 0.000000 102 101 100
1.277632 0.230771 0.000000 0.000000 0.000000 0.000000 102 101 100
1.440489 0.230771 0.000000 0.000000 0.000000 0.000000 102 101 100
1.431751 -0.451767 0.000000 0.144914 0.680787 0.718004 92 91 90
0.478872 -0.248935 0.000000 0.144914 0.680787 0.718004 92 91 90
-0.681198 -0.249943 0.235091 0.144914 0.680787 0.718004 92 91 90
0.236887 -1.178733 0.002556 0.094886 -0.152499 0.983738 102 101 100
1.431751 -0.451767 0.000000 0.094886 -0.152499 0.983738 92 91 90
-0.681198 -0.249943 0.235091 0.094886 -0.152499 0.983738 92 91 90
1.440489 0.230771 0.000000 0.000000 0.000000 1.000000 102 101 100
1.439943 0.325714 0.000000 0.000000 0.000000 1.000000 102 101 100
-1.046886 -1.777760 0.003897 0.079264 -0.167670 0.982652 102 101 100
0.236887 -1.178733 0.002556 0.079264 -0.167670 0.982652 102 101 100
-0.681198 -0.249943 0.235091 0.079264 -0.167670 0.982652 92 91 90
-0.663944 0.220172 0.235091 0.089235 -0.917978 0.386463 92 91 90
0.463237 0.230771 0.000000 0.089235 -0.917978 0.386463 102 101 100
1.439943 0.325714 0.000000 0.089235 -0.917978 0.386463 102 101 100
-1.046886 -1.777760 0.003897 -0.598171 0.021954 0.801068 102 101 100
-0.681198 -0.249943 0.235091 -0.598171 0.021954 0.801068 92 91 90
-0.663944 0.220172 0.235091 -0.598171 0.021954 0.801068 92 91 90
0.823172 0.939608 -0.013637 0.002894 -0.014549 0.999890 112 111 110
-1.046889 1.772682 0.003897 0.002894 -0.014549 0.999890 92 91 90
-2.405582 1.502420 0.003897 0.002894 -0.014549 0.999890 102 101 100
1.439943 0.325714 0.000000 -0.022658 -0.000556 0.999743 102 101 100
1.435948 0.488571 0.000000 -0.022658 -0.000556 0.999743 102 101 100
0.823172 0.939608 -0.013637 -0.022658 -0.000556 0.999743 112 111 110
-1.046886 -1.777760 0.003897 -0.044110 -0.106491 0.993335 102 101 100
-0.663944 0.220172 0.235091 -0.044110 -0.106491 0.993335 92 91 90
-2.904959 -1.008121 0.003897 -0.044110 -0.106491 0.993335 102 101 100
-0.663944 0.220172 0.235091 0.103901 0.126303 0.986535 92 91 90
1.439943 0.325714 0.000000 0.103901 0.126303 0.986535 102 101 100
0.823172 0.939608 -0.013637 0.103901 0.126303 0.986535 112 111 110
-0.663944 0.220172 0.235091 -0.114990 0.022873 0.993103 92 91 90
-2.405582 1.502420 0.003897 -0.114990 0.022873 0.993103 102 101 100
-2.904959 -1.008121 0.003897 -0.114990 0.022873 0.993103 102 101 100
-0.663944 0.220172 0.235091 0.046846 0.238524 0.970006 92 91 90
0.823172 0.939608 -0.013637 0.046846 0.238524 0.970006 112 111 110
-2.405582 1.502420 0.003897 0.046846 0.238524 0.970006 102 101 100
-0.681198 -0.249943 0.235091 0.204234 -0.007496 0.978894 92 91 90
0.463237 0.230771 0.000000 0.204234 -0.007496 0.978894 92 91 90
-0.663944 0.220172 0.235091 0.204234 -0.007496 0.978894 92 91 90
0.463237 0.230771 0.000000 0.000000 0.000000 1.000000 92 91 90
-0.681198 -0.249943 0.235091 0.198605 0.006473 0.980058 92 91 90
0.478872 -0.248935 0.000000 0.198605 0.006473 0.980058 92 91 90
0.463237 0.230771 0.000000 0.198605 0.006473 0.980058 92 91 90
4 0 1 2 3
4 4 5 6 7
4 8 9 10 11
4 12 13 14 15
4 16 17 18 19
4 20 21 22 23
4 24 25 26 27
4 28 29 30 31
4 32 33 34 35
4 36 37 38 39
4 40 41 42 43
4 44 45 46 47
4 48 49 50 51
4 52 53 54 55
4 56 57 58 59
4 60 61 62 63
4 64 65 66 67
4 68 69 70 71
4 67 66 72 73
4 74 75 76 77
4 78 79 80 81
4 82 83 84 85
4 86 87 88 89
4 90 91 92 93
4 94 95 96 97
3 98 99 100
3 98 101 102
3 98 102 99
4 103 104 105 106
4 107 108 109 110
4 69 78 81 70
4 73 72 75 74
4 111 112 113 114
4 79 86 89 80
3 115 116 117
4 118 119 120 121
3 122 123 124
3 101 99 102
3 125 126 127
3 128 129 130
3 131 132 133
3 134 135 136
3 137 138 139
3 140 141 142
3 143 144 145
3 146 147 148
3 149 150 151
3 146 152 147
3 153 154 155
3 156 157 158
3 159 160 161
3 162 163 164
3 165 166 167
3 168 169 162
3 170 171 172
3 173 174 175
3 173 175 176
3 173 176 177
3 178 179 180
4 181 182 183 184
3 185 186 187
4 188 189 190 191
4 192 193 194 195
4 196 197 198 199
4 200 201 202 203
4 204 205 206 207
4 208 209 210 211
4 212 213 214 215
4 216 217 218 219
4 220 221 222 223
4 224 225 226 227
4 228 229 230 231
4 232 233 234 235
3 236 186 185
3 237 238 239
3 240 241 238
3 242 243 240
3 244 245 242
3 246 247 244
3 248 249 246
3 250 251 248
3 252 253 250
3 254 255 256
3 257 258 259
3 260 261 262
3 263 264 265
3 237 266 238
3 242 240 238
3 246 244 242
3 250 248 246
3 267 268 269
3 270 271 272
3 273 274 275
3 246 242 238
3 276 277 278
3 279 280 281
3 282 283 284
3 285 286 287
3 288 289 290
3 291 292 293
4 294 295 296 297
3 298 299 300
3 301 302 303
3 304 305 306
3 307 308 309
4 310 311 312 313
3 314 315 316
3 317 318 319
3 320 321 322
3 323 324 325
3 326 327 328
4 329 330 331 332
3 333 334 335
3 336 337 338
4 339 340 341 342
3 343 344 345
3 346 347 348
3 349 350 351
3 352 353 354
3 355 353 352
3 355 356 353
3 357 358 359
3 360 361 362
3 363 364 365
3 366 367 368
3 369 370 371
3 372 373 374
3 375 376 377
3 378 379 380
3 381 382 383
3 384 385 386
3 387 388 389
3 390 391 392
4 393 394 395 396
3 397 398 399
3 400 401 398
3 402 403 400
3 404 405 402
3 406 407 404
3 408 409 406
3 410 411 408
3 412 413 410
3 414 415 416
3 417 418 419
3 420 421 422
3 423 424 425
3 426 427 428
3 412 410 408
3 408 406 404
3 404 402 400
3 397 400 398
3 397 429 430
3 431 432 433
3 434 435 436
3 437 438 439
3 440 441 442
3 443 444 445
3 446 447 448
3 449 443 445
3 450 451 452
3 453 454 98
3 455 456 457
3 445 453 98
3 458 455 457
3 449 445 98
3 457 459 460
3 461 462 463
3 458 457 460
3 464 465 466
3 100 467 468
3 469 470 471
3 472 473 474
3 475 476 477
3 397 430 400
3 408 404 400
3 478 479 480
3 481 482 483
3 484 485 486
3 487 488 489
3 490 491 492
3 493 494 495
3 496 497 498
3 102 99 499
3 98 101 102
3 500 501 502
3 98 102 499
