ply
format ascii 1.0
comment Created by Blender 2.73 (sub 0) - www.blender.org, source file: 'falcon.blend'
element vertex 162
property float x
property float y
property float z
property uchar red
property uchar green
property uchar blue
element face 193
property list uchar uint vertex_indices
end_header
-1.753113 1.772681 0.003897 102 101 100
-1.781221 1.754111 0.236072 102 101 100
-2.120764 1.651111 0.236072 102 101 100
-2.092657 1.669682 0.003897 102 101 100
-3.209999 -0.002539 0.003897 102 101 100
-3.238107 -0.021110 0.236072 102 101 100
-3.203328 -0.374223 0.236072 102 101 100
-3.175220 -0.355652 0.003897 102 101 100
-0.227832 -1.441249 0.000584 102 101 100
-0.271661 -1.459820 0.232759 102 101 100
0.208779 -1.197303 0.234731 102 101 100
0.236887 -1.178733 0.002556 102 101 100
-2.679863 -1.282402 0.003897 102 101 100
-2.707971 -1.300972 0.236072 102 101 100
-2.433689 -1.526069 0.236072 102 101 100
-2.405581 -1.507499 0.003897 102 101 100
-3.100329 -0.713766 0.236072 102 101 100
-3.072221 -0.695196 0.003897 102 101 100
-1.399999 -1.812539 0.003897 102 101 100
-1.428107 -1.831109 0.236072 102 101 100
-1.074994 -1.796330 0.236072 102 101 100
-1.046886 -1.777760 0.003897 103 102 101
1.419512 -0.624407 0.234917 102 101 100
0.756201 -0.934172 0.011130 94 93 92
1.431748 0.662551 -0.004265 102 101 100
1.412191 0.654106 0.233753 102 101 100
0.786514 0.968015 0.210310 102 101 100
0.823172 0.939608 -0.013637 102 101 100
0.211694 1.219440 -0.015482 92 91 90
0.186277 1.225166 0.201117 92 91 90
-0.359431 1.498199 0.220400 92 91 90
-0.351115 1.529325 -0.010269 92 91 90
-2.933067 -1.026691 0.236072 102 101 100
-2.904959 -1.008121 0.003897 102 101 100
-3.175220 0.350574 0.003897 102 101 100
-3.203328 0.332004 0.236072 102 101 100
-2.679863 1.277323 0.003897 102 101 100
-2.707971 1.258753 0.236072 102 101 100
-2.933067 0.984472 0.236072 102 101 100
-2.904959 1.003042 0.003897 102 101 100
0.463237 0.230771 0.000000 99 98 97
0.827206 0.160415 0.000000 102 101 100
0.829318 0.148879 0.303890 102 101 100
-0.663944 0.220172 0.235091 92 91 90
1.439943 0.325714 0.000000 102 101 100
1.424791 0.315115 0.235091 102 101 100
1.420796 0.477973 0.235091 102 101 100
1.435948 0.488571 0.000000 102 101 100
1.433482 -0.239344 0.000000 102 101 100
1.418329 -0.249943 0.235091 102 101 100
1.271990 -0.249943 0.235091 93 92 91
1.287143 -0.239344 0.000000 102 101 100
1.440489 0.230771 0.000000 102 101 100
1.277632 0.230771 0.000000 102 101 100
1.262479 0.220172 0.235091 102 101 100
1.425336 0.220172 0.235091 102 101 100
1.109133 -0.249943 0.235091 92 91 90
1.124286 -0.239344 0.000000 92 91 90
0.637114 -0.239344 0.000000 102 101 100
0.621962 -0.249943 0.235091 102 101 100
0.491649 -0.249943 0.235091 102 101 100
0.506801 -0.239344 0.000000 102 101 100
1.124286 0.230771 0.000000 102 101 100
0.961429 0.230771 0.000000 102 101 100
0.946276 0.220172 0.235091 102 101 100
1.109133 0.220172 0.235091 102 101 100
0.478872 -0.248935 0.000000 92 91 90
-0.681198 -0.249943 0.235091 92 91 90
0.837496 -0.172287 0.303890 102 101 100
0.830146 -0.170343 0.000000 102 101 100
0.598700 0.230771 0.000000 102 101 100
0.463237 0.230771 0.000000 102 101 100
-0.663944 0.220172 0.235091 102 101 100
0.583547 0.220172 0.235091 102 101 100
0.837496 -0.172287 0.303890 101 100 99
1.420810 0.650131 0.235091 102 101 100
1.435963 0.660730 0.000000 102 101 100
0.828369 -0.008380 0.000000 102 101 100
1.431237 -0.325714 0.000000 102 101 100
1.416085 -0.336313 0.235091 92 91 90
1.418329 -0.249943 0.235091 92 91 90
0.621962 -0.249943 0.235091 100 99 98
0.637114 -0.239344 0.000000 100 99 98
-0.681198 -0.249943 0.235091 133 132 132
0.478872 -0.248935 0.000000 102 101 100
1.440902 -0.616472 0.002164 92 91 90
1.431751 -0.451767 0.000000 102 101 100
1.433996 -0.614624 0.000000 92 91 90
1.271990 -0.249943 0.235091 102 101 100
1.416085 -0.336313 0.235091 102 101 100
0.208779 -1.197303 0.234731 99 98 97
0.186277 1.225166 0.201117 93 92 91
0.786514 0.968015 0.210310 101 100 99
1.109133 -0.249943 0.235091 102 101 100
0.491649 -0.249943 0.235091 92 91 90
0.583547 0.220172 0.235091 101 100 99
-0.687360 1.684074 -0.011061 92 91 90
-1.074997 1.754111 0.236072 102 101 100
-1.046889 1.772682 0.003897 92 91 90
-1.753113 -1.777760 0.003897 102 101 100
-1.781221 -1.796330 0.236072 102 101 100
-0.707342 -1.674760 0.003897 92 91 90
-0.751171 -1.693331 0.236072 92 91 90
-3.100329 0.671547 0.236072 102 101 100
-3.072221 0.690117 0.003897 102 101 100
-2.433690 1.483850 0.236072 102 101 100
-2.405582 1.502420 0.003897 102 101 100
-1.428108 1.788890 0.236072 92 91 90
-1.400000 1.807460 0.003897 102 101 100
-2.120764 -1.693331 0.236072 102 101 100
-2.092656 -1.674761 0.003897 102 101 100
-1.046886 -1.777760 0.003897 92 91 90
-1.074994 -1.796330 0.236072 92 91 90
-0.359431 1.498199 0.220400 100 99 98
-0.715737 1.665685 0.221438 102 101 100
-0.687630 1.684255 -0.010736 92 91 90
-0.715468 1.665504 0.221114 102 101 100
-1.781221 1.754111 0.236072 97 96 95
-2.433690 1.483850 0.236072 101 100 99
-2.933067 0.984472 0.236072 92 91 90
-2.707971 1.258753 0.236072 94 93 92
-3.203328 0.332004 0.236072 93 92 91
-3.100329 0.671547 0.236072 92 91 90
-3.203328 -0.374223 0.236072 92 91 90
-3.238107 -0.021110 0.236072 92 91 90
-2.933067 -1.026691 0.236072 92 91 90
-3.100329 -0.713766 0.236072 92 91 90
-2.433689 -1.526069 0.236072 96 95 94
-2.707971 -1.300972 0.236072 92 91 90
-1.781221 -1.796330 0.236072 92 91 90
-2.120764 -1.693331 0.236072 97 96 95
-1.428107 -1.831109 0.236072 92 91 90
-0.271661 -1.459820 0.232759 168 168 168
-0.751171 -1.693331 0.236072 161 161 161
0.186277 1.225166 0.201117 104 103 102
0.208779 -1.197303 0.234731 124 123 123
-0.359431 1.498199 0.220400 102 101 100
-1.428108 1.788890 0.236072 100 99 98
-2.120764 1.651111 0.236072 92 91 90
-2.433690 1.483850 0.236072 92 91 90
-1.781221 1.754111 0.236072 92 91 90
-0.715737 1.665685 0.221438 92 91 90
-1.074997 1.754111 0.236072 92 91 90
-3.203328 0.332004 0.236072 92 91 90
-2.707971 1.258753 0.236072 92 91 90
0.491649 -0.249943 0.235091 99 98 97
-0.271661 -1.459820 0.232759 96 95 94
0.823172 0.939608 -0.013637 112 111 110
-1.399999 -1.812539 0.003897 103 102 101
-1.046886 -1.777760 0.003897 102 101 100
-0.707342 -1.674760 0.003897 102 101 100
1.431237 -0.325714 0.000000 92 91 90
1.433482 -0.239344 0.000000 92 91 90
1.287143 -0.239344 0.000000 95 94 93
1.431751 -0.451767 0.000000 92 91 90
0.506801 -0.239344 0.000000 92 91 90
0.961429 0.230771 0.000000 96 95 94
1.124286 0.230771 0.000000 92 91 90
0.463237 0.230771 0.000000 92 91 90
1.440902 -0.616472 0.002164 102 101 100
1.419512 -0.624407 0.234917 99 98 97
0.211694 1.219440 -0.015482 112 111 110
4 0 1 2 3
4 4 5 6 7
4 8 9 10 11
4 12 13 14 15
4 7 6 16 17
4 18 19 20 21
4 11 10 22 23
4 24 25 26 27
4 28 29 30 31
4 17 16 32 33
4 34 35 5 4
4 27 26 29 28
4 36 37 38 39
4 33 32 13 12
4 40 41 42 43
4 44 45 46 47
4 48 49 50 51
4 52 53 54 55
4 51 50 56 57
4 58 59 60 61
4 62 63 64 65
4 66 67 68 69
4 70 71 72 73
4 74 67 43 42
4 47 46 75 76
3 66 41 71
3 66 69 77
3 66 77 41
4 52 55 45 44
4 78 79 80 48
4 53 62 65 54
4 57 56 81 82
4 61 60 83 84
4 63 70 73 64
3 23 22 85
4 86 22 79 78
3 87 22 86
3 69 41 77
3 68 42 41
3 69 68 41
3 88 49 89
3 22 90 89
3 91 92 25
3 90 88 89
3 25 75 46
3 90 93 88
3 91 25 46
3 90 81 93
3 91 46 45
3 90 91 81
3 67 94 81
3 65 64 95
3 91 67 81
3 55 54 65
3 91 45 55
3 91 55 65
3 91 65 95
3 91 95 43
3 91 43 67
4 25 24 76 75
3 96 97 98
4 99 100 19 18
4 101 102 9 8
4 39 38 103 104
4 3 2 105 106
4 107 108 98 97
4 104 103 35 34
4 15 14 109 110
4 106 105 37 36
4 108 107 1 0
4 111 112 102 101
4 110 109 100 99
4 31 113 114 115
3 116 97 96
3 117 118 2
3 119 120 118
3 121 122 119
3 123 124 121
3 125 126 123
3 127 128 125
3 129 130 127
3 112 131 129
3 132 133 112
3 134 135 132
3 114 136 134
3 137 97 114
3 117 137 118
3 121 119 118
3 125 123 121
3 129 127 125
3 132 112 129
3 114 134 132
3 137 114 118
3 125 121 118
3 132 129 125
3 114 132 118
3 132 125 118
3 138 139 43
3 43 107 140
3 43 141 142
4 67 43 143 124
3 43 30 141
3 43 140 138
3 43 139 144
3 43 119 122
4 90 145 67 146
3 67 123 126
3 67 125 128
3 67 127 130
3 67 129 131
3 67 112 102
4 90 22 93 81
3 88 22 89
3 89 49 88
4 64 25 92 95
3 90 81 145
3 25 64 65
3 22 88 93
3 45 54 55
3 46 54 45
3 46 65 54
3 102 146 67
3 25 65 46
3 67 131 112
3 67 128 127
3 67 124 123
3 43 144 119
3 43 142 107
3 46 75 25
3 43 122 143
3 67 130 129
3 126 125 67
3 91 95 92
4 91 30 43 95
3 99 15 110
3 33 12 15
3 7 17 33
3 34 4 7
3 39 104 34
3 106 36 39
3 0 3 106
3 98 108 0
3 31 96 98
3 47 76 24
3 28 31 98
3 47 24 147
3 147 28 98
3 98 0 106
3 106 39 34
3 34 7 33
3 99 33 15
3 99 148 149
3 149 150 8
3 23 85 87
3 149 8 11
3 11 23 87
3 151 152 153
3 11 87 154
3 154 151 153
3 153 57 58
3 58 155 66
3 70 156 157
3 153 58 66
3 71 70 157
3 154 153 66
3 157 53 52
3 154 66 67
3 71 157 52
3 11 154 67
3 71 52 44
3 149 11 67
3 43 71 44
3 149 67 43
3 99 149 33
3 106 34 33
3 147 98 106
3 44 47 147
3 149 43 33
3 43 44 147
3 43 106 33
3 43 147 106
3 67 158 43
3 77 41 158
3 66 69 77
3 67 66 158
3 66 77 158
3 23 10 11
3 159 160 10
3 23 159 10
3 161 92 29
3 24 25 92
3 161 27 24
3 161 24 92
