ply
format ascii 1.0
comment Created by Blender 2.73 (sub 0) - www.blender.org, source file: ''
element vertex 136
property float x
property float y
property float z
property uchar red
property uchar green
property uchar blue
element face 68
property list uchar uint vertex_indices
end_header
4.444445 -4.444445 0.000000 255 0 11
5.000000 -4.444445 0.000000 255 0 11
5.000000 -3.888889 0.000000 255 0 11
4.444445 -3.888889 0.000000 255 65 73
4.444445 -3.333333 0.000000 255 6 17
5.000000 -3.333333 0.000000 255 0 11
5.000000 -2.777778 0.000000 255 1 12
4.444445 -2.777778 0.000000 255 0 11
4.444445 -2.222222 0.000000 255 0 11
5.000000 -2.222222 0.000000 255 5 16
5.000000 -1.666667 0.000000 255 0 11
4.444445 -1.666667 0.000000 255 0 11
4.444445 -1.111111 0.000000 255 0 11
5.000000 -1.111111 0.000000 255 0 11
5.000000 -0.555556 0.000000 255 0 11
4.444445 -0.555556 0.000000 255 0 11
4.444445 0.000000 0.000000 255 0 11
5.000000 0.000000 0.000000 255 0 11
5.000000 0.555556 0.000000 255 0 11
4.444445 0.555556 0.000000 255 0 11
4.444445 1.111111 0.000000 255 0 11
5.000000 1.111111 0.000000 255 1 12
5.000000 1.666667 0.000000 255 0 11
4.444445 1.666667 0.000000 255 0 11
4.444445 2.222222 0.000000 255 0 11
5.000000 2.222222 0.000000 255 0 11
5.000000 2.777778 0.000000 255 0 11
4.444445 2.777778 0.000000 255 0 11
4.444445 3.333333 0.000000 255 0 11
5.000000 3.333333 0.000000 255 0 11
5.000000 3.888889 0.000000 255 0 11
4.444445 3.888889 0.000000 255 0 11
-4.444445 4.444445 0.000000 255 0 11
-3.888889 4.444445 0.000000 255 0 11
-3.888889 5.000000 0.000000 255 0 11
-4.444445 5.000000 0.000000 255 0 11
-3.333333 4.444445 0.000000 255 0 11
-2.777778 4.444445 0.000000 255 0 11
-2.777778 5.000000 0.000000 255 0 11
-3.333333 5.000000 0.000000 255 0 11
-2.222222 4.444445 0.000000 255 0 11
-1.666667 4.444445 0.000000 255 0 11
-1.666667 5.000000 0.000000 255 0 11
-2.222222 5.000000 0.000000 255 0 11
-1.111111 4.444445 0.000000 255 0 11
-0.555556 4.444445 0.000000 255 0 11
-0.555556 5.000000 0.000000 255 0 11
-1.111111 5.000000 0.000000 255 0 11
0.000000 4.444445 0.000000 255 0 11
0.555556 4.444445 0.000000 255 0 11
0.555556 5.000000 0.000000 255 0 11
0.000000 5.000000 0.000000 255 0 11
1.111111 4.444445 0.000000 255 0 11
1.666667 4.444445 0.000000 255 0 11
1.666667 5.000000 0.000000 255 0 11
1.111111 5.000000 0.000000 255 0 11
2.222222 4.444445 0.000000 255 0 11
2.777778 4.444445 0.000000 255 0 11
2.777778 5.000000 0.000000 255 0 11
2.222222 5.000000 0.000000 255 0 11
3.333333 4.444445 0.000000 255 0 11
3.888889 4.444445 0.000000 255 0 11
3.888889 5.000000 0.000000 255 0 11
3.333333 5.000000 0.000000 255 0 11
4.444445 4.444445 0.000000 255 0 11
5.000000 4.444445 0.000000 255 0 11
5.000000 5.000000 0.000000 255 0 11
4.444445 5.000000 0.000000 255 0 11
-5.000000 4.444445 0.000000 255 0 11
-5.000000 5.000000 0.000000 255 0 11
-5.000000 3.888889 0.000000 255 0 11
-4.444445 3.888889 0.000000 255 10 20
-5.000000 3.333333 0.000000 255 0 11
-4.444445 3.333333 0.000000 255 1 12
-5.000000 2.777778 0.000000 255 0 11
-4.444445 2.777778 0.000000 255 0 11
-5.000000 2.222222 0.000000 255 0 11
-4.444445 2.222222 0.000000 255 0 11
-5.000000 1.666667 0.000000 255 0 11
-4.444445 1.666667 0.000000 255 0 11
-5.000000 1.111111 0.000000 255 0 11
-4.444445 1.111111 0.000000 255 0 11
-5.000000 0.555556 0.000000 255 0 11
-4.444445 0.555556 0.000000 255 0 11
-5.000000 0.000000 0.000000 255 0 11
-4.444445 0.000000 0.000000 255 0 11
-5.000000 -0.555556 0.000000 255 0 11
-4.444445 -0.555556 0.000000 255 0 11
-5.000000 -1.111111 0.000000 255 0 11
-4.444445 -1.111111 0.000000 255 0 11
-5.000000 -1.666667 0.000000 255 0 11
-4.444445 -1.666667 0.000000 255 0 11
-5.000000 -2.222222 0.000000 255 0 11
-4.444445 -2.222222 0.000000 255 0 11
-5.000000 -2.777778 0.000000 255 0 11
-4.444445 -2.777778 0.000000 255 0 11
-5.000000 -3.333333 0.000000 255 0 11
-4.444445 -3.333333 0.000000 255 0 11
-5.000000 -3.888889 0.000000 255 0 11
-4.444445 -3.888889 0.000000 255 0 11
3.888889 -5.000000 0.000000 255 0 11
4.444445 -5.000000 0.000000 255 2 13
3.888889 -4.444445 0.000000 255 0 11
5.000000 -5.000000 0.000000 255 0 11
2.777778 -5.000000 0.000000 255 0 11
3.333333 -5.000000 0.000000 255 0 11
3.333333 -4.444445 0.000000 255 0 11
2.777778 -4.444445 0.000000 255 0 11
1.666667 -5.000000 0.000000 255 0 11
2.222222 -5.000000 0.000000 255 0 11
2.222222 -4.444445 0.000000 255 0 11
1.666667 -4.444445 0.000000 255 0 11
0.555556 -5.000000 0.000000 255 0 11
1.111111 -5.000000 0.000000 255 0 11
1.111111 -4.444445 0.000000 255 0 11
0.555556 -4.444445 0.000000 255 0 11
-0.555556 -5.000000 0.000000 255 0 11
0.000000 -5.000000 0.000000 255 0 11
0.000000 -4.444445 0.000000 255 0 11
-0.555556 -4.444445 0.000000 255 0 11
-1.666667 -5.000000 0.000000 255 1 12
-1.111111 -5.000000 0.000000 255 12 22
-1.111111 -4.444445 0.000000 255 0 11
-1.666667 -4.444445 0.000000 255 0 11
-2.777778 -5.000000 0.000000 255 0 11
-2.222222 -5.000000 0.000000 255 0 11
-2.222222 -4.444445 0.000000 255 0 11
-2.777778 -4.444445 0.000000 255 0 11
-3.888889 -5.000000 0.000000 255 0 11
-3.333333 -5.000000 0.000000 255 0 11
-3.333333 -4.444445 0.000000 255 0 11
-3.888889 -4.444445 0.000000 255 0 11
-5.000000 -4.444445 0.000000 255 0 11
-4.444445 -4.444445 0.000000 255 0 11
-5.000000 -5.000000 0.000000 255 0 11
-4.444445 -5.000000 0.000000 255 0 11
4 0 1 2 3
4 4 5 6 7
4 8 9 10 11
4 12 13 14 15
4 16 17 18 19
4 20 21 22 23
4 24 25 26 27
4 28 29 30 31
4 32 33 34 35
4 36 37 38 39
4 40 41 42 43
4 44 45 46 47
4 48 49 50 51
4 52 53 54 55
4 56 57 58 59
4 60 61 62 63
4 64 65 66 67
4 61 64 67 62
4 31 30 65 64
4 57 60 63 58
4 53 56 59 54
4 49 52 55 50
4 45 48 51 46
4 41 44 47 42
4 37 40 43 38
4 33 36 39 34
4 68 32 35 69
4 70 71 32 68
4 27 26 29 28
4 72 73 71 70
4 74 75 73 72
4 23 22 25 24
4 76 77 75 74
4 78 79 77 76
4 19 18 21 20
4 80 81 79 78
4 82 83 81 80
4 15 14 17 16
4 84 85 83 82
4 86 87 85 84
4 11 10 13 12
4 88 89 87 86
4 90 91 89 88
4 7 6 9 8
4 92 93 91 90
4 94 95 93 92
4 3 2 5 4
4 96 97 95 94
4 98 99 97 96
4 100 101 0 102
4 101 103 1 0
4 104 105 106 107
4 105 100 102 106
4 108 109 110 111
4 109 104 107 110
4 112 113 114 115
4 113 108 111 114
4 116 117 118 119
4 117 112 115 118
4 120 121 122 123
4 121 116 119 122
4 124 125 126 127
4 125 120 123 126
4 128 129 130 131
4 129 124 127 130
4 132 133 99 98
4 134 135 133 132
4 135 128 131 133
