ply
format ascii 1.0
comment Created by Blender 2.72 (sub 0) - www.blender.org, source file: ''
element vertex 146
property float x
property float y
property float z
property uchar red
property uchar green
property uchar blue
element face 110
property list uchar uint vertex_indices
end_header
-1.240349 -0.000333 0.372761 0 10 191
-1.240349 -0.000333 -1.000000 0 10 191
0.000000 -0.000333 -1.000000 0 10 191
0.000000 -0.000333 0.372761 0 10 191
-0.960107 0.565249 0.372760 0 10 191
-0.582431 0.409363 1.000000 0 10 191
-0.507604 0.512063 1.000000 0 10 191
-0.653542 0.986010 0.372760 0 10 191
-3.119281 -0.942804 -0.949260 0 10 191
-1.240349 0.180615 0.372760 0 10 191
-3.119281 -0.761855 -0.949260 0 10 191
0.000000 0.409363 1.000000 0 10 191
0.000000 0.512063 1.000000 0 10 191
-0.805783 -0.000335 -4.284117 0 10 191
-0.805782 0.180614 -4.284118 0 10 191
0.000000 0.180614 -5.383713 0 10 191
0.000000 -0.000335 -5.383713 0 10 191
-0.650832 0.315481 1.000000 0 10 191
-0.650832 0.271315 1.000000 0 10 191
0.000000 0.271315 1.000000 0 10 191
0.000000 0.315481 1.000000 0 10 191
0.000000 -0.000333 -2.156063 0 10 191
-1.125746 -0.000333 -1.866080 0 10 191
-1.125746 0.180615 -1.542580 0 10 191
-3.119281 -0.761855 -0.949260 0 10 191
-3.457423 -0.761854 -0.949261 0 10 191
-3.457423 -0.942803 -0.949260 0 10 191
-1.240348 0.180615 -0.560630 0 10 191
-3.119281 -0.942804 -2.322021 0 10 191
-3.119280 -0.761855 -1.882651 0 10 191
-1.240348 0.180615 -0.560630 0 10 191
-3.119280 -0.761855 -1.882651 0 10 191
-1.240349 0.180615 0.372760 0 10 191
-1.240349 0.180615 0.372760 255 255 255
-1.240348 0.180615 -0.560630 255 255 255
-1.240348 0.180615 -0.560630 255 255 255
-1.240349 0.180615 0.372760 255 255 255
-3.119280 -0.761855 -1.882651 255 255 255
-3.119280 -0.761855 -1.882651 255 255 255
0.000000 0.986010 0.372761 0 10 191
0.000000 0.986010 -1.000000 0 10 191
-0.556329 0.986010 -1.000001 0 10 191
-0.845504 0.498033 -1.630241 0 10 191
-0.960107 0.565249 -0.770461 0 10 191
-0.538940 0.845265 -1.726136 0 10 191
-3.119281 -0.761855 -0.949260 255 255 255
-3.119281 -0.761855 -0.949260 255 255 255
-0.650832 0.315481 1.000000 255 255 255
-0.650832 0.315481 1.000000 255 255 255
-3.457423 -0.761854 -1.882651 0 10 191
-3.457423 -0.942803 -2.322021 0 10 191
-3.119280 -0.761855 -2.321895 0 10 191
-3.457423 -0.761854 -2.321895 0 10 191
-3.182715 -0.795800 -2.321919 0 10 191
-3.393988 -0.795800 -2.321919 0 10 191
-3.119281 -0.942804 -2.322021 255 255 255
-3.119281 -0.942804 -2.322021 255 255 255
-3.119280 -0.761855 -2.321895 255 255 255
-3.457423 -0.942803 -2.322021 0 10 191
-3.457423 -0.942803 -2.322021 255 255 255
-3.457423 -0.942803 -2.322021 255 255 255
-3.182715 -0.794866 -3.672926 0 10 191
-3.393988 -0.794866 -3.672926 0 10 191
-3.119281 -0.942804 -2.322021 0 10 191
-3.182715 -0.908858 -2.321997 0 10 191
-3.393988 -0.908857 -2.321997 0 10 191
-3.242466 -0.826840 -3.672948 0 10 191
-3.334237 -0.826840 -3.672948 0 10 191
-3.393988 -0.907923 -3.673004 0 10 191
-3.182715 -0.907923 -3.673004 0 10 191
-3.242466 -0.826652 -3.945849 0 10 191
-3.334237 -0.826652 -3.945849 0 10 191
-3.242466 -0.875949 -3.672982 0 10 191
-3.334237 -0.875949 -3.672982 0 10 191
-3.242466 -0.875761 -3.945883 0 10 191
-3.334237 -0.875761 -3.945883 0 10 191
-0.525541 0.310370 -4.030690 0 10 191
0.000000 0.310370 -5.130285 0 10 191
0.000000 0.948491 -1.700656 0 10 191
1.240349 -0.000333 0.372761 0 10 191
1.240349 -0.000333 -1.000000 0 10 191
0.960107 0.565249 0.372760 0 10 191
0.653542 0.986010 0.372760 0 10 191
0.507604 0.512063 1.000000 0 10 191
0.582431 0.409363 1.000000 0 10 191
3.119281 -0.942804 -0.949260 0 10 191
3.119281 -0.761855 -0.949260 0 10 191
1.240349 0.180615 0.372760 0 10 191
0.805783 -0.000335 -4.284117 0 10 191
0.805782 0.180614 -4.284118 0 10 191
0.650832 0.315481 1.000000 0 10 191
0.650832 0.271315 1.000000 0 10 191
1.125746 -0.000333 -1.866080 0 10 191
1.125746 0.180615 -1.542580 0 10 191
3.457423 -0.942803 -0.949260 0 10 191
3.457423 -0.761854 -0.949261 0 10 191
3.119281 -0.761855 -0.949260 0 10 191
1.240348 0.180615 -0.560630 0 10 191
3.119280 -0.761855 -1.882651 0 10 191
3.119281 -0.942804 -2.322021 0 10 191
3.119280 -0.761855 -1.882651 0 10 191
1.240348 0.180615 -0.560630 0 10 191
1.240349 0.180615 0.372760 0 10 191
1.240349 0.180615 0.372760 255 255 255
1.240349 0.180615 0.372760 255 255 255
1.240348 0.180615 -0.560630 255 255 255
1.240348 0.180615 -0.560630 255 255 255
3.119280 -0.761855 -1.882651 255 255 255
3.119280 -0.761855 -1.882651 255 255 255
0.556329 0.986010 -1.000001 0 10 191
0.845504 0.498033 -1.630241 0 10 191
0.538940 0.845265 -1.726136 0 10 191
0.960107 0.565249 -0.770461 0 10 191
3.119281 -0.761855 -0.949260 255 255 255
3.119281 -0.761855 -0.949260 255 255 255
0.650832 0.315481 1.000000 255 255 255
0.650832 0.315481 1.000000 255 255 255
3.457423 -0.942803 -2.322021 0 10 191
3.457423 -0.761854 -1.882651 0 10 191
3.457423 -0.761854 -2.321895 0 10 191
3.119280 -0.761855 -2.321895 0 10 191
3.393988 -0.795800 -2.321919 0 10 191
3.182715 -0.795800 -2.321919 0 10 191
3.119281 -0.942804 -2.322021 0 10 191
3.457423 -0.942803 -2.322021 0 10 191
3.119281 -0.942804 -2.322021 255 255 255
3.119281 -0.942804 -2.322021 255 255 255
3.457423 -0.942803 -2.322021 255 255 255
3.457423 -0.942803 -2.322021 255 255 255
3.393988 -0.794866 -3.672926 0 10 191
3.182715 -0.794866 -3.672926 0 10 191
3.182715 -0.908858 -2.321997 0 10 191
3.393988 -0.908857 -2.321997 0 10 191
3.334237 -0.826840 -3.672948 0 10 191
3.242466 -0.826840 -3.672948 0 10 191
3.182715 -0.907923 -3.673004 0 10 191
3.393988 -0.907923 -3.673004 0 10 191
3.334237 -0.826652 -3.945849 0 10 191
3.242466 -0.826652 -3.945849 0 10 191
3.242466 -0.875949 -3.672982 0 10 191
3.334237 -0.875949 -3.672982 0 10 191
3.334237 -0.875761 -3.945883 1 11 191
3.242466 -0.875761 -3.945883 1 11 191
3.242466 -0.875761 -3.945883 0 10 191
3.334237 -0.875761 -3.945883 0 10 191
0.525541 0.310370 -4.030690 0 10 191
4 0 1 2 3
4 4 5 6 7
4 8 0 9 10
4 5 11 12 6
4 13 14 15 16
4 17 18 19 20
4 21 22 13 16
4 22 23 14 13
4 8 24 25 26
4 27 1 28 29
4 9 30 31 10
4 32 0 18 17
4 33 34 35 36
4 34 37 38 35
4 7 39 40 41
4 42 43 41 44
4 18 0 3 19
4 43 4 7 41
4 1 0 8 28
4 37 45 46 38
4 47 33 36 48
4 6 12 39 7
4 26 25 49 50
4 28 8 26 50
4 49 29 51 52
4 24 29 49 25
4 52 51 53 54
4 37 55 56 57
4 50 49 52 58
4 55 59 60 56
4 54 53 61 62
4 51 63 64 53
4 58 52 54 65
4 63 58 65 64
4 62 61 66 67
4 64 65 68 69
4 53 64 69 61
4 65 54 62 68
4 67 66 70 71
4 61 69 72 66
4 68 62 67 73
4 69 68 73 72
4 70 74 75 71
4 73 67 71 75
4 72 73 75 74
4 66 72 74 70
4 32 17 5 4
4 17 20 11 5
4 15 14 76 77
4 23 27 43 42
4 27 32 4 43
4 1 27 23 22
4 14 23 42 76
4 2 1 22 21
4 41 40 78 44
4 79 3 2 80
4 81 82 83 84
4 85 86 87 79
4 84 83 12 11
4 88 16 15 89
4 90 20 19 91
4 21 16 88 92
4 92 88 89 93
4 85 94 95 96
4 97 98 99 80
4 87 86 100 101
4 91 79 102 90
4 103 104 105 106
4 106 105 107 108
4 82 109 40 39
4 110 111 109 112
4 91 19 3 79
4 112 109 82 81
4 80 99 85 79
4 108 107 113 114
4 115 116 104 103
4 83 82 39 12
4 94 117 118 95
4 99 117 94 85
4 118 119 120 98
4 96 95 118 98
4 119 121 122 120
4 98 120 123 99
4 117 124 119 118
4 125 126 127 128
4 121 129 130 122
4 120 122 131 123
4 124 132 121 119
4 123 131 132 124
4 129 133 134 130
4 131 135 136 132
4 122 130 135 131
4 132 136 129 121
4 133 137 138 134
4 130 134 139 135
4 136 140 133 129
4 135 139 140 136
4 138 137 141 142
4 140 141 137 133
4 139 143 144 140
4 134 138 143 139
4 102 81 84 90
4 90 84 11 20
4 15 77 145 89
4 93 110 112 97
4 97 112 81 102
4 80 92 93 97
4 89 145 110 93
4 2 21 92 80
4 109 111 78 40
