ply
format ascii 1.0
comment Created by Blender 2.73 (sub 0) - www.blender.org, source file: 'star.blend'
element vertex 424
property float x
property float y
property float z
property uchar red
property uchar green
property uchar blue
element face 630
property list uchar uint vertex_indices
end_header
0.000000 0.000000 -0.300000 255 252 1
0.264135 -0.191903 -0.258335 255 252 0
-0.100888 -0.310508 -0.258334 255 252 0
0.940690 -0.683443 0.418615 255 255 255
0.792411 -0.575713 0.145226 255 255 255
1.056548 -0.383809 0.347009 255 255 255
-0.326491 0.000000 -0.258333 255 252 0
0.000000 0.000000 -0.300000 255 255 255
-0.326491 0.000000 -0.258333 255 255 255
-0.100888 0.310508 -0.258334 255 255 255
0.000000 0.000000 -0.300000 255 252 0
-0.100888 0.310508 -0.258334 255 252 0
0.264135 0.191903 -0.258334 255 255 132
0.940690 -0.683443 0.418615 255 252 0
1.056548 -0.383809 0.347009 255 252 0
1.118907 -0.575715 0.673504 255 252 0
-0.359304 -1.105844 0.418614 255 252 0
-0.038531 -1.123439 0.347008 255 252 0
-0.201780 -1.242048 0.673503 255 252 0
-1.162754 -0.000000 0.418620 255 255 255
-1.080366 -0.310509 0.347012 255 255 255
-1.243613 -0.191904 0.673506 255 255 255
-0.359304 1.105844 0.418614 255 252 0
-0.629163 0.931534 0.347008 255 252 0
-0.566809 1.123444 0.673502 255 252 0
0.940690 0.683443 0.418615 255 252 0
0.691523 0.886226 0.347008 255 252 0
0.893306 0.886230 0.673503 255 252 0
0.893306 -0.886230 0.673503 255 252 0
-0.566809 -1.123444 0.673502 255 252 0
-1.243613 0.191904 0.673506 255 255 255
-0.201780 1.242049 0.673503 255 252 0
1.118907 0.575715 0.673504 255 252 0
0.359304 -1.105844 1.581386 255 252 0
0.629163 -0.931534 1.652992 255 252 0
0.302668 -0.931532 1.854775 255 252 0
-0.940690 -0.683443 1.581385 255 252 0
-0.691523 -0.886226 1.652992 255 252 0
-0.792411 -0.575713 1.854774 255 252 0
-0.940690 0.683443 1.581385 255 252 0
-1.056548 0.383809 1.652991 255 252 0
-0.792410 0.575713 1.854774 255 252 0
0.359304 1.105844 1.581386 255 252 0
0.038531 1.123439 1.652992 255 252 0
0.302668 0.931532 1.854775 255 252 0
1.162754 0.000000 1.581380 255 255 255
1.080366 0.310509 1.652988 255 255 255
0.979474 0.000000 1.854769 255 255 255
0.326491 0.000000 2.258334 255 255 255
0.100889 0.310509 2.258334 255 255 255
0.000000 0.000000 2.300000 255 255 255
0.683449 0.000000 2.105847 255 255 255
0.470340 0.341722 2.162758 255 255 255
0.829651 0.341723 1.940693 255 255 255
0.211192 0.649994 2.105851 255 255 255
0.683449 0.000000 2.105847 255 252 0
0.829651 0.341723 1.940693 255 253 51
0.470340 0.341722 2.162758 255 252 0
0.829651 0.341723 1.940693 255 252 0
0.581372 0.683447 1.940695 255 252 0
0.211192 0.649994 2.105851 255 252 0
1.080366 0.310509 1.652988 255 252 0
0.894646 0.649996 1.683457 255 252 0
0.829651 0.341723 1.940693 255 252 11
0.629163 0.931534 1.652992 255 252 0
-0.264135 0.191903 2.258335 255 255 255
-0.179657 0.552915 2.162759 255 255 255
-0.068626 0.894640 1.940696 255 252 0
-0.552919 0.401715 2.105851 255 255 255
-0.179657 0.552915 2.162759 255 252 0
-0.470345 0.764112 1.940696 255 252 0
-0.552919 0.401715 2.105851 255 252 0
-0.341729 1.051715 1.683459 255 252 0
-0.691523 0.886226 1.652992 255 252 0
-0.264135 -0.191903 2.258335 255 255 255
-0.581373 -0.000000 2.162758 255 255 255
-0.872061 0.211194 1.940694 255 252 0
-0.552920 -0.401715 2.105851 255 255 255
-0.581373 -0.000000 2.162758 255 252 0
-0.872061 0.211194 1.940694 255 255 255
-0.872061 -0.211194 1.940694 255 255 255
-0.872061 -0.211194 1.940694 255 252 0
-0.552920 -0.401715 2.105851 255 252 0
-1.056548 0.383809 1.652991 255 255 255
-1.105842 0.000000 1.683457 255 255 255
-1.056548 -0.383809 1.652991 255 255 255
-1.056548 -0.383809 1.652991 255 252 0
0.100889 -0.310508 2.258335 255 255 255
-0.179656 -0.552915 2.162759 255 255 255
-0.470345 -0.764112 1.940696 255 252 0
0.211192 -0.649994 2.105851 255 255 255
-0.179656 -0.552915 2.162759 255 253 35
-0.068626 -0.894640 1.940696 255 252 0
-0.179656 -0.552915 2.162759 255 252 0
0.211192 -0.649994 2.105851 255 252 1
0.211192 -0.649994 2.105851 255 252 0
-0.341729 -1.051715 1.683459 255 252 0
0.038531 -1.123439 1.652992 255 252 0
0.470340 -0.341722 2.162758 255 255 255
0.581372 -0.683447 1.940695 255 252 0
0.211192 -0.649994 2.105851 255 255 205
0.470340 -0.341722 2.162758 255 252 1
0.829652 -0.341723 1.940693 255 252 0
0.470340 -0.341722 2.162758 255 252 0
0.829652 -0.341723 1.940693 255 255 255
0.979474 0.000000 1.854769 255 252 0
0.894646 -0.649996 1.683457 255 252 0
1.080366 -0.310509 1.652988 255 252 0
1.080366 -0.310509 1.652988 255 255 255
1.243613 0.191904 1.326494 255 255 255
1.236375 0.401716 1.000000 255 255 255
1.120345 0.552918 1.359315 255 255 255
1.118907 0.575715 0.673504 255 255 255
1.051725 0.764117 1.000000 255 255 255
0.894646 0.649996 1.683457 255 255 255
1.051725 0.764117 1.000000 255 252 0
0.872067 0.894646 1.359317 255 252 0
1.120345 0.552918 1.359315 255 252 0
0.764121 1.051722 1.000000 255 252 0
0.566809 1.123444 1.326498 255 252 0
0.201780 1.242048 1.326497 255 252 0
0.000000 1.300000 1.000000 255 252 0
-0.179658 1.236372 1.359316 255 252 0
-0.401721 1.236374 1.000000 255 252 0
-0.581380 1.105843 1.359316 255 252 0
-0.764121 1.051722 1.000000 255 252 0
-0.893306 0.886230 1.326498 255 252 0
-1.118907 0.575715 1.326496 255 255 255
-0.940690 0.683443 1.581385 255 255 255
-1.236375 0.401716 1.000000 255 255 255
-1.231377 0.211195 1.359315 255 255 255
-1.300000 -0.000000 1.000001 255 255 255
-1.231377 -0.211195 1.359316 255 255 255
-1.236375 -0.401716 1.000000 255 255 255
-1.118907 -0.575715 1.326496 255 255 255
-1.118907 -0.575715 1.326496 255 252 0
-0.893306 -0.886230 1.326498 255 252 0
-0.764121 -1.051722 1.000000 255 252 0
-0.581381 -1.105843 1.359316 255 252 0
-0.401722 -1.236373 0.999999 255 252 0
-0.179659 -1.236372 1.359316 255 252 0
0.000000 -1.300000 1.000000 255 252 0
0.201780 -1.242048 1.326497 255 252 0
0.566809 -1.123444 1.326498 255 252 0
0.764121 -1.051722 1.000000 255 252 0
0.872066 -0.894647 1.359315 255 252 0
1.051724 -0.764118 0.999998 255 252 0
1.120345 -0.552920 1.359313 255 252 0
1.236375 -0.401716 1.000000 255 252 0
1.120345 -0.552920 1.359313 255 255 220
1.236375 -0.401716 1.000000 255 255 255
1.243613 -0.191904 1.326494 255 255 255
1.120345 -0.552920 1.359313 255 255 255
0.401722 1.236373 1.000000 255 252 0
0.581380 1.105843 0.640683 255 252 0
0.179659 1.236371 0.640683 255 252 0
0.341730 1.051715 0.316541 255 252 0
-0.038531 1.123439 0.347008 255 252 0
-1.118907 0.575715 1.326496 255 254 92
-1.051724 0.764118 1.000000 255 252 0
-0.872065 0.894648 0.640684 255 252 0
-1.051724 0.764118 1.000000 255 253 76
-1.051724 0.764118 1.000000 255 255 255
-1.120344 0.552921 0.640685 255 252 0
-1.120344 0.552921 0.640685 255 255 255
-0.894646 0.649996 0.316543 255 252 0
-0.894646 0.649996 0.316543 255 255 255
-1.080366 0.310509 0.347012 255 255 255
-1.236375 -0.401716 1.000000 255 252 0
-1.051724 -0.764118 1.000000 255 252 0
-1.120344 -0.552921 0.640685 255 255 255
-1.120344 -0.552921 0.640685 255 252 0
-0.872065 -0.894648 0.640684 255 252 0
-1.080366 -0.310509 0.347012 255 252 0
-0.894646 -0.649996 0.316543 255 252 23
-0.894646 -0.649996 0.316543 255 252 0
-0.629163 -0.931534 0.347008 255 252 0
0.401722 -1.236373 1.000000 255 252 0
0.179659 -1.236371 0.640683 255 252 0
0.581380 -1.105843 0.640683 255 252 0
0.341730 -1.051715 0.316541 255 252 0
0.691523 -0.886226 0.347008 255 252 0
1.300000 -0.000000 1.000000 255 255 255
1.118907 -0.575715 0.673504 255 255 255
1.231377 -0.211195 0.640685 255 255 255
1.231377 0.211195 0.640685 255 255 255
1.105842 -0.000000 0.316543 255 255 255
1.056548 0.383809 0.347009 255 255 255
0.940690 0.683443 0.418615 255 255 255
0.792411 0.575713 0.145226 255 252 0
0.552919 0.401715 -0.105850 255 255 255
0.470345 0.764113 0.059305 255 255 255
0.792411 0.575713 0.145226 255 255 255
0.264135 0.191903 -0.258334 255 252 0
0.179656 0.552918 -0.162758 255 252 0
0.552919 0.401715 -0.105850 255 252 0
0.470345 0.764113 0.059305 255 252 0
0.068626 0.894642 0.059306 255 252 0
-0.211192 0.649994 -0.105851 255 252 0
-0.302668 0.931532 0.145225 255 252 0
-0.581374 0.683445 0.059305 255 252 0
-0.470341 0.341721 -0.162758 255 252 0
-0.470341 0.341721 -0.162758 255 255 255
-0.829653 0.341722 0.059308 255 255 255
-0.581374 0.683445 0.059305 255 255 255
-0.683449 0.000000 -0.105847 255 255 255
-0.979474 -0.000000 0.145231 255 255 255
-0.829653 -0.341723 0.059308 255 255 255
-0.470342 -0.341724 -0.162757 255 255 255
-0.894646 -0.649996 0.316543 255 255 255
-0.581374 -0.683447 0.059307 255 255 255
-0.581374 -0.683447 0.059307 255 252 0
-0.470342 -0.341724 -0.162757 255 252 0
-0.211192 -0.649994 -0.105851 255 252 0
-0.302668 -0.931532 0.145225 255 252 0
0.872062 0.211194 0.059307 255 255 255
0.872063 -0.211195 0.059307 255 255 255
0.581374 -0.000001 -0.162757 255 255 255
0.264135 0.191903 -0.258334 255 255 255
0.552920 -0.401715 -0.105850 255 255 255
0.264135 -0.191903 -0.258335 255 255 255
0.068628 -0.894641 0.059305 255 252 0
0.179658 -0.552917 -0.162758 255 252 0
0.470347 -0.764113 0.059306 255 252 0
0.552920 -0.401715 -0.105850 255 252 4
0.470347 -0.764113 0.059306 255 255 255
0.792411 -0.575713 0.145226 255 252 0
-0.342626 0.929923 -0.156933 255 252 0
-2.025518 -0.003603 -1.295529 255 252 0
-0.475129 0.985619 -0.023628 255 252 0
-0.612644 1.003576 0.114923 255 252 0
-0.749887 0.983105 0.253396 255 252 0
-0.220227 0.838629 -0.279869 255 252 0
-0.112635 0.715246 -0.387712 255 252 0
-0.023986 0.564515 -0.476317 255 252 0
0.042314 0.392228 -0.542279 255 252 0
0.083717 0.205007 -0.583064 255 252 0
0.098632 0.010045 -0.597103 255 252 0
0.086485 -0.185164 -0.583859 255 252 0
0.047744 -0.373118 -0.543838 255 252 0
-0.016102 -0.546596 -0.478580 255 252 0
-0.102601 -0.698929 -0.390592 255 252 0
-0.208429 -0.824265 -0.283255 255 252 0
-0.329517 -0.917786 -0.160696 255 252 0
-0.461213 -0.975898 -0.027622 255 252 0
-0.598455 -0.996369 0.110851 255 252 0
-0.735971 -0.978412 0.249403 255 252 0
-0.868474 -0.922716 0.382708 255 252 0
-0.990874 -0.831422 0.505644 255 252 0
-1.098465 -0.708039 0.613487 255 252 0
-1.187114 -0.557307 0.702092 255 252 0
-1.253414 -0.385020 0.768054 255 252 36
-1.294817 -0.197799 0.808838 255 252 4
-1.253414 -0.385020 0.768054 255 252 0
-1.309731 -0.002837 0.822878 255 253 23
-1.294817 -0.197799 0.808838 255 252 3
-1.297585 0.192371 0.809633 255 253 78
-1.258844 0.380326 0.769612 255 252 14
-1.194997 0.553803 0.704354 255 252 0
-1.108498 0.706136 0.616366 255 252 0
-1.002671 0.831472 0.509029 255 252 0
-0.881582 0.924993 0.386469 255 252 0
-0.342626 0.929923 -0.156933 255 253 18
-1.309731 -0.002837 0.822878 255 252 0
-1.294817 -0.197799 0.808838 255 252 0
-1.258844 0.380326 0.769612 255 252 4
-1.297585 0.192371 0.809633 255 252 0
-1.108498 0.706136 0.616366 255 253 48
-1.194997 0.553803 0.704354 255 253 53
-1.002671 0.831472 0.509029 255 252 2
-0.749887 0.983105 0.253396 255 253 6
0.804067 0.928477 0.387561 255 252 0
1.884226 -0.007279 -1.332211 255 252 0
0.667843 0.986672 0.259163 255 252 0
0.525776 1.007228 0.125660 255 252 0
0.383323 0.989358 -0.007822 255 252 0
0.929212 0.834882 0.505916 255 252 0
1.038469 0.709482 0.609682 255 252 0
1.127639 0.557097 0.694869 255 252 0
1.193295 0.383582 0.758205 255 253 10
1.127639 0.557097 0.694869 255 252 2
1.232915 0.195607 0.797256 255 255 114
1.193295 0.383582 0.758205 255 255 252
1.244975 0.000394 0.810520 255 255 189
1.232915 0.195607 0.797256 255 255 255
1.229013 -0.194554 0.797489 255 254 145
1.244975 0.000394 0.810520 255 255 255
1.185641 -0.381746 0.758662 255 253 60
1.229013 -0.194554 0.797489 255 255 254
1.116526 -0.553988 0.695532 255 254 53
1.185641 -0.381746 0.758662 255 255 255
1.024325 -0.704661 0.610526 255 252 0
1.116526 -0.553988 0.695532 255 252 0
0.912581 -0.827975 0.506909 255 252 0
0.785587 -0.919190 0.388664 255 252 0
0.648225 -0.974801 0.260334 255 252 0
0.505772 -0.992671 0.126852 255 252 0
0.363704 -0.972114 -0.006653 255 252 0
0.227481 -0.913920 -0.135050 255 252 0
0.102335 -0.820324 -0.253405 255 252 0
-0.006922 -0.694924 -0.357171 255 252 0
-0.096091 -0.542538 -0.442358 255 252 0
-0.161748 -0.369024 -0.505694 255 252 0
-0.201367 -0.181048 -0.544744 255 252 0
-0.213427 0.014164 -0.558009 255 252 0
-0.197465 0.209112 -0.544977 255 252 0
-0.154093 0.396304 -0.506150 255 252 0
-0.084978 0.568546 -0.443021 255 252 0
0.007223 0.719219 -0.358014 255 252 0
0.118968 0.842532 -0.254397 255 252 0
0.245961 0.933747 -0.136152 255 252 0
1.193295 0.383582 0.758205 255 252 0
1.244975 0.000394 0.810520 255 252 0
1.232915 0.195607 0.797256 255 252 0
1.185641 -0.381746 0.758662 255 252 0
1.229013 -0.194554 0.797489 255 252 0
-1.053637 0.874154 0.680840 255 252 0
-2.985891 0.048153 1.445114 255 252 0
-1.015367 0.931239 0.864433 255 252 0
-0.977446 0.950686 1.055777 255 252 0
-0.941334 0.931748 1.247524 255 252 0
-1.090787 0.781626 0.512057 255 252 0
-1.125389 0.657209 0.364569 255 252 0
-1.156112 0.505686 0.244043 255 252 0
-1.181777 0.332880 0.155113 255 252 0
-1.201398 0.145430 0.101195 255 253 78
-1.214219 -0.049459 0.084362 255 253 59
-1.219748 -0.244298 0.105260 255 252 13
-1.214219 -0.049459 0.084362 255 252 1
-1.217774 -0.431599 0.163086 255 253 78
-1.219748 -0.244298 0.105260 255 252 0
-1.208370 -0.604165 0.255619 255 252 0
-1.217774 -0.431599 0.163086 255 252 0
-1.191901 -0.755363 0.379301 255 252 0
-1.168997 -0.879383 0.529380 255 252 0
-1.140539 -0.971460 0.700089 255 252 0
-1.107622 -1.028055 0.884867 255 252 0
-1.071509 -1.046992 1.076613 255 252 0
-1.033588 -1.027545 1.267959 255 252 0
-0.995318 -0.970460 1.451552 255 252 0
-0.958168 -0.877932 1.620335 255 252 0
-0.923566 -0.753515 1.767823 255 252 0
-0.892843 -0.601992 1.888348 255 252 0
-0.867177 -0.429185 1.977278 255 252 0
-0.847557 -0.241736 2.031195 255 252 0
-0.834736 -0.046847 2.048028 255 252 0
-0.829207 0.147992 2.027130 255 252 0
-0.831182 0.335293 1.969304 255 252 0
-0.840585 0.507858 1.876772 255 252 0
-0.857054 0.659056 1.753090 255 252 0
-0.879958 0.783077 1.603010 255 252 0
-0.908416 0.875154 1.432302 255 252 0
-1.214219 -0.049459 0.084362 255 252 0
-1.201398 0.145430 0.101195 255 252 0
0.917097 0.887469 1.481354 255 252 0
2.984015 0.034682 1.456735 255 252 0
0.947892 0.944913 1.296472 255 252 0
0.981303 0.964711 1.104325 255 252 0
1.016048 0.946104 0.912293 255 252 0
0.890102 0.794588 1.651864 255 252 0
0.867945 0.669838 1.801450 255 252 0
0.851477 0.518013 1.924363 255 252 0
0.841331 0.344949 2.015880 255 252 0
2.984015 0.034682 1.456735 255 252 8
0.837897 0.157296 2.072484 255 252 0
0.841307 -0.037735 2.091999 255 252 0
0.851429 -0.232648 2.073676 255 252 0
0.867876 -0.419954 2.018218 255 252 0
0.890014 -0.592454 1.927757 255 252 0
0.916993 -0.743519 1.805770 255 252 0
0.947776 -0.867344 1.656944 255 252 0
0.981181 -0.959170 1.486998 255 252 0
1.015923 -1.015468 1.302464 255 252 0
1.050668 -1.034076 1.110432 255 252 0
1.084079 -1.014277 0.918283 255 252 0
1.114874 -0.956833 0.733402 255 252 0
1.141869 -0.863951 0.562891 255 252 0
1.164026 -0.739201 0.413305 255 252 0
1.180494 -0.587377 0.290393 255 252 0
1.190640 -0.414312 0.198876 255 252 0
1.194074 -0.226659 0.142272 255 252 0
1.190664 -0.031629 0.122758 255 252 0
1.180542 0.163285 0.141081 255 252 0
1.164095 0.350590 0.196539 255 252 0
1.141957 0.523090 0.287000 255 252 0
1.114978 0.674155 0.408987 255 252 0
1.084195 0.797980 0.557813 255 252 0
1.050790 0.889806 0.727759 255 252 0
-0.382682 0.923880 2.000000 255 252 0
0.000000 0.000000 4.000000 255 252 0
-0.195089 0.980786 2.000000 255 252 0
0.000000 1.000000 2.000000 255 252 0
0.195090 0.980785 2.000000 255 252 0
-0.555569 0.831470 2.000000 255 252 0
-0.707106 0.707108 2.000000 255 252 0
-0.831469 0.555571 2.000000 255 252 0
-0.923879 0.382684 2.000000 255 252 0
-0.980785 0.195091 2.000000 255 252 0
-1.000000 0.000001 2.000000 255 252 0
-0.980785 -0.195089 2.000000 255 252 0
-0.923880 -0.382683 2.000000 255 252 0
-0.831470 -0.555570 2.000000 255 252 0
-0.707107 -0.707106 2.000000 255 252 0
-0.555571 -0.831469 2.000000 255 252 0
-0.382684 -0.923879 2.000000 255 252 0
-0.195091 -0.980785 2.000000 255 252 0
-0.000000 -1.000000 2.000000 255 252 0
0.195090 -0.980785 2.000000 255 252 0
0.382683 -0.923880 2.000000 255 252 0
0.555570 -0.831470 2.000000 255 252 0
0.707107 -0.707107 2.000000 255 252 0
0.831470 -0.555570 2.000000 255 252 0
0.923880 -0.382683 2.000000 255 252 0
0.980785 -0.195090 2.000000 255 252 0
1.000000 0.000000 2.000000 255 252 0
0.980785 0.195090 2.000000 255 252 0
0.923880 0.382683 2.000000 255 252 0
0.831470 0.555570 2.000000 255 252 0
0.707107 0.707107 2.000000 255 252 0
0.555570 0.831470 2.000000 255 252 0
0.382683 0.923880 2.000000 255 252 0
-0.980785 -0.195089 2.000000 255 252 3
0.923880 -0.382683 2.000000 255 252 1
0.831470 -0.555570 2.000000 255 252 9
3 0 1 2
3 3 4 5
3 0 2 6
3 7 8 9
3 10 11 12
3 13 14 15
3 16 17 18
3 19 20 21
3 22 23 24
3 25 26 27
3 13 15 28
3 16 18 29
3 19 21 30
3 22 24 31
3 25 27 32
3 33 34 35
3 36 37 38
3 39 40 41
3 42 43 44
3 45 46 47
3 48 49 50
3 51 52 48
3 47 53 51
3 48 52 49
3 52 54 49
3 55 56 57
3 58 59 57
3 57 59 60
3 59 44 60
3 47 46 53
3 61 62 63
3 58 62 59
3 62 64 59
3 59 64 44
3 64 42 44
3 49 65 50
3 54 66 49
3 44 67 60
3 49 66 65
3 66 68 65
3 60 67 69
3 67 70 69
3 69 70 71
3 70 41 71
3 44 43 67
3 43 72 67
3 67 72 70
3 72 73 70
3 70 73 41
3 73 39 41
3 65 74 50
3 68 75 65
3 41 76 71
3 65 75 74
3 75 77 74
3 71 76 78
3 79 80 75
3 75 80 77
3 81 38 82
3 41 40 76
3 83 84 79
3 79 84 80
3 84 85 80
3 81 86 38
3 86 36 38
3 74 87 50
3 77 88 74
3 38 89 82
3 74 88 87
3 88 90 87
3 82 89 91
3 89 92 93
3 93 92 94
3 92 35 95
3 38 37 89
3 37 96 89
3 89 96 92
3 96 97 92
3 92 97 35
3 97 33 35
3 87 48 50
3 90 98 87
3 35 99 95
3 87 98 48
3 98 51 48
3 100 99 101
3 99 102 103
3 98 104 51
3 102 105 55
3 35 34 99
3 34 106 99
3 99 106 102
3 106 107 102
3 102 107 105
3 108 45 47
3 109 46 45
3 110 111 109
3 112 113 110
3 109 111 46
3 111 114 46
3 110 113 111
3 115 116 117
3 117 116 62
3 116 64 62
3 32 27 115
3 27 118 115
3 115 118 116
3 118 119 116
3 116 119 64
3 119 42 64
3 120 43 42
3 121 122 120
3 31 123 121
3 120 122 43
3 122 72 43
3 121 123 122
3 123 124 122
3 122 124 72
3 124 73 72
3 31 24 123
3 24 125 123
3 123 125 124
3 125 126 124
3 124 126 73
3 126 39 73
3 127 83 128
3 129 130 127
3 30 131 129
3 127 130 83
3 130 84 83
3 129 131 130
3 131 132 130
3 130 132 84
3 132 85 84
3 30 21 131
3 21 133 131
3 131 133 132
3 133 134 132
3 132 134 85
3 135 36 86
3 136 37 36
3 137 138 136
3 29 139 137
3 136 138 37
3 138 96 37
3 137 139 138
3 139 140 138
3 138 140 96
3 140 97 96
3 29 18 139
3 18 141 139
3 139 141 140
3 141 142 140
3 140 142 97
3 142 33 97
3 143 34 33
3 144 145 143
3 28 146 144
3 143 145 34
3 145 106 34
3 144 146 145
3 146 147 145
3 145 147 106
3 147 107 106
3 28 15 146
3 15 148 146
3 146 148 149
3 150 151 152
3 152 151 108
3 151 45 108
3 119 120 42
3 118 153 119
3 27 154 118
3 119 153 120
3 153 121 120
3 118 154 153
3 154 155 153
3 153 155 121
3 155 31 121
3 27 26 154
3 26 156 154
3 154 156 155
3 156 157 155
3 155 157 31
3 157 22 31
3 126 158 39
3 125 159 126
3 24 160 125
3 126 161 158
3 162 129 127
3 125 160 159
3 160 163 159
3 162 164 129
3 164 30 129
3 24 23 160
3 23 165 160
3 160 165 163
3 166 167 164
3 164 167 30
3 167 19 30
3 135 136 36
3 168 169 134
3 21 170 133
3 135 169 136
3 169 137 136
3 168 171 169
3 171 172 169
3 169 172 137
3 172 29 137
3 21 20 170
3 173 174 171
3 171 175 172
3 175 176 172
3 172 176 29
3 176 16 29
3 142 143 33
3 141 177 142
3 18 178 141
3 142 177 143
3 177 144 143
3 141 178 177
3 178 179 177
3 177 179 144
3 179 28 144
3 18 17 178
3 17 180 178
3 178 180 179
3 180 181 179
3 179 181 28
3 181 13 28
3 151 109 45
3 150 182 151
3 183 184 150
3 151 182 109
3 182 110 109
3 150 184 182
3 184 185 182
3 182 185 110
3 185 112 110
3 183 5 184
3 5 186 184
3 184 186 185
3 186 187 185
3 185 187 112
3 187 188 112
3 189 26 25
3 190 191 192
3 193 194 195
3 189 196 26
3 196 156 26
3 195 194 196
3 194 197 196
3 196 197 156
3 197 157 156
3 193 11 194
3 11 198 194
3 194 198 197
3 198 199 197
3 197 199 157
3 199 22 157
3 199 23 22
3 198 200 199
3 11 201 198
3 199 200 23
3 200 165 23
3 198 201 200
3 202 203 204
3 204 203 166
3 203 167 166
3 9 8 202
3 8 205 202
3 202 205 203
3 205 206 203
3 203 206 167
3 206 19 167
3 206 20 19
3 205 207 206
3 8 208 205
3 206 207 20
3 207 209 20
3 205 208 207
3 208 210 207
3 207 210 209
3 211 176 175
3 6 2 212
3 2 213 212
3 212 213 211
3 213 214 211
3 211 214 176
3 214 16 176
3 187 192 188
3 186 215 187
3 5 216 186
3 187 215 192
3 215 190 192
3 186 216 215
3 216 217 215
3 215 217 190
3 217 218 190
3 5 4 216
3 4 219 216
3 216 219 217
3 219 220 217
3 217 220 218
3 1 10 12
3 214 17 16
3 213 221 214
3 2 222 213
3 214 221 17
3 221 180 17
3 213 222 221
3 222 223 221
3 221 223 180
3 223 181 180
3 2 1 222
3 1 219 222
3 222 224 223
3 219 4 225
3 223 226 181
3 226 13 181
3 227 228 229
3 230 228 231
3 232 228 227
3 233 228 232
3 234 228 233
3 235 228 234
3 236 228 235
3 237 228 236
3 238 228 237
3 239 228 238
3 240 228 239
3 241 228 240
3 242 228 241
3 243 228 242
3 244 228 243
3 245 228 244
3 246 228 245
3 247 228 246
3 248 228 247
3 249 228 248
3 250 228 249
3 251 228 250
3 252 228 253
3 254 228 255
3 256 228 254
3 257 228 256
3 258 228 257
3 259 228 258
3 260 228 259
3 261 228 260
3 229 228 230
3 231 228 261
3 230 262 229
3 233 232 262
3 235 234 233
3 237 236 235
3 239 238 237
3 241 240 239
3 243 242 241
3 245 244 243
3 247 246 245
3 249 248 247
3 253 250 249
3 263 264 253
3 265 266 263
3 267 268 265
3 261 269 267
3 230 270 261
3 230 233 262
3 237 235 233
3 241 239 237
3 245 243 241
3 249 247 245
3 263 253 249
3 267 265 263
3 230 261 267
3 230 237 233
3 245 241 237
3 263 249 245
3 230 267 263
3 230 245 237
3 230 263 245
3 271 272 273
3 274 272 275
3 276 272 271
3 277 272 276
3 278 272 277
3 279 272 280
3 281 272 282
3 283 272 284
3 285 272 286
3 287 272 288
3 289 272 290
3 291 272 292
3 293 272 291
3 294 272 293
3 295 272 294
3 296 272 295
3 297 272 296
3 298 272 297
3 299 272 298
3 300 272 299
3 301 272 300
3 302 272 301
3 303 272 302
3 304 272 303
3 305 272 304
3 306 272 305
3 307 272 306
3 308 272 307
3 309 272 308
3 310 272 309
3 273 272 274
3 275 272 310
3 274 271 273
3 277 276 271
3 311 278 277
3 312 313 311
3 314 315 312
3 291 292 314
3 294 293 291
3 296 295 294
3 298 297 296
3 300 299 298
3 302 301 300
3 304 303 302
3 306 305 304
3 308 307 306
3 310 309 308
3 274 275 310
3 274 277 271
3 312 311 277
3 291 314 312
3 296 294 291
3 300 298 296
3 304 302 300
3 308 306 304
3 274 310 308
3 274 312 277
3 296 291 312
3 304 300 296
3 274 308 304
3 274 296 312
3 274 304 296
3 316 317 318
3 319 317 320
3 321 317 316
3 322 317 321
3 323 317 322
3 324 317 323
3 325 317 324
3 326 317 325
3 327 317 328
3 329 317 330
3 331 317 332
3 333 317 331
3 334 317 333
3 335 317 334
3 336 317 335
3 337 317 336
3 338 317 337
3 339 317 338
3 340 317 339
3 341 317 340
3 342 317 341
3 343 317 342
3 344 317 343
3 345 317 344
3 346 317 345
3 347 317 346
3 348 317 347
3 349 317 348
3 350 317 349
3 351 317 350
3 318 317 319
3 320 317 351
3 319 316 318
3 322 321 316
3 324 323 322
3 352 353 324
3 332 330 352
3 333 331 332
3 335 334 333
3 337 336 335
3 339 338 337
3 341 340 339
3 343 342 341
3 345 344 343
3 347 346 345
3 349 348 347
3 351 350 349
3 319 320 351
3 319 322 316
3 352 324 322
3 333 332 352
3 337 335 333
3 341 339 337
3 345 343 341
3 349 347 345
3 319 351 349
3 319 352 322
3 337 333 352
3 345 341 337
3 319 349 345
3 319 337 352
3 319 345 337
3 354 355 356
3 357 355 358
3 359 355 354
3 360 355 359
3 361 355 360
3 362 363 361
3 364 363 362
3 365 355 364
3 366 355 365
3 367 355 366
3 368 355 367
3 369 355 368
3 370 355 369
3 371 355 370
3 372 355 371
3 373 355 372
3 374 355 373
3 375 355 374
3 376 355 375
3 377 355 376
3 378 355 377
3 379 355 378
3 380 355 379
3 381 355 380
3 382 355 381
3 383 355 382
3 384 355 383
3 385 355 384
3 386 355 385
3 387 355 386
3 356 355 357
3 358 355 387
3 357 354 356
3 360 359 354
3 362 361 360
3 365 364 362
3 367 366 365
3 369 368 367
3 371 370 369
3 373 372 371
3 375 374 373
3 377 376 375
3 379 378 377
3 381 380 379
3 383 382 381
3 385 384 383
3 387 386 385
3 357 358 387
3 357 360 354
3 365 362 360
3 369 367 365
3 373 371 369
3 377 375 373
3 381 379 377
3 385 383 381
3 357 387 385
3 357 365 360
3 373 369 365
3 381 377 373
3 357 385 381
3 357 373 365
3 357 381 373
3 388 389 390
3 391 389 392
3 393 389 388
3 394 389 393
3 395 389 394
3 396 389 395
3 397 389 396
3 398 389 397
3 399 389 398
3 400 389 399
3 401 389 400
3 402 389 401
3 403 389 402
3 404 389 403
3 405 389 404
3 406 389 405
3 407 389 406
3 408 389 407
3 409 389 408
3 410 389 409
3 411 389 410
3 412 389 411
3 413 389 412
3 414 389 413
3 415 389 414
3 416 389 415
3 417 389 416
3 418 389 417
3 419 389 418
3 420 389 419
3 390 389 391
3 392 389 420
3 391 388 390
3 394 393 388
3 396 395 394
3 398 397 396
3 400 421 398
3 402 401 400
3 404 403 402
3 406 405 404
3 408 407 406
3 410 409 408
3 422 423 410
3 414 413 422
3 416 415 414
3 418 417 416
3 420 419 418
3 391 392 420
3 391 394 388
3 398 396 394
3 402 400 398
3 406 404 402
3 410 408 406
3 414 422 410
3 418 416 414
3 391 420 418
3 391 398 394
3 406 402 398
3 414 410 406
3 391 418 414
3 391 406 398
3 391 414 406
